%TF.GenerationSoftware,KiCad,Pcbnew,(6.0.0)*%
%TF.CreationDate,2022-07-11T00:19:46-07:00*%
%TF.ProjectId,greenthumb,67726565-6e74-4687-956d-622e6b696361,rev?*%
%TF.SameCoordinates,Original*%
%TF.FileFunction,Profile,NP*%
%FSLAX46Y46*%
G04 Gerber Fmt 4.6, Leading zero omitted, Abs format (unit mm)*
G04 Created by KiCad (PCBNEW (6.0.0)) date 2022-07-11 00:19:46*
%MOMM*%
%LPD*%
G01*
G04 APERTURE LIST*
%TA.AperFunction,Profile*%
%ADD10C,0.200000*%
%TD*%
G04 APERTURE END LIST*
D10*
X231313460Y-83647300D02*
G75*
G03*
X228925218Y-82268440I-1883474J-504557D01*
G01*
X200329559Y-29832946D02*
G75*
G03*
X198208243Y-33507186I776368J-2897724D01*
G01*
X111883701Y-61121670D02*
G75*
G03*
X109632970Y-57930400I-3040042J245257D01*
G01*
X231313459Y-83647300D02*
G75*
G03*
X235000633Y-85816915I2910617J728567D01*
G01*
X252914188Y-90852091D02*
X250960113Y-83559373D01*
X83920824Y-26194262D02*
G75*
G03*
X80233649Y-28363883I-776561J-2898175D01*
G01*
X182282750Y-129197610D02*
X170773683Y-137256342D01*
X111883701Y-61121670D02*
X138929624Y-68368600D01*
X64274177Y-26106347D02*
X77845406Y-29742744D01*
X60599941Y-28227665D02*
X53728310Y-53872927D01*
X98253460Y-120629571D02*
G75*
G03*
X93314454Y-118831913I-12743542J-27328754D01*
G01*
X37768838Y-51615388D02*
G75*
G03*
X34094604Y-53736710I-776457J-2897776D01*
G01*
X250960113Y-83559373D02*
G75*
G03*
X248571863Y-82180516I-1883521J-504640D01*
G01*
X83846485Y-88290814D02*
G75*
G03*
X82467629Y-85902567I-1883696J504612D01*
G01*
X127047939Y-137254074D02*
G75*
G03*
X129819895Y-138401363I3969989J5669563D01*
G01*
X127047939Y-137254074D02*
X115538878Y-129195336D01*
X51340066Y-55251792D02*
G75*
G03*
X53728310Y-53872927I504682J1883568D01*
G01*
X219976214Y-29745014D02*
X233547448Y-26108613D01*
X99613374Y-33504900D02*
G75*
G03*
X97492054Y-29830667I-2897752J776471D01*
G01*
X25540647Y-85660503D02*
G75*
G03*
X27661968Y-89334734I2897782J-776451D01*
G01*
X248571863Y-82180516D02*
X235000633Y-85816915D01*
X217587968Y-28366154D02*
G75*
G03*
X213900795Y-26196548I-2910697J-728715D01*
G01*
X34094604Y-53736710D02*
X25540647Y-85660503D01*
X99613373Y-33504900D02*
X94682879Y-51905746D01*
X62820987Y-85814644D02*
G75*
G03*
X66495220Y-83693321I776456J2897777D01*
G01*
X200329559Y-29832947D02*
X213900795Y-26196548D01*
X199568160Y-120631846D02*
X186834564Y-126569617D01*
X83846485Y-88290814D02*
X77621904Y-111521279D01*
X129819895Y-138401363D02*
X168000791Y-138401366D01*
X237221679Y-28229934D02*
G75*
G03*
X233547448Y-26108613I-2897803J-776502D01*
G01*
X218078397Y-115197793D02*
X204507165Y-118834196D01*
X41233199Y-92971133D02*
X27661968Y-89334734D01*
X110987059Y-126567345D02*
X98253460Y-120629571D01*
X198208243Y-33507186D02*
X203138739Y-51908031D01*
X263727017Y-53738988D02*
X272280976Y-85662775D01*
X246481550Y-55254067D02*
X260052777Y-51617666D01*
X77621904Y-111521279D02*
G75*
G03*
X79743227Y-115195515I2897701J-776502D01*
G01*
X263727016Y-53738988D02*
G75*
G03*
X260052777Y-51617666I-2897729J-776370D01*
G01*
X94682879Y-51905746D02*
G75*
G03*
X96061741Y-54294000I1883556J-504697D01*
G01*
X41233199Y-92971132D02*
G75*
G03*
X44907431Y-90849813I776432J2897817D01*
G01*
X270159657Y-89337011D02*
X256588427Y-92973414D01*
X237221679Y-28229934D02*
X244093311Y-53875206D01*
X82467629Y-85902567D02*
X68896398Y-82266166D01*
X220199714Y-111523562D02*
X213975138Y-88293093D01*
X83920824Y-26194262D02*
X97492054Y-29830667D01*
X270159657Y-89337011D02*
G75*
G03*
X272280976Y-85662775I-776355J2897718D01*
G01*
X115538878Y-129195336D02*
G75*
G03*
X110987059Y-126567345I-17294150J-24698389D01*
G01*
X218078397Y-115197793D02*
G75*
G03*
X220199714Y-111523562I-776532J2897817D01*
G01*
X96061741Y-54294000D02*
X109632970Y-57930400D01*
X49249757Y-82178242D02*
G75*
G03*
X46861507Y-83557104I-504731J-1883491D01*
G01*
X68896398Y-82266165D02*
G75*
G03*
X66495220Y-83693321I-504921J-1884034D01*
G01*
X185937962Y-61123937D02*
X158892041Y-68370870D01*
X215353986Y-85904842D02*
G75*
G03*
X213975138Y-88293093I504867J-1883645D01*
G01*
X244093311Y-53875206D02*
G75*
G03*
X246481550Y-55254067I1883574J504730D01*
G01*
X217587968Y-28366154D02*
G75*
G03*
X219976214Y-29745014I1861125J465847D01*
G01*
X252914188Y-90852091D02*
G75*
G03*
X256588427Y-92973414I2897678J776280D01*
G01*
X204507165Y-118834196D02*
G75*
G03*
X199568160Y-120631846I7804583J-29126656D01*
G01*
X188188649Y-57932682D02*
G75*
G03*
X185937962Y-61123937I789354J-2946001D01*
G01*
X188188649Y-57932683D02*
X201759882Y-54296280D01*
X138929624Y-68368600D02*
X158892041Y-68370870D01*
X62820987Y-85814643D02*
X49249757Y-82178241D01*
X77845406Y-29742743D02*
G75*
G03*
X80233649Y-28363883I504687J1883559D01*
G01*
X201759882Y-54296280D02*
G75*
G03*
X203138739Y-51908031I-504611J1883504D01*
G01*
X44907431Y-90849813D02*
X46861507Y-83557104D01*
X93314454Y-118831913D02*
X79743227Y-115195515D01*
X168000791Y-138401366D02*
G75*
G03*
X170773683Y-137256342I-1182521J6793751D01*
G01*
X186834564Y-126569617D02*
G75*
G03*
X182282750Y-129197610I12744307J-27329752D01*
G01*
X37768838Y-51615388D02*
X51340066Y-55251791D01*
X64274177Y-26106346D02*
G75*
G03*
X60599941Y-28227665I-776462J-2897772D01*
G01*
X228925218Y-82268440D02*
X215353986Y-85904842D01*
M02*
