M48
; DRILL file {KiCad (6.0.0)} date Sat Jul 16 11:14:51 2022
; FORMAT={-:-/ absolute / inch / decimal}
; #@! TF.CreationDate,2022-07-16T11:14:51-07:00
; #@! TF.GenerationSoftware,Kicad,Pcbnew,(6.0.0)
; #@! TF.FileFunction,NonPlated,1,2,NPTH
FMAT,2
INCH
; #@! TA.AperFunction,NonPlated,NPTH,ComponentDrill
T1C0.0390
; #@! TA.AperFunction,NonPlated,NPTH,ComponentDrill
T2C0.0670
; #@! TA.AperFunction,NonPlated,NPTH,ComponentDrill
T3C0.1181
; #@! TA.AperFunction,NonPlated,NPTH,ComponentDrill
T4C0.1260
; #@! TA.AperFunction,NonPlated,NPTH,ComponentDrill
T5C0.1350
; #@! TA.AperFunction,NonPlated,NPTH,ComponentDrill
T6C0.1570
%
G90
G05
T1
X1.6996Y-3.1004
X1.8933Y-2.3779
X2.5496Y-2.8187
X2.7432Y-2.0961
X2.9368Y-1.3736
X3.3231Y-2.8221
X3.5167Y-2.0996
X3.7103Y-1.377
X3.7501Y-4.1186
X3.9946Y-3.2059
X4.1883Y-2.4833
X4.5418Y-4.4449
X4.6917Y-3.4946
X4.8853Y-2.772
X5.2649Y-4.9037
X6.797Y-4.668
X7.2369Y-2.6657
X7.4306Y-3.3883
X7.5559Y-4.2712
X7.934Y-2.377
X8.1276Y-3.0996
X8.3722Y-4.0123
X8.412Y-1.2708
X8.6056Y-1.9933
X8.7992Y-2.7158
X9.1855Y-1.2673
X9.3791Y-1.9898
X9.5727Y-2.7124
X10.229Y-2.2716
X10.4226Y-2.9941
T2
X1.2492Y-3.1509
X1.2652Y-3.1552
X1.4428Y-2.4284
X1.4588Y-2.4326
X1.6515Y-3.2587
X1.6675Y-3.263
X1.8451Y-2.5362
X1.8611Y-2.5405
X2.0991Y-2.8692
X2.1151Y-2.8734
X2.2927Y-2.1466
X2.3087Y-2.1509
X2.4863Y-1.4241
X2.5014Y-2.977
X2.5023Y-1.4284
X2.5174Y-2.9812
X2.695Y-2.2544
X2.711Y-2.2587
X2.8726Y-2.8726
X2.8886Y-2.8769
X2.8887Y-1.5319
X2.9046Y-1.5362
X3.0662Y-2.1501
X3.0822Y-2.1544
X3.2598Y-1.4275
X3.2749Y-2.9804
X3.2758Y-1.4318
X3.2909Y-2.9847
X3.2996Y-4.1691
X3.3156Y-4.1733
X3.4685Y-2.2579
X3.4845Y-2.2622
X3.5442Y-3.2564
X3.5602Y-3.2606
X3.6621Y-1.5353
X3.6781Y-1.5396
X3.702Y-4.2769
X3.7179Y-4.2811
X3.7378Y-2.5338
X3.7538Y-2.5381
X3.9465Y-3.3642
X3.9625Y-3.3685
X4.0895Y-4.4164
X4.1044Y-4.4233
X4.1401Y-2.6416
X4.1561Y-2.6459
X4.2413Y-3.545
X4.2572Y-3.5493
X4.4349Y-2.8225
X4.4508Y-2.8268
X4.467Y-4.5924
X4.4819Y-4.5994
X4.6436Y-3.6529
X4.6596Y-3.6571
X4.8243Y-4.7971
X4.8372Y-2.9303
X4.8379Y-4.8065
X4.8532Y-2.9346
X5.1655Y-5.036
X5.1791Y-5.0455
X6.5462Y-5.0455
X6.5597Y-5.0361
X6.8721Y-2.9347
X6.8874Y-4.8066
X6.888Y-2.9304
X6.9009Y-4.7971
X7.0657Y-3.6572
X7.0817Y-3.6529
X7.2433Y-4.5995
X7.2583Y-4.5925
X7.2744Y-2.8269
X7.2904Y-2.8226
X7.468Y-3.5494
X7.484Y-3.5451
X7.5691Y-2.646
X7.5851Y-2.6417
X7.6208Y-4.4234
X7.6358Y-4.4164
X7.7628Y-3.3685
X7.7787Y-3.3643
X7.9715Y-2.5382
X7.9875Y-2.5339
X8.0073Y-4.2812
X8.0233Y-4.277
X8.0471Y-1.5397
X8.0631Y-1.5354
X8.1651Y-3.2607
X8.1811Y-3.2565
X8.2407Y-2.2623
X8.2567Y-2.258
X8.4096Y-4.1734
X8.4256Y-4.1691
X8.4343Y-2.9848
X8.4495Y-1.4319
X8.4503Y-2.9805
X8.4655Y-1.4276
X8.6431Y-2.1544
X8.6591Y-2.1502
X8.8206Y-1.5363
X8.8366Y-1.532
X8.8367Y-2.877
X8.8527Y-2.8727
X9.0142Y-2.2588
X9.0302Y-2.2545
X9.2078Y-2.9813
X9.223Y-1.4284
X9.2238Y-2.9771
X9.2389Y-1.4242
X9.4166Y-2.151
X9.4325Y-2.1467
X9.6102Y-2.8735
X9.6262Y-2.8692
X9.8641Y-2.5405
X9.8801Y-2.5363
X10.0578Y-3.2631
X10.0737Y-3.2588
X10.2665Y-2.4327
X10.2825Y-2.4285
X10.4601Y-3.1553
X10.4761Y-3.151
T3
X1.23Y-3.2986
X1.31Y-3.3743
X1.3977Y-3.4332
X1.4236Y-2.5761
X1.5036Y-2.6517
X1.5774Y-3.3424
X1.5913Y-2.7107
X1.771Y-2.6198
X2.0799Y-3.0169
X2.1599Y-3.0925
X2.2476Y-3.1515
X2.2735Y-2.2943
X2.3535Y-2.37
X2.4273Y-3.0606
X2.4412Y-2.4289
X2.4671Y-1.5718
X2.5471Y-1.6474
X2.6209Y-2.3381
X2.6348Y-1.7064
X2.8145Y-1.6155
X2.8534Y-3.0203
X2.9334Y-3.096
X3.0211Y-3.1549
X3.047Y-2.2978
X3.127Y-2.3734
X3.2008Y-3.0641
X3.2147Y-2.4324
X3.2406Y-1.5752
X3.2804Y-4.3168
X3.3206Y-1.6509
X3.3604Y-4.3924
X3.3944Y-2.3415
X3.4083Y-1.7098
X3.4482Y-4.4514
X3.525Y-3.4041
X3.588Y-1.619
X3.605Y-3.4797
X3.6278Y-4.3605
X3.6927Y-3.5387
X3.7186Y-2.6815
X3.7986Y-2.7572
X3.8724Y-3.4478
X3.8863Y-2.8161
X4.0449Y-4.5585
X4.066Y-2.7253
X4.1105Y-4.6469
X4.1867Y-4.7202
X4.2221Y-3.6927
X4.3021Y-3.7684
X4.3794Y-4.6619
X4.3898Y-3.8274
X4.4157Y-2.9702
X4.4957Y-3.0458
X4.5694Y-3.7365
X4.5834Y-3.1048
X4.7558Y-4.9293
X4.763Y-3.014
X4.8051Y-5.0277
X4.8673Y-5.1131
X5.0672Y-5.0892
X6.647Y-5.1552
X6.7563Y-5.1425
X6.8579Y-5.1132
X6.9038Y-4.9172
X6.9293Y-3.0722
X7.0364Y-3.0977
X7.1229Y-3.7947
X7.1419Y-3.1049
X7.23Y-3.8202
X7.252Y-2.9364
X7.3235Y-4.725
X7.3355Y-3.8274
X7.4334Y-4.7315
X7.4456Y-3.6589
X7.5385Y-4.7203
X7.6178Y-4.5352
X7.6264Y-2.7835
X7.7335Y-2.809
X7.82Y-3.5061
X7.8389Y-2.8162
X7.9271Y-3.5316
X7.9491Y-2.6477
X8.0325Y-3.5388
X8.0645Y-4.4187
X8.1044Y-1.6772
X8.1427Y-3.3703
X8.1716Y-4.4443
X8.2115Y-1.7027
X8.2771Y-4.4515
X8.298Y-2.3998
X8.3169Y-1.7099
X8.3872Y-4.283
X8.4051Y-2.4253
X8.4271Y-1.5414
X8.4916Y-3.1223
X8.5105Y-2.4325
X8.5987Y-3.1478
X8.6207Y-2.264
X8.7041Y-3.155
X8.8143Y-2.9865
X8.8779Y-1.6738
X8.985Y-1.6993
X9.0715Y-2.3963
X9.0904Y-1.7065
X9.1786Y-2.4218
X9.2006Y-1.538
X9.2651Y-3.1188
X9.284Y-2.429
X9.3722Y-3.1444
X9.3942Y-2.2605
X9.4776Y-3.1516
X9.5878Y-2.9831
X9.9214Y-2.6781
X10.0285Y-2.7036
X10.115Y-3.4006
X10.1339Y-2.7108
X10.2221Y-3.4261
X10.2441Y-2.5423
X10.3275Y-3.4333
X10.4377Y-3.2648
T4
X1.3011Y-2.7757
X3.1042Y-1.7718
X4.0112Y-4.0523
X4.3364Y-2.5798
X7.3782Y-2.5558
X7.7136Y-4.0542
X8.6239Y-1.7718
X10.4152Y-2.7757
T5
X1.4583Y-3.207
X1.6519Y-2.4844
X2.3083Y-2.9252
X2.5019Y-2.2027
X2.6955Y-1.4801
X3.0817Y-2.9287
X3.2754Y-2.2061
X3.469Y-1.4836
X3.5088Y-4.2251
X3.7533Y-3.3124
X3.9469Y-2.5899
X4.2857Y-4.5079
X4.4504Y-3.6011
X4.644Y-2.8785
X5.0017Y-4.9213
X6.7235Y-4.9213
X7.0812Y-2.8786
X7.2748Y-3.6012
X7.4396Y-4.508
X7.7783Y-2.59
X7.9719Y-3.3125
X8.2165Y-4.2252
X8.2563Y-1.4837
X8.4499Y-2.2062
X8.6435Y-2.9288
X9.0298Y-1.4802
X9.2234Y-2.2028
X9.417Y-2.9253
X10.0733Y-2.4845
X10.2669Y-3.207
T6
X1.4583Y-3.207
X1.6519Y-2.4844
X2.3083Y-2.9252
X2.5019Y-2.2027
X2.6955Y-1.4801
X3.0817Y-2.9287
X3.2754Y-2.2061
X3.469Y-1.4836
X3.5088Y-4.2251
X3.7533Y-3.3124
X3.9469Y-2.5899
X4.2857Y-4.5079
X4.4504Y-3.6011
X4.644Y-2.8785
X5.0017Y-4.9213
X6.7235Y-4.9213
X7.0812Y-2.8786
X7.2748Y-3.6012
X7.4396Y-4.508
X7.7783Y-2.59
X7.9719Y-3.3125
X8.2165Y-4.2252
X8.2563Y-1.4837
X8.4499Y-2.2062
X8.6435Y-2.9288
X9.0298Y-1.4802
X9.2234Y-2.2028
X9.417Y-2.9253
X10.0733Y-2.4845
X10.2669Y-3.207
T0
M30
