M48
; DRILL file {KiCad (6.0.5)} date Sun Jun 12 18:27:04 2022
; FORMAT={-:-/ absolute / inch / decimal}
; #@! TF.CreationDate,2022-06-12T18:27:04-07:00
; #@! TF.GenerationSoftware,Kicad,Pcbnew,(6.0.5)
; #@! TF.FileFunction,Plated,1,2,PTH
FMAT,2
INCH
; #@! TA.AperFunction,Plated,PTH,ViaDrill
T1C0.0157
; #@! TA.AperFunction,Plated,PTH,ComponentDrill
T2C0.0315
; #@! TA.AperFunction,Plated,PTH,ComponentDrill
T3C0.0394
%
G90
G05
T1
X1.2107Y-2.883
X1.3751Y-2.2545
X1.9637Y-2.4611
X2.0131Y-2.4744
X2.0219Y-2.7458
X2.1913Y-2.0983
X2.4375Y-1.1874
X2.6975Y-2.6225
X2.8154Y-1.9598
X2.8657Y-2.4868
X2.9985Y-1.9762
X3.0493Y-1.4518
X3.5158Y-2.1597
X3.5512Y-2.8111
X3.6334Y-2.0056
X3.6721Y-2.3524
X3.767Y-4.2038
X3.8773Y-4.2333
X4.1594Y-3.1575
X4.2034Y-4.0405
X4.235Y-3.1492
X4.2501Y-2.6731
X4.7349Y-4.2879
X4.8774Y-3.2959
X4.9472Y-2.9007
X4.9858Y-3.2848
X5.1982Y-2.968
X5.1989Y-3.6953
X5.2383Y-3.652
X5.2416Y-2.9429
X5.2766Y-3.6127
X5.2805Y-2.908
X5.2805Y-3.3056
X5.3155Y-3.3406
X5.316Y-3.5773
X5.3243Y-2.6962
X5.3509Y-3.5436
X5.3509Y-3.0042
X5.3903Y-3.205
X5.3903Y-3.5042
X5.392Y-3.103
X5.4206Y-2.8047
X5.4257Y-3.4649
X5.6637Y-3.8064
X6.0889Y-3.9521
X6.3438Y-2.7447
X6.3598Y-3.0866
X6.3884Y-2.9163
X6.4102Y-3.5585
X6.4321Y-3.1686
X6.4391Y-3.6047
X6.4618Y-3.2613
X6.4785Y-3.6362
X6.6627Y-3.4689
X6.7306Y-2.8246
X6.7356Y-3.302
X6.9043Y-3.483
X7.4815Y-3.2183
X7.5492Y-2.9841
X7.6171Y-3.0434
X7.6684Y-3.2433
X7.6712Y-3.695
X7.6797Y-3.0977
X7.6996Y-3.6367
X7.7169Y-3.2449
X7.9039Y-1.4177
X8.0052Y-2.1609
X8.0164Y-2.2027
X8.1737Y-2.9268
X8.2171Y-2.9519
X8.2248Y-2.6156
X8.3702Y-3.3103
X8.7609Y-2.5779
X8.8087Y-1.3872
X8.9018Y-2.2671
X9.0139Y-2.6758
X9.4041Y-1.5863
X9.4326Y-2.4835
X9.6698Y-2.5015
X10.3353Y-2.3232
X10.4939Y-2.9002
T2
X5.563Y-2.8047
X5.563Y-2.9047
X5.563Y-3.0047
X5.563Y-3.1047
X5.563Y-3.2047
X5.563Y-3.3047
X5.563Y-3.4047
X6.1628Y-2.8047
X6.1628Y-2.9047
X6.1628Y-3.0047
X6.1628Y-3.1047
X6.1628Y-3.2047
X6.1628Y-3.3047
X6.1628Y-3.4047
T3
X5.8719Y-3.0485
X5.8719Y-3.1485
T0
M30
