%TF.GenerationSoftware,KiCad,Pcbnew,(6.0.0)*%
%TF.CreationDate,2022-07-11T00:19:46-07:00*%
%TF.ProjectId,greenthumb,67726565-6e74-4687-956d-622e6b696361,rev?*%
%TF.SameCoordinates,Original*%
%TF.FileFunction,Soldermask,Bot*%
%TF.FilePolarity,Negative*%
%FSLAX46Y46*%
G04 Gerber Fmt 4.6, Leading zero omitted, Abs format (unit mm)*
G04 Created by KiCad (PCBNEW (6.0.0)) date 2022-07-11 00:19:46*
%MOMM*%
%LPD*%
G01*
G04 APERTURE LIST*
G04 Aperture macros list*
%AMRoundRect*
0 Rectangle with rounded corners*
0 $1 Rounding radius*
0 $2 $3 $4 $5 $6 $7 $8 $9 X,Y pos of 4 corners*
0 Add a 4 corners polygon primitive as box body*
4,1,4,$2,$3,$4,$5,$6,$7,$8,$9,$2,$3,0*
0 Add four circle primitives for the rounded corners*
1,1,$1+$1,$2,$3*
1,1,$1+$1,$4,$5*
1,1,$1+$1,$6,$7*
1,1,$1+$1,$8,$9*
0 Add four rect primitives between the rounded corners*
20,1,$1+$1,$2,$3,$4,$5,0*
20,1,$1+$1,$4,$5,$6,$7,0*
20,1,$1+$1,$6,$7,$8,$9,0*
20,1,$1+$1,$8,$9,$2,$3,0*%
%AMRotRect*
0 Rectangle, with rotation*
0 The origin of the aperture is its center*
0 $1 length*
0 $2 width*
0 $3 Rotation angle, in degrees counterclockwise*
0 Add horizontal line*
21,1,$1,$2,0,0,$3*%
G04 Aperture macros list end*
%ADD10R,1.800000X1.100000*%
%ADD11C,3.429000*%
%ADD12C,1.701800*%
%ADD13C,3.000000*%
%ADD14C,0.990600*%
%ADD15C,3.987800*%
%ADD16RotRect,2.600000X2.600000X345.000000*%
%ADD17RotRect,2.550000X2.500000X165.000000*%
%ADD18RotRect,2.550000X2.500000X145.000000*%
%ADD19RotRect,2.600000X2.600000X325.000000*%
%ADD20RotRect,2.600000X2.600000X335.000000*%
%ADD21RotRect,2.550000X2.500000X155.000000*%
%ADD22RotRect,2.550000X2.500000X215.000000*%
%ADD23RotRect,2.600000X2.600000X35.000000*%
%ADD24RotRect,2.550000X2.500000X195.000000*%
%ADD25RotRect,2.600000X2.600000X15.000000*%
%ADD26RotRect,2.550000X2.500000X205.000000*%
%ADD27RotRect,2.600000X2.600000X25.000000*%
%ADD28C,3.200000*%
%ADD29RoundRect,0.425000X-0.425000X-0.425000X0.425000X-0.425000X0.425000X0.425000X-0.425000X0.425000X0*%
%ADD30O,1.700000X1.700000*%
%ADD31C,1.600000*%
%ADD32RotRect,0.900000X1.200000X255.000000*%
%ADD33RotRect,0.900000X1.200000X245.000000*%
%ADD34RotRect,0.900000X1.200000X235.000000*%
%ADD35RotRect,0.900000X1.200000X285.000000*%
%ADD36RotRect,0.900000X1.200000X15.000000*%
%ADD37RotRect,0.900000X1.200000X305.000000*%
%ADD38RotRect,0.900000X1.200000X295.000000*%
G04 APERTURE END LIST*
D10*
%TO.C,SW41*%
X146047311Y-100452740D03*
X152247311Y-96752740D03*
X146047311Y-96752740D03*
X152247311Y-100452740D03*
%TD*%
D11*
%TO.C,SW22*%
X58629754Y-74300164D03*
D12*
X53722851Y-72985363D03*
D13*
X52829553Y-76628291D03*
D14*
X64758927Y-71594311D03*
D13*
X57089781Y-80047423D03*
D12*
X63536657Y-75614965D03*
X53317162Y-72876659D03*
D15*
X58629754Y-74300164D03*
D13*
X61652531Y-77739716D03*
D12*
X63942346Y-75723669D03*
D13*
X54861502Y-78549667D03*
D16*
X49666146Y-75780658D03*
D17*
X51239280Y-77579095D03*
D16*
X60253188Y-80895055D03*
D17*
X65274753Y-78710288D03*
%TD*%
D13*
%TO.C,SW33*%
X85355026Y-111567003D03*
D12*
X94435870Y-108741005D03*
D14*
X95252451Y-104611647D03*
D15*
X89123278Y-107317500D03*
D12*
X84216375Y-106002699D03*
D11*
X89123278Y-107317500D03*
D12*
X83810686Y-105893995D03*
D13*
X87583305Y-113064759D03*
X92146055Y-110757052D03*
X83323077Y-109645627D03*
D12*
X94030181Y-108632301D03*
D16*
X80159670Y-108797994D03*
D17*
X81732804Y-110596431D03*
X95768277Y-111727624D03*
D16*
X90746712Y-113912391D03*
%TD*%
D12*
%TO.C,SW23*%
X83589023Y-75811597D03*
D13*
X72476230Y-76716219D03*
D14*
X84405604Y-71682239D03*
D12*
X72963839Y-72964587D03*
D13*
X74508179Y-78637595D03*
X76736458Y-80135351D03*
X81299208Y-77827644D03*
D12*
X83183334Y-75702893D03*
D11*
X78276431Y-74388092D03*
D15*
X78276431Y-74388092D03*
D12*
X73369528Y-73073291D03*
D16*
X69312823Y-75868586D03*
D17*
X70885957Y-77667023D03*
D16*
X79899865Y-80982983D03*
D17*
X84921430Y-78798216D03*
%TD*%
D12*
%TO.C,SW35*%
X131204646Y-127913697D03*
X122882062Y-122086161D03*
D14*
X133728349Y-124553559D03*
D13*
X120796682Y-125203867D03*
X122048940Y-127704337D03*
X128707439Y-129265901D03*
D12*
X131548690Y-128154599D03*
D13*
X123630574Y-129873884D03*
D12*
X122538018Y-121845259D03*
D11*
X127043354Y-124999929D03*
D15*
X127043354Y-124999929D03*
D18*
X118977119Y-125553426D03*
D19*
X118113959Y-123325404D03*
D18*
X131779259Y-131416813D03*
D19*
X126313297Y-131752346D03*
%TD*%
D13*
%TO.C,SW25*%
X116063257Y-94907212D03*
D11*
X113040480Y-91467660D03*
D15*
X113040480Y-91467660D03*
D13*
X107240279Y-93795787D03*
D12*
X117947383Y-92782461D03*
D13*
X109272228Y-95717163D03*
D12*
X107727888Y-90044155D03*
D14*
X119169653Y-88761807D03*
D12*
X108133577Y-90152859D03*
X118353072Y-92891165D03*
D13*
X111500507Y-97214919D03*
D17*
X105650006Y-94746591D03*
D16*
X104076872Y-92948154D03*
X114663914Y-98062551D03*
D17*
X119685479Y-95877784D03*
%TD*%
D15*
%TO.C,SW21*%
X37041926Y-81456671D03*
D13*
X33273674Y-85706174D03*
D12*
X31729334Y-80033166D03*
D13*
X40064703Y-84896223D03*
D12*
X42354518Y-82880176D03*
D14*
X43171099Y-78750818D03*
D13*
X35501953Y-87203930D03*
X31241725Y-83784798D03*
D12*
X32135023Y-80141870D03*
D11*
X37041926Y-81456671D03*
D12*
X41948829Y-82771472D03*
D17*
X29651452Y-84735602D03*
D16*
X28078318Y-82937165D03*
X38665360Y-88051562D03*
D17*
X43686925Y-85866795D03*
%TD*%
D13*
%TO.C,SW14*%
X98712524Y-71529953D03*
D15*
X100252497Y-65782694D03*
D12*
X105565089Y-67206199D03*
D14*
X106381670Y-63076841D03*
D11*
X100252497Y-65782694D03*
D13*
X94452296Y-68110821D03*
D12*
X105159400Y-67097495D03*
D13*
X96484245Y-70032197D03*
D12*
X95345594Y-64467893D03*
X94939905Y-64359189D03*
D13*
X103275274Y-69222246D03*
D16*
X91288889Y-67263188D03*
D17*
X92862023Y-69061625D03*
X106897496Y-70192818D03*
D16*
X101875931Y-72377585D03*
%TD*%
D12*
%TO.C,SW34*%
X113841513Y-116824328D03*
X113460864Y-116646829D03*
X104252776Y-112353027D03*
D14*
X115362743Y-112899503D03*
D13*
X102740463Y-115785491D03*
X104407897Y-118030521D03*
X106342241Y-119892459D03*
D12*
X103872127Y-112175528D03*
D15*
X108856820Y-114499928D03*
D13*
X111236402Y-118412125D03*
D11*
X108856820Y-114499928D03*
D20*
X99772305Y-114401416D03*
D21*
X101009243Y-116445703D03*
X114635056Y-119996944D03*
D20*
X109310399Y-121276534D03*
%TD*%
D13*
%TO.C,SW24*%
X91566681Y-88384783D03*
D12*
X100241836Y-85450081D03*
D13*
X93794960Y-89882539D03*
X89534732Y-86463407D03*
D12*
X90022341Y-82711775D03*
X90428030Y-82820479D03*
D11*
X95334933Y-84135280D03*
D14*
X101464106Y-81429427D03*
D13*
X98357710Y-87574832D03*
D12*
X100647525Y-85558785D03*
D15*
X95334933Y-84135280D03*
D17*
X87944459Y-87414211D03*
D16*
X86371325Y-85615774D03*
X96958367Y-90730171D03*
D17*
X101979932Y-88545404D03*
%TD*%
D13*
%TO.C,SW12*%
X62007341Y-61694828D03*
D14*
X69676487Y-53241716D03*
D12*
X58234722Y-54524064D03*
D13*
X57747113Y-58275696D03*
D15*
X63547314Y-55947569D03*
D12*
X58640411Y-54632768D03*
X68454217Y-57262370D03*
D13*
X59779062Y-60197072D03*
D11*
X63547314Y-55947569D03*
D13*
X66570091Y-59387121D03*
D12*
X68859906Y-57371074D03*
D17*
X56156840Y-59226500D03*
D16*
X54583706Y-57428063D03*
X65170748Y-62542460D03*
D17*
X70192313Y-60357693D03*
%TD*%
D12*
%TO.C,SW3*%
X83204658Y-36368106D03*
D13*
X91134338Y-41122459D03*
D12*
X93424153Y-39106412D03*
D11*
X88111561Y-37682907D03*
D13*
X86571588Y-43430166D03*
X84343309Y-41932410D03*
D12*
X82798969Y-36259402D03*
X93018464Y-38997708D03*
D14*
X94240734Y-34977054D03*
D13*
X82311360Y-40011034D03*
D15*
X88111561Y-37682907D03*
D17*
X80721087Y-40961838D03*
D16*
X79147953Y-39163401D03*
X89734995Y-44277798D03*
D17*
X94756560Y-42093031D03*
%TD*%
D12*
%TO.C,SW15*%
X123270632Y-74538575D03*
D15*
X117958040Y-73115070D03*
D14*
X124087213Y-70409217D03*
D13*
X112157839Y-75443197D03*
X120980817Y-76554622D03*
D12*
X112645448Y-71691565D03*
X113051137Y-71800269D03*
D11*
X117958040Y-73115070D03*
D13*
X116418067Y-78862329D03*
D12*
X122864943Y-74429871D03*
D13*
X114189788Y-77364573D03*
D17*
X110567566Y-76394001D03*
D16*
X108994432Y-74595564D03*
X119581474Y-79709961D03*
D17*
X124603039Y-77525194D03*
%TD*%
D13*
%TO.C,SW13*%
X79425744Y-60284999D03*
D12*
X88506588Y-57459001D03*
X77881404Y-54611991D03*
D13*
X81654023Y-61782755D03*
D14*
X89323169Y-53329643D03*
D11*
X83193996Y-56035496D03*
D13*
X77393795Y-58363623D03*
D15*
X83193996Y-56035496D03*
D12*
X88100899Y-57350297D03*
X78287093Y-54720695D03*
D13*
X86216773Y-59475048D03*
D16*
X74230388Y-57515990D03*
D17*
X75803522Y-59314427D03*
X89838995Y-60445620D03*
D16*
X84817430Y-62630387D03*
%TD*%
D12*
%TO.C,SW2*%
X63557973Y-36280186D03*
D11*
X68464876Y-37594987D03*
D13*
X66924903Y-43342246D03*
X64696624Y-41844490D03*
X71487653Y-41034539D03*
D14*
X74594049Y-34889134D03*
D12*
X63152284Y-36171482D03*
D15*
X68464876Y-37594987D03*
D12*
X73371779Y-38909788D03*
X73777468Y-39018492D03*
D13*
X62664675Y-39923114D03*
D16*
X59501268Y-39075481D03*
D17*
X61074402Y-40873918D03*
D16*
X70088310Y-44189878D03*
D17*
X75109875Y-42005111D03*
%TD*%
D11*
%TO.C,SW11*%
X41959489Y-63104078D03*
D13*
X36159288Y-65432205D03*
X40419516Y-68851337D03*
X38191237Y-67353581D03*
D12*
X47272081Y-64527583D03*
D14*
X48088662Y-60398225D03*
D12*
X46866392Y-64418879D03*
D15*
X41959489Y-63104078D03*
D12*
X36646897Y-61680573D03*
X37052586Y-61789277D03*
D13*
X44982266Y-66543630D03*
D17*
X34569015Y-66383009D03*
D16*
X32995881Y-64584572D03*
D17*
X48604488Y-67514202D03*
D16*
X43582923Y-69698969D03*
%TD*%
D13*
%TO.C,SW36*%
X175355905Y-124897518D03*
X171611174Y-130620375D03*
D11*
X170778052Y-125002198D03*
D12*
X174939344Y-122088430D03*
X166616760Y-127915966D03*
D15*
X170778052Y-125002198D03*
D12*
X166272716Y-128156868D03*
D13*
X174190832Y-129876153D03*
X168833203Y-130941900D03*
D12*
X175283388Y-121847528D03*
D14*
X172645005Y-118567690D03*
D22*
X168539354Y-132771286D03*
D23*
X166150480Y-132820363D03*
D22*
X178427726Y-122746606D03*
D23*
X176873555Y-127997690D03*
%TD*%
D14*
%TO.C,SW29*%
X243146745Y-68894514D03*
D12*
X234284749Y-75617239D03*
D11*
X239191652Y-74302438D03*
D12*
X244504244Y-72878933D03*
D15*
X239191652Y-74302438D03*
D12*
X233879060Y-75725943D03*
D13*
X243529230Y-75769789D03*
X238053001Y-79866742D03*
X235332594Y-79218755D03*
D12*
X244098555Y-72987637D03*
D13*
X240731625Y-80049697D03*
D24*
X234430779Y-80837313D03*
D25*
X232169187Y-80066387D03*
D24*
X247151452Y-74799218D03*
D25*
X243895032Y-79202064D03*
%TD*%
D15*
%TO.C,SW37*%
X188964587Y-114502198D03*
D12*
X183979894Y-116826598D03*
X184360543Y-116649099D03*
X193949280Y-112177798D03*
D13*
X188809466Y-120179692D03*
X191479166Y-119894729D03*
D14*
X191920517Y-108489638D03*
D12*
X193568631Y-112355297D03*
D11*
X188964587Y-114502198D03*
D13*
X193491070Y-115194044D03*
X186017867Y-120013944D03*
D26*
X185410812Y-121764510D03*
D27*
X183049709Y-121398018D03*
D26*
X196889724Y-113609226D03*
D27*
X194447324Y-118510655D03*
%TD*%
D12*
%TO.C,SW38*%
X213605029Y-106004977D03*
X203385534Y-108743283D03*
X214010718Y-105896273D03*
D13*
X207559475Y-112884082D03*
X213035704Y-108787129D03*
X210238099Y-113067037D03*
D12*
X203791223Y-108634579D03*
D15*
X208698126Y-107319778D03*
D11*
X208698126Y-107319778D03*
D13*
X204839068Y-112236095D03*
D14*
X212653219Y-101911854D03*
D24*
X203937253Y-113854653D03*
D25*
X201675661Y-113083727D03*
X213401506Y-112219404D03*
D24*
X216657926Y-107816558D03*
%TD*%
D13*
%TO.C,SW30*%
X265117061Y-82926301D03*
D12*
X265686386Y-80144149D03*
D11*
X260779483Y-81458950D03*
D14*
X264734576Y-76051026D03*
D12*
X266092075Y-80035445D03*
X255466891Y-82882455D03*
X255872580Y-82773751D03*
D13*
X256920425Y-86375267D03*
X259640832Y-87023254D03*
D15*
X260779483Y-81458950D03*
D13*
X262319456Y-87206209D03*
D24*
X256018610Y-87993825D03*
D25*
X253757018Y-87222899D03*
D24*
X268739283Y-81955730D03*
D25*
X265482863Y-86358576D03*
%TD*%
D13*
%TO.C,SW26*%
X186320901Y-97217196D03*
D12*
X179468336Y-92893442D03*
X190093520Y-90046432D03*
X189687831Y-90155136D03*
D13*
X180921870Y-96386254D03*
D12*
X179874025Y-92784738D03*
D15*
X184780928Y-91469937D03*
D14*
X188736021Y-86062013D03*
D13*
X189118506Y-92937288D03*
X183642277Y-97034241D03*
D11*
X184780928Y-91469937D03*
D24*
X180020055Y-98004812D03*
D25*
X177758463Y-97233886D03*
D24*
X192740728Y-91966717D03*
D25*
X189484308Y-96369563D03*
%TD*%
D13*
%TO.C,SW27*%
X201347822Y-89701863D03*
X206824051Y-85604910D03*
D14*
X206441566Y-78729635D03*
D15*
X202486473Y-84137559D03*
D12*
X197173881Y-85561064D03*
X197579570Y-85452360D03*
D11*
X202486473Y-84137559D03*
D12*
X207799065Y-82714054D03*
X207393376Y-82822758D03*
D13*
X198627415Y-89053876D03*
X204026446Y-89884818D03*
D24*
X197725600Y-90672434D03*
D25*
X195464008Y-89901508D03*
D24*
X210446273Y-84634339D03*
D25*
X207189853Y-89037185D03*
%TD*%
D12*
%TO.C,SW28*%
X214232375Y-75813871D03*
D15*
X219544967Y-74390366D03*
D12*
X224857559Y-72966861D03*
D13*
X215685909Y-79306683D03*
X221084940Y-80137625D03*
D12*
X224451870Y-73075565D03*
D11*
X219544967Y-74390366D03*
D14*
X223500060Y-68982442D03*
D13*
X223882545Y-75857717D03*
X218406316Y-79954670D03*
D12*
X214638064Y-75705167D03*
D25*
X212522502Y-80154315D03*
D24*
X214784094Y-80925241D03*
D25*
X224248347Y-79289992D03*
D24*
X227504767Y-74887146D03*
%TD*%
D12*
%TO.C,SW20*%
X250549320Y-64529861D03*
X260768815Y-61791555D03*
X261174504Y-61682851D03*
D14*
X259817005Y-57698432D03*
D13*
X252002854Y-68022673D03*
D11*
X255861912Y-63106356D03*
D13*
X257401885Y-68853615D03*
D12*
X250955009Y-64421157D03*
D13*
X260199490Y-64573707D03*
X254723261Y-68670660D03*
D15*
X255861912Y-63106356D03*
D25*
X248839447Y-68870305D03*
D24*
X251101039Y-69641231D03*
D25*
X260565292Y-68005982D03*
D24*
X263821712Y-63603136D03*
%TD*%
D12*
%TO.C,SW9*%
X224449626Y-38912057D03*
X234263432Y-36282455D03*
D13*
X228217878Y-43161560D03*
X230896502Y-43344515D03*
D15*
X229356529Y-37597256D03*
D12*
X234669121Y-36173751D03*
D14*
X233311622Y-32189332D03*
D13*
X233694107Y-39064607D03*
X225497471Y-42513573D03*
D12*
X224043937Y-39020761D03*
D11*
X229356529Y-37597256D03*
D24*
X224595656Y-44132131D03*
D25*
X222334064Y-43361205D03*
D24*
X237316329Y-38094036D03*
D25*
X234059909Y-42496882D03*
%TD*%
D15*
%TO.C,SW8*%
X209709840Y-37685191D03*
D13*
X211249813Y-43432450D03*
D12*
X215022432Y-36261686D03*
D13*
X214047418Y-39152542D03*
D11*
X209709840Y-37685191D03*
D12*
X214616743Y-36370390D03*
D13*
X208571189Y-43249495D03*
D12*
X204802937Y-38999992D03*
D13*
X205850782Y-42601508D03*
D14*
X213664933Y-32277267D03*
D12*
X204397248Y-39108696D03*
D25*
X202687375Y-43449140D03*
D24*
X204948967Y-44220066D03*
D25*
X214413220Y-42584817D03*
D24*
X217669640Y-38181971D03*
%TD*%
D13*
%TO.C,SW16*%
X178724719Y-78681655D03*
D12*
X184770273Y-71802550D03*
D13*
X184200948Y-74584702D03*
D15*
X179863370Y-73117351D03*
D12*
X185175962Y-71693846D03*
X174956467Y-74432152D03*
D14*
X183818463Y-67709427D03*
D13*
X176004312Y-78033668D03*
D11*
X179863370Y-73117351D03*
D13*
X181403343Y-78864610D03*
D12*
X174550778Y-74540856D03*
D24*
X175102497Y-79652226D03*
D25*
X172840905Y-78881300D03*
D24*
X187823170Y-73614131D03*
D25*
X184566750Y-78016977D03*
%TD*%
D14*
%TO.C,SW19*%
X238229180Y-50541927D03*
D13*
X235814060Y-61697110D03*
X230415029Y-60866168D03*
D15*
X234274087Y-55949851D03*
D12*
X229367184Y-57264652D03*
X228961495Y-57373356D03*
D13*
X233135436Y-61514155D03*
D12*
X239586679Y-54526346D03*
X239180990Y-54635050D03*
D13*
X238611665Y-57417202D03*
D11*
X234274087Y-55949851D03*
D25*
X227251622Y-61713800D03*
D24*
X229513214Y-62484726D03*
X242233887Y-56446631D03*
D25*
X238977467Y-60849477D03*
%TD*%
D12*
%TO.C,SW17*%
X202475808Y-64470173D03*
X192256313Y-67208479D03*
D11*
X197568905Y-65784974D03*
D15*
X197568905Y-65784974D03*
D13*
X201906483Y-67252325D03*
D12*
X202881497Y-64361469D03*
D13*
X199108878Y-71532233D03*
X196430254Y-71349278D03*
D14*
X201523998Y-60377050D03*
D13*
X193709847Y-70701291D03*
D12*
X192662002Y-67099775D03*
D25*
X190546440Y-71548923D03*
D24*
X192808032Y-72319849D03*
X205528705Y-66281754D03*
D25*
X202272285Y-70684600D03*
%TD*%
D11*
%TO.C,SW18*%
X214627404Y-56037780D03*
D12*
X209720501Y-57352581D03*
D13*
X213488753Y-61602084D03*
D14*
X218582497Y-50629856D03*
D12*
X209314812Y-57461285D03*
D13*
X218964982Y-57505131D03*
X210768346Y-60954097D03*
X216167377Y-61785039D03*
D15*
X214627404Y-56037780D03*
D12*
X219939996Y-54614275D03*
X219534307Y-54722979D03*
D24*
X209866531Y-62572655D03*
D25*
X207604939Y-61801729D03*
X219330784Y-60937406D03*
D24*
X222587204Y-56534560D03*
%TD*%
D28*
%TO.C,*%
X78847312Y-45002739D03*
%TD*%
%TO.C,*%
X187405575Y-64917826D03*
%TD*%
%TO.C,*%
X110145571Y-65527825D03*
%TD*%
D29*
%TO.C,J1*%
X149147312Y-77432741D03*
D30*
X149147312Y-79972741D03*
%TD*%
D28*
%TO.C,*%
X195925568Y-102977826D03*
%TD*%
%TO.C,*%
X33047310Y-70502739D03*
%TD*%
%TO.C,*%
X264547314Y-70502740D03*
%TD*%
%TO.C,*%
X219047310Y-45002742D03*
%TD*%
%TO.C,*%
X101885570Y-102927824D03*
%TD*%
D31*
%TO.C,M1*%
X141299814Y-71239742D03*
X141299814Y-73779742D03*
X141299814Y-76319742D03*
X141299814Y-78859742D03*
X141299814Y-81399742D03*
X141299814Y-83939742D03*
X141299814Y-86479742D03*
X156534814Y-86479742D03*
X156534814Y-83939742D03*
X156534814Y-81399742D03*
X156534814Y-78859742D03*
X156534814Y-76319742D03*
X156534814Y-73779742D03*
X156534814Y-71239742D03*
%TD*%
D32*
%TO.C,D3*%
X80699131Y-33470916D03*
X79845029Y-36658472D03*
%TD*%
%TO.C,D2*%
X61052451Y-33382980D03*
X60198349Y-36570536D03*
%TD*%
%TO.C,D12*%
X56134884Y-51735567D03*
X55280782Y-54923123D03*
%TD*%
%TO.C,D14*%
X92840064Y-61570695D03*
X91985962Y-64758251D03*
%TD*%
%TO.C,D13*%
X75781573Y-51823505D03*
X74927471Y-55011061D03*
%TD*%
%TO.C,D15*%
X110545609Y-68903075D03*
X109691507Y-72090631D03*
%TD*%
%TO.C,D22*%
X51792032Y-68171089D03*
X50937930Y-71358645D03*
%TD*%
%TO.C,D25*%
X105628055Y-87255663D03*
X104773953Y-90443219D03*
%TD*%
%TO.C,D24*%
X87922506Y-79923286D03*
X87068404Y-83110842D03*
%TD*%
%TO.C,D23*%
X70864012Y-70176101D03*
X70009910Y-73363657D03*
%TD*%
%TO.C,D21*%
X29629496Y-77244672D03*
X28775394Y-80432228D03*
%TD*%
%TO.C,D11*%
X34547062Y-58892082D03*
X33692960Y-62079638D03*
%TD*%
%TO.C,D33*%
X81710851Y-103105509D03*
X80856749Y-106293065D03*
%TD*%
D33*
%TO.C,D34*%
X102288413Y-109064762D03*
X100893773Y-112055578D03*
%TD*%
D34*
%TO.C,D35*%
X121518537Y-118506738D03*
X119625735Y-121209940D03*
%TD*%
D35*
%TO.C,D9*%
X220831180Y-37655775D03*
X221685282Y-40843331D03*
%TD*%
%TO.C,D8*%
X201184498Y-37743709D03*
X202038600Y-40931265D03*
%TD*%
%TO.C,D19*%
X225737537Y-55966541D03*
X226591639Y-59154097D03*
%TD*%
D36*
%TO.C,D17*%
X194222603Y-75540163D03*
X197410159Y-74686061D03*
%TD*%
D35*
%TO.C,D26*%
X176255580Y-91528453D03*
X177109682Y-94716009D03*
%TD*%
%TO.C,D16*%
X171338020Y-73175860D03*
X172192122Y-76363416D03*
%TD*%
%TO.C,D18*%
X205784752Y-55946054D03*
X206638854Y-59133610D03*
%TD*%
%TO.C,D28*%
X211019621Y-74448885D03*
X211873723Y-77636441D03*
%TD*%
%TO.C,D27*%
X193961124Y-84196077D03*
X194815226Y-87383633D03*
%TD*%
%TO.C,D20*%
X247336569Y-63164876D03*
X248190671Y-66352432D03*
%TD*%
D37*
%TO.C,D36*%
X162786860Y-127973035D03*
X164679662Y-130676237D03*
%TD*%
D35*
%TO.C,D38*%
X200172781Y-107378301D03*
X201026883Y-110565857D03*
%TD*%
%TO.C,D29*%
X230666307Y-74360953D03*
X231520409Y-77548509D03*
%TD*%
%TO.C,D30*%
X252254132Y-81517461D03*
X253108234Y-84705017D03*
%TD*%
D38*
%TO.C,D37*%
X180578912Y-116040242D03*
X181973552Y-119031058D03*
%TD*%
M02*
