%TF.GenerationSoftware,KiCad,Pcbnew,(6.0.5)*%
%TF.CreationDate,2022-06-12T18:27:07-07:00*%
%TF.ProjectId,greenthumb,67726565-6e74-4687-956d-622e6b696361,rev?*%
%TF.SameCoordinates,Original*%
%TF.FileFunction,Legend,Bot*%
%TF.FilePolarity,Positive*%
%FSLAX46Y46*%
G04 Gerber Fmt 4.6, Leading zero omitted, Abs format (unit mm)*
G04 Created by KiCad (PCBNEW (6.0.5)) date 2022-06-12 18:27:07*
%MOMM*%
%LPD*%
G01*
G04 APERTURE LIST*
%ADD10C,0.150000*%
%ADD11C,0.125000*%
%ADD12C,0.120000*%
G04 APERTURE END LIST*
D10*
%TO.C,SW22*%
X54850097Y-81414572D02*
X55000411Y-81405550D01*
X55230393Y-81467174D01*
X55310061Y-81537819D01*
X55343733Y-81596141D01*
X55365080Y-81700458D01*
X55340431Y-81792451D01*
X55269785Y-81872119D01*
X55211464Y-81905791D01*
X55107146Y-81927138D01*
X54910836Y-81923836D01*
X54806518Y-81945183D01*
X54748197Y-81978855D01*
X54677551Y-82058523D01*
X54652901Y-82150516D01*
X54674248Y-82254833D01*
X54707920Y-82313155D01*
X54787588Y-82383801D01*
X55017571Y-82445424D01*
X55167885Y-82436402D01*
X55477535Y-82568671D02*
X55966337Y-81664369D01*
X55965452Y-82403615D01*
X56334308Y-81762967D01*
X56305472Y-82790516D01*
X56652097Y-82784796D02*
X56685768Y-82843117D01*
X56765436Y-82913763D01*
X56995419Y-82975387D01*
X57099736Y-82954040D01*
X57158058Y-82920368D01*
X57228704Y-82840700D01*
X57253353Y-82748707D01*
X57244331Y-82598393D01*
X56840270Y-81898539D01*
X57438224Y-82058760D01*
X57572026Y-83031291D02*
X57605698Y-83089612D01*
X57685366Y-83160258D01*
X57915348Y-83221881D01*
X58019666Y-83200534D01*
X58077987Y-83166862D01*
X58148633Y-83087194D01*
X58173282Y-82995201D01*
X58164260Y-82844887D01*
X57760199Y-82145033D01*
X58358153Y-82305254D01*
%TO.C,SW33*%
X85343621Y-114431908D02*
X85493935Y-114422886D01*
X85723917Y-114484510D01*
X85803585Y-114555155D01*
X85837257Y-114613477D01*
X85858604Y-114717794D01*
X85833955Y-114809787D01*
X85763309Y-114889455D01*
X85704988Y-114923127D01*
X85600670Y-114944474D01*
X85404360Y-114941172D01*
X85300042Y-114962519D01*
X85241721Y-114996191D01*
X85171075Y-115075859D01*
X85146425Y-115167852D01*
X85167772Y-115272169D01*
X85201444Y-115330491D01*
X85281112Y-115401137D01*
X85511095Y-115462760D01*
X85661409Y-115453738D01*
X85971059Y-115586007D02*
X86459861Y-114681705D01*
X86458976Y-115420951D01*
X86827832Y-114780303D01*
X86798996Y-115807852D01*
X87074975Y-115881800D02*
X87672929Y-116042022D01*
X87449551Y-115587777D01*
X87587541Y-115624751D01*
X87691858Y-115603404D01*
X87750179Y-115569732D01*
X87820825Y-115490064D01*
X87882449Y-115260082D01*
X87861102Y-115155764D01*
X87827430Y-115097443D01*
X87747762Y-115026797D01*
X87471783Y-114952849D01*
X87367465Y-114974196D01*
X87309144Y-115007868D01*
X87994904Y-116128295D02*
X88592858Y-116288516D01*
X88369480Y-115834271D01*
X88507470Y-115871245D01*
X88611788Y-115849898D01*
X88670109Y-115816227D01*
X88740755Y-115736558D01*
X88802378Y-115506576D01*
X88781031Y-115402258D01*
X88747359Y-115343937D01*
X88667691Y-115273291D01*
X88391712Y-115199343D01*
X88287395Y-115220690D01*
X88229074Y-115254362D01*
%TO.C,SW23*%
X74496774Y-81502500D02*
X74647088Y-81493478D01*
X74877070Y-81555102D01*
X74956738Y-81625747D01*
X74990410Y-81684069D01*
X75011757Y-81788386D01*
X74987108Y-81880379D01*
X74916462Y-81960047D01*
X74858141Y-81993719D01*
X74753823Y-82015066D01*
X74557513Y-82011764D01*
X74453195Y-82033111D01*
X74394874Y-82066783D01*
X74324228Y-82146451D01*
X74299578Y-82238444D01*
X74320925Y-82342761D01*
X74354597Y-82401083D01*
X74434265Y-82471729D01*
X74664248Y-82533352D01*
X74814562Y-82524330D01*
X75124212Y-82656599D02*
X75613014Y-81752297D01*
X75612129Y-82491543D01*
X75980985Y-81850895D01*
X75952149Y-82878444D01*
X76298774Y-82872724D02*
X76332445Y-82931045D01*
X76412113Y-83001691D01*
X76642096Y-83063315D01*
X76746413Y-83041968D01*
X76804735Y-83008296D01*
X76875381Y-82928628D01*
X76900030Y-82836635D01*
X76891008Y-82686321D01*
X76486947Y-81986467D01*
X77084901Y-82146688D01*
X77148057Y-83198887D02*
X77746011Y-83359108D01*
X77522633Y-82904863D01*
X77660623Y-82941837D01*
X77764941Y-82920490D01*
X77823262Y-82886819D01*
X77893908Y-82807150D01*
X77955531Y-82577168D01*
X77934184Y-82472850D01*
X77900512Y-82414529D01*
X77820844Y-82343883D01*
X77544865Y-82269935D01*
X77440548Y-82291282D01*
X77382227Y-82324954D01*
%TO.C,SW35*%
X121058367Y-130392567D02*
X121202702Y-130435499D01*
X121397738Y-130572065D01*
X121448440Y-130665698D01*
X121460134Y-130732019D01*
X121444515Y-130837346D01*
X121389888Y-130915361D01*
X121296255Y-130966062D01*
X121229934Y-130977756D01*
X121124607Y-130962137D01*
X120941265Y-130891892D01*
X120835937Y-130876273D01*
X120769617Y-130887967D01*
X120675983Y-130938668D01*
X120621357Y-131016683D01*
X120605738Y-131122010D01*
X120617432Y-131188331D01*
X120668133Y-131281964D01*
X120863169Y-131418530D01*
X121007504Y-131461462D01*
X121253242Y-131691662D02*
X122021854Y-131009075D01*
X121768186Y-131703437D01*
X122333912Y-131227581D01*
X121955372Y-132183299D01*
X122189415Y-132347178D02*
X122696509Y-132702249D01*
X122641964Y-132198999D01*
X122758986Y-132280938D01*
X122864313Y-132296557D01*
X122930634Y-132284863D01*
X123024267Y-132234162D01*
X123160833Y-132039126D01*
X123176452Y-131933798D01*
X123164758Y-131867478D01*
X123114057Y-131773844D01*
X122880013Y-131609965D01*
X122774686Y-131594346D01*
X122708365Y-131606040D01*
X123437647Y-133221199D02*
X123047575Y-132948067D01*
X123281699Y-132530682D01*
X123293393Y-132597002D01*
X123344094Y-132690636D01*
X123539131Y-132827201D01*
X123644458Y-132842820D01*
X123710779Y-132831126D01*
X123804412Y-132780425D01*
X123940978Y-132585389D01*
X123956597Y-132480061D01*
X123944903Y-132413741D01*
X123894202Y-132320107D01*
X123699166Y-132183541D01*
X123593838Y-132167922D01*
X123527517Y-132179616D01*
%TO.C,SW25*%
X109260823Y-98582068D02*
X109411137Y-98573046D01*
X109641119Y-98634670D01*
X109720787Y-98705315D01*
X109754459Y-98763637D01*
X109775806Y-98867954D01*
X109751157Y-98959947D01*
X109680511Y-99039615D01*
X109622190Y-99073287D01*
X109517872Y-99094634D01*
X109321562Y-99091332D01*
X109217244Y-99112679D01*
X109158923Y-99146351D01*
X109088277Y-99226019D01*
X109063627Y-99318012D01*
X109084974Y-99422329D01*
X109118646Y-99480651D01*
X109198314Y-99551297D01*
X109428297Y-99612920D01*
X109578611Y-99603898D01*
X109888261Y-99736167D02*
X110377063Y-98831865D01*
X110376178Y-99571111D01*
X110745034Y-98930463D01*
X110716198Y-99958012D01*
X111062823Y-99952292D02*
X111096494Y-100010613D01*
X111176162Y-100081259D01*
X111406145Y-100142883D01*
X111510462Y-100121536D01*
X111568784Y-100087864D01*
X111639430Y-100008196D01*
X111664079Y-99916203D01*
X111655057Y-99765889D01*
X111250996Y-99066035D01*
X111848950Y-99226256D01*
X112464064Y-100426351D02*
X112004099Y-100303104D01*
X112081350Y-99830815D01*
X112115021Y-99889136D01*
X112194690Y-99959782D01*
X112424672Y-100021405D01*
X112528990Y-100000058D01*
X112587311Y-99966387D01*
X112657957Y-99886718D01*
X112719580Y-99656736D01*
X112698233Y-99552418D01*
X112664561Y-99494097D01*
X112584893Y-99423451D01*
X112354911Y-99361828D01*
X112250593Y-99383175D01*
X112192272Y-99416847D01*
%TO.C,SW21*%
X33262269Y-88571079D02*
X33412583Y-88562057D01*
X33642565Y-88623681D01*
X33722233Y-88694326D01*
X33755905Y-88752648D01*
X33777252Y-88856965D01*
X33752603Y-88948958D01*
X33681957Y-89028626D01*
X33623636Y-89062298D01*
X33519318Y-89083645D01*
X33323008Y-89080343D01*
X33218690Y-89101690D01*
X33160369Y-89135362D01*
X33089723Y-89215030D01*
X33065073Y-89307023D01*
X33086420Y-89411340D01*
X33120092Y-89469662D01*
X33199760Y-89540308D01*
X33429743Y-89601931D01*
X33580057Y-89592909D01*
X33889707Y-89725178D02*
X34378509Y-88820876D01*
X34377624Y-89560122D01*
X34746480Y-88919474D01*
X34717644Y-89947023D01*
X35064269Y-89941303D02*
X35097940Y-89999624D01*
X35177608Y-90070270D01*
X35407591Y-90131894D01*
X35511908Y-90110547D01*
X35570230Y-90076875D01*
X35640876Y-89997207D01*
X35665525Y-89905214D01*
X35656503Y-89754900D01*
X35252442Y-89055046D01*
X35850396Y-89215267D01*
X36770325Y-89461761D02*
X36218367Y-89313865D01*
X36494346Y-89387813D02*
X36235527Y-90353739D01*
X36180508Y-90191100D01*
X36113165Y-90074458D01*
X36033497Y-90003812D01*
%TO.C,SW14*%
X96472840Y-72897102D02*
X96623154Y-72888080D01*
X96853136Y-72949704D01*
X96932804Y-73020349D01*
X96966476Y-73078671D01*
X96987823Y-73182988D01*
X96963174Y-73274981D01*
X96892528Y-73354649D01*
X96834207Y-73388321D01*
X96729889Y-73409668D01*
X96533579Y-73406366D01*
X96429261Y-73427713D01*
X96370940Y-73461385D01*
X96300294Y-73541053D01*
X96275644Y-73633046D01*
X96296991Y-73737363D01*
X96330663Y-73795685D01*
X96410331Y-73866331D01*
X96640314Y-73927954D01*
X96790628Y-73918932D01*
X97100278Y-74051201D02*
X97589080Y-73146899D01*
X97588195Y-73886145D01*
X97957051Y-73245497D01*
X97928215Y-74273046D01*
X99060967Y-73541290D02*
X98509009Y-73393393D01*
X98784988Y-73467342D02*
X98526169Y-74433267D01*
X98471150Y-74270629D01*
X98403807Y-74153986D01*
X98324138Y-74083340D01*
X99716357Y-74407085D02*
X99888903Y-73763135D01*
X99387777Y-74713434D02*
X99342665Y-73961863D01*
X99940620Y-74122084D01*
%TO.C,SW34*%
X103899180Y-120849922D02*
X104048777Y-120867138D01*
X104264565Y-120967762D01*
X104330755Y-121051169D01*
X104353788Y-121114451D01*
X104356696Y-121220891D01*
X104316447Y-121307206D01*
X104233040Y-121373396D01*
X104169757Y-121396429D01*
X104063318Y-121399337D01*
X103870563Y-121361996D01*
X103764123Y-121364904D01*
X103700841Y-121387937D01*
X103617434Y-121454127D01*
X103577185Y-121540442D01*
X103580093Y-121646882D01*
X103603126Y-121710164D01*
X103669316Y-121793571D01*
X103885104Y-121894194D01*
X104034701Y-121911411D01*
X104316679Y-122095441D02*
X104955085Y-121289757D01*
X104825845Y-122017618D01*
X105300345Y-121450754D01*
X105093514Y-122457685D01*
X105352459Y-122578433D02*
X105913507Y-122840054D01*
X105772402Y-122353921D01*
X105901874Y-122414295D01*
X106008314Y-122411387D01*
X106071596Y-122388354D01*
X106155003Y-122322164D01*
X106255626Y-122106376D01*
X106252718Y-121999937D01*
X106229685Y-121936654D01*
X106163495Y-121853248D01*
X105904550Y-121732500D01*
X105798110Y-121735408D01*
X105734828Y-121758441D01*
X106831215Y-122900196D02*
X107112960Y-122295991D01*
X106454430Y-123144832D02*
X106540513Y-122396846D01*
X107101560Y-122658467D01*
%TO.C,SW24*%
X91555276Y-91249688D02*
X91705590Y-91240666D01*
X91935572Y-91302290D01*
X92015240Y-91372935D01*
X92048912Y-91431257D01*
X92070259Y-91535574D01*
X92045610Y-91627567D01*
X91974964Y-91707235D01*
X91916643Y-91740907D01*
X91812325Y-91762254D01*
X91616015Y-91758952D01*
X91511697Y-91780299D01*
X91453376Y-91813971D01*
X91382730Y-91893639D01*
X91358080Y-91985632D01*
X91379427Y-92089949D01*
X91413099Y-92148271D01*
X91492767Y-92218917D01*
X91722750Y-92280540D01*
X91873064Y-92271518D01*
X92182714Y-92403787D02*
X92671516Y-91499485D01*
X92670631Y-92238731D01*
X93039487Y-91598083D01*
X93010651Y-92625632D01*
X93357276Y-92619912D02*
X93390947Y-92678233D01*
X93470615Y-92748879D01*
X93700598Y-92810503D01*
X93804915Y-92789156D01*
X93863237Y-92755484D01*
X93933883Y-92675816D01*
X93958532Y-92583823D01*
X93949510Y-92433509D01*
X93545449Y-91733655D01*
X94143403Y-91893876D01*
X94798793Y-92759671D02*
X94971339Y-92115721D01*
X94470213Y-93066020D02*
X94425101Y-92314449D01*
X95023056Y-92474670D01*
%TO.C,SW12*%
X59767657Y-63061977D02*
X59917971Y-63052955D01*
X60147953Y-63114579D01*
X60227621Y-63185224D01*
X60261293Y-63243546D01*
X60282640Y-63347863D01*
X60257991Y-63439856D01*
X60187345Y-63519524D01*
X60129024Y-63553196D01*
X60024706Y-63574543D01*
X59828396Y-63571241D01*
X59724078Y-63592588D01*
X59665757Y-63626260D01*
X59595111Y-63705928D01*
X59570461Y-63797921D01*
X59591808Y-63902238D01*
X59625480Y-63960560D01*
X59705148Y-64031206D01*
X59935131Y-64092829D01*
X60085445Y-64083807D01*
X60395095Y-64216076D02*
X60883897Y-63311774D01*
X60883012Y-64051020D01*
X61251868Y-63410372D01*
X61223032Y-64437921D01*
X62355784Y-63706165D02*
X61803826Y-63558268D01*
X62079805Y-63632217D02*
X61820986Y-64598142D01*
X61765967Y-64435504D01*
X61698624Y-64318861D01*
X61618955Y-64248215D01*
X62489586Y-64678696D02*
X62523258Y-64737017D01*
X62602926Y-64807663D01*
X62832908Y-64869286D01*
X62937226Y-64847939D01*
X62995547Y-64814267D01*
X63066193Y-64734599D01*
X63090842Y-64642606D01*
X63081820Y-64492292D01*
X62677759Y-63792438D01*
X63275713Y-63952659D01*
%TO.C,SW3*%
X84791868Y-44920562D02*
X84942183Y-44911540D01*
X85172165Y-44973164D01*
X85251833Y-45043810D01*
X85285505Y-45102131D01*
X85306852Y-45206448D01*
X85282203Y-45298441D01*
X85211557Y-45378110D01*
X85153235Y-45411781D01*
X85048918Y-45433128D01*
X84852607Y-45429826D01*
X84748290Y-45451173D01*
X84689968Y-45484845D01*
X84619322Y-45564513D01*
X84594673Y-45656506D01*
X84616020Y-45760824D01*
X84649692Y-45819145D01*
X84729360Y-45889791D01*
X84959342Y-45951414D01*
X85109656Y-45942392D01*
X85419307Y-46074661D02*
X85908108Y-45170359D01*
X85907224Y-45909605D01*
X86276080Y-45268957D01*
X86247243Y-46296506D01*
X86523222Y-46370455D02*
X87121176Y-46530676D01*
X86897799Y-46076431D01*
X87035788Y-46113405D01*
X87140106Y-46092058D01*
X87198427Y-46058387D01*
X87269073Y-45978718D01*
X87330697Y-45748736D01*
X87309350Y-45644418D01*
X87275678Y-45586097D01*
X87196010Y-45515451D01*
X86920031Y-45441503D01*
X86815713Y-45462850D01*
X86757392Y-45496522D01*
%TO.C,SW15*%
X114178383Y-80229478D02*
X114328697Y-80220456D01*
X114558679Y-80282080D01*
X114638347Y-80352725D01*
X114672019Y-80411047D01*
X114693366Y-80515364D01*
X114668717Y-80607357D01*
X114598071Y-80687025D01*
X114539750Y-80720697D01*
X114435432Y-80742044D01*
X114239122Y-80738742D01*
X114134804Y-80760089D01*
X114076483Y-80793761D01*
X114005837Y-80873429D01*
X113981187Y-80965422D01*
X114002534Y-81069739D01*
X114036206Y-81128061D01*
X114115874Y-81198707D01*
X114345857Y-81260330D01*
X114496171Y-81251308D01*
X114805821Y-81383577D02*
X115294623Y-80479275D01*
X115293738Y-81218521D01*
X115662594Y-80577873D01*
X115633758Y-81605422D01*
X116766510Y-80873666D02*
X116214552Y-80725769D01*
X116490531Y-80799718D02*
X116231712Y-81765643D01*
X116176693Y-81603005D01*
X116109350Y-81486362D01*
X116029681Y-81415716D01*
X117381624Y-82073761D02*
X116921659Y-81950514D01*
X116998910Y-81478225D01*
X117032581Y-81536546D01*
X117112250Y-81607192D01*
X117342232Y-81668815D01*
X117446550Y-81647468D01*
X117504871Y-81613797D01*
X117575517Y-81534128D01*
X117637140Y-81304146D01*
X117615793Y-81199828D01*
X117582121Y-81141507D01*
X117502453Y-81070861D01*
X117272471Y-81009238D01*
X117168153Y-81030585D01*
X117109832Y-81064257D01*
%TO.C,SW13*%
X79414339Y-63149904D02*
X79564653Y-63140882D01*
X79794635Y-63202506D01*
X79874303Y-63273151D01*
X79907975Y-63331473D01*
X79929322Y-63435790D01*
X79904673Y-63527783D01*
X79834027Y-63607451D01*
X79775706Y-63641123D01*
X79671388Y-63662470D01*
X79475078Y-63659168D01*
X79370760Y-63680515D01*
X79312439Y-63714187D01*
X79241793Y-63793855D01*
X79217143Y-63885848D01*
X79238490Y-63990165D01*
X79272162Y-64048487D01*
X79351830Y-64119133D01*
X79581813Y-64180756D01*
X79732127Y-64171734D01*
X80041777Y-64304003D02*
X80530579Y-63399701D01*
X80529694Y-64138947D01*
X80898550Y-63498299D01*
X80869714Y-64525848D01*
X82002466Y-63794092D02*
X81450508Y-63646195D01*
X81726487Y-63720144D02*
X81467668Y-64686069D01*
X81412649Y-64523431D01*
X81345306Y-64406788D01*
X81265637Y-64336142D01*
X82065622Y-64846291D02*
X82663576Y-65006512D01*
X82440198Y-64552267D01*
X82578188Y-64589241D01*
X82682506Y-64567894D01*
X82740827Y-64534223D01*
X82811473Y-64454554D01*
X82873096Y-64224572D01*
X82851749Y-64120254D01*
X82818077Y-64061933D01*
X82738409Y-63991287D01*
X82462430Y-63917339D01*
X82358113Y-63938686D01*
X82299792Y-63972358D01*
%TO.C,SW2*%
X65145183Y-44832642D02*
X65295498Y-44823620D01*
X65525480Y-44885244D01*
X65605148Y-44955890D01*
X65638820Y-45014211D01*
X65660167Y-45118528D01*
X65635518Y-45210521D01*
X65564872Y-45290190D01*
X65506550Y-45323861D01*
X65402233Y-45345208D01*
X65205922Y-45341906D01*
X65101605Y-45363253D01*
X65043283Y-45396925D01*
X64972637Y-45476593D01*
X64947988Y-45568586D01*
X64969335Y-45672904D01*
X65003007Y-45731225D01*
X65082675Y-45801871D01*
X65312657Y-45863494D01*
X65462971Y-45854472D01*
X65772622Y-45986741D02*
X66261423Y-45082439D01*
X66260539Y-45821685D01*
X66629395Y-45181037D01*
X66600558Y-46208586D01*
X66947183Y-46202866D02*
X66980855Y-46261188D01*
X67060523Y-46331833D01*
X67290505Y-46393457D01*
X67394823Y-46372110D01*
X67453144Y-46338438D01*
X67523790Y-46258770D01*
X67548440Y-46166777D01*
X67539417Y-46016463D01*
X67135356Y-45316609D01*
X67733310Y-45476830D01*
%TO.C,SW11*%
X38179832Y-70218486D02*
X38330146Y-70209464D01*
X38560128Y-70271088D01*
X38639796Y-70341733D01*
X38673468Y-70400055D01*
X38694815Y-70504372D01*
X38670166Y-70596365D01*
X38599520Y-70676033D01*
X38541199Y-70709705D01*
X38436881Y-70731052D01*
X38240571Y-70727750D01*
X38136253Y-70749097D01*
X38077932Y-70782769D01*
X38007286Y-70862437D01*
X37982636Y-70954430D01*
X38003983Y-71058747D01*
X38037655Y-71117069D01*
X38117323Y-71187715D01*
X38347306Y-71249338D01*
X38497620Y-71240316D01*
X38807270Y-71372585D02*
X39296072Y-70468283D01*
X39295187Y-71207529D01*
X39664043Y-70566881D01*
X39635207Y-71594430D01*
X40767959Y-70862674D02*
X40216001Y-70714777D01*
X40491980Y-70788726D02*
X40233161Y-71754651D01*
X40178142Y-71592013D01*
X40110799Y-71475370D01*
X40031130Y-71404724D01*
X41687888Y-71109168D02*
X41135930Y-70961272D01*
X41411909Y-71035220D02*
X41153090Y-72001146D01*
X41098071Y-71838507D01*
X41030728Y-71721865D01*
X40951060Y-71651219D01*
%TO.C,SW36*%
X177227362Y-131057959D02*
X177137653Y-131178906D01*
X176942617Y-131315471D01*
X176837289Y-131331090D01*
X176770969Y-131319396D01*
X176677335Y-131268695D01*
X176622709Y-131190681D01*
X176607090Y-131085353D01*
X176618784Y-131019033D01*
X176669485Y-130925399D01*
X176798201Y-130777139D01*
X176848902Y-130683506D01*
X176860596Y-130617185D01*
X176844977Y-130511857D01*
X176790351Y-130433843D01*
X176696717Y-130383142D01*
X176630397Y-130371448D01*
X176525069Y-130387067D01*
X176330033Y-130523632D01*
X176240325Y-130644579D01*
X175939961Y-130796764D02*
X176318501Y-131752482D01*
X175752775Y-131276626D01*
X176006443Y-131970987D01*
X175237830Y-131288401D01*
X175003787Y-131452280D02*
X174496693Y-131807351D01*
X174988249Y-131928217D01*
X174871227Y-132010156D01*
X174820526Y-132103790D01*
X174808832Y-132170110D01*
X174824451Y-132275438D01*
X174961017Y-132470474D01*
X175054650Y-132521176D01*
X175120971Y-132532870D01*
X175226298Y-132517251D01*
X175460342Y-132353372D01*
X175511043Y-132259738D01*
X175522737Y-132193418D01*
X173794562Y-132298988D02*
X173950591Y-132189735D01*
X174055919Y-132174116D01*
X174122239Y-132185810D01*
X174282193Y-132248206D01*
X174430453Y-132376922D01*
X174648959Y-132688980D01*
X174664578Y-132794307D01*
X174652884Y-132860628D01*
X174602182Y-132954261D01*
X174446153Y-133063514D01*
X174340826Y-133079133D01*
X174274505Y-133067439D01*
X174180872Y-133016738D01*
X174044306Y-132821701D01*
X174028687Y-132716374D01*
X174040381Y-132650053D01*
X174091082Y-132556420D01*
X174247111Y-132447167D01*
X174352439Y-132431548D01*
X174418759Y-132443242D01*
X174512393Y-132493943D01*
%TO.C,SW29*%
X243180828Y-82198786D02*
X243055164Y-82281757D01*
X242825181Y-82343380D01*
X242720864Y-82322033D01*
X242662543Y-82288362D01*
X242591897Y-82208693D01*
X242567247Y-82116701D01*
X242588594Y-82012383D01*
X242622266Y-81954062D01*
X242701934Y-81883416D01*
X242873595Y-81788120D01*
X242953264Y-81717475D01*
X242986935Y-81659153D01*
X243008282Y-81554836D01*
X242983633Y-81462843D01*
X242912987Y-81383175D01*
X242854666Y-81349503D01*
X242750348Y-81328156D01*
X242520366Y-81389779D01*
X242394701Y-81472750D01*
X242060401Y-81513027D02*
X242089238Y-82540576D01*
X241720381Y-81899928D01*
X241721266Y-82639174D01*
X241232465Y-81734871D01*
X240935139Y-81913137D02*
X240876818Y-81879466D01*
X240772500Y-81858119D01*
X240542518Y-81919742D01*
X240462849Y-81990388D01*
X240429178Y-82048709D01*
X240407831Y-82153027D01*
X240432480Y-82245020D01*
X240515451Y-82370685D01*
X241215305Y-82774746D01*
X240617351Y-82934967D01*
X240157386Y-83058214D02*
X239973400Y-83107513D01*
X239869083Y-83086166D01*
X239810761Y-83052494D01*
X239681794Y-82939154D01*
X239586499Y-82767493D01*
X239487901Y-82399521D01*
X239509248Y-82295204D01*
X239542920Y-82236882D01*
X239622588Y-82166236D01*
X239806574Y-82116938D01*
X239910892Y-82138285D01*
X239969213Y-82171956D01*
X240039859Y-82251625D01*
X240101483Y-82481607D01*
X240080136Y-82585925D01*
X240046464Y-82644246D01*
X239966796Y-82714892D01*
X239782810Y-82764191D01*
X239678492Y-82742844D01*
X239620171Y-82709172D01*
X239549525Y-82629504D01*
%TO.C,SW37*%
X194264346Y-121585870D02*
X194154998Y-121689401D01*
X193939210Y-121790025D01*
X193832771Y-121787116D01*
X193769488Y-121764084D01*
X193686082Y-121697893D01*
X193645832Y-121611578D01*
X193648740Y-121505138D01*
X193671773Y-121441856D01*
X193737964Y-121358449D01*
X193890469Y-121234793D01*
X193956659Y-121151386D01*
X193979692Y-121088104D01*
X193982600Y-120981664D01*
X193942351Y-120895349D01*
X193858944Y-120829159D01*
X193795662Y-120806126D01*
X193689222Y-120803218D01*
X193473435Y-120903841D01*
X193364087Y-121007373D01*
X193041859Y-121105088D02*
X193248690Y-122112019D01*
X192774190Y-121545155D01*
X192903430Y-122273017D01*
X192265024Y-121467332D01*
X192006079Y-121588080D02*
X191445031Y-121849701D01*
X191908131Y-122054089D01*
X191778659Y-122114463D01*
X191712469Y-122197870D01*
X191689436Y-122261152D01*
X191686528Y-122367591D01*
X191787151Y-122583379D01*
X191870558Y-122649569D01*
X191933840Y-122672602D01*
X192040280Y-122675510D01*
X192299225Y-122554762D01*
X192365415Y-122471355D01*
X192388448Y-122408073D01*
X191142929Y-121990574D02*
X190538724Y-122272320D01*
X191349760Y-122997505D01*
%TO.C,SW38*%
X212687302Y-115216126D02*
X212561638Y-115299097D01*
X212331655Y-115360720D01*
X212227338Y-115339373D01*
X212169017Y-115305702D01*
X212098371Y-115226033D01*
X212073721Y-115134041D01*
X212095068Y-115029723D01*
X212128740Y-114971402D01*
X212208408Y-114900756D01*
X212380069Y-114805460D01*
X212459738Y-114734815D01*
X212493409Y-114676493D01*
X212514756Y-114572176D01*
X212490107Y-114480183D01*
X212419461Y-114400515D01*
X212361140Y-114366843D01*
X212256822Y-114345496D01*
X212026840Y-114407119D01*
X211901175Y-114490090D01*
X211566875Y-114530367D02*
X211595712Y-115557916D01*
X211226855Y-114917268D01*
X211227740Y-115656514D01*
X210738939Y-114752211D01*
X210462960Y-114826160D02*
X209865006Y-114986381D01*
X210285579Y-115268080D01*
X210147589Y-115305054D01*
X210067921Y-115375700D01*
X210034249Y-115434021D01*
X210012902Y-115538339D01*
X210074526Y-115768321D01*
X210145172Y-115847989D01*
X210203493Y-115881661D01*
X210307811Y-115903008D01*
X210583790Y-115829060D01*
X210663458Y-115758414D01*
X210697130Y-115700093D01*
X209423971Y-115548246D02*
X209503639Y-115477600D01*
X209537311Y-115419279D01*
X209558658Y-115314961D01*
X209546333Y-115268965D01*
X209475687Y-115189296D01*
X209417366Y-115155625D01*
X209313048Y-115134278D01*
X209129062Y-115183576D01*
X209049394Y-115254222D01*
X209015722Y-115312544D01*
X208994375Y-115416861D01*
X209006700Y-115462858D01*
X209077346Y-115542526D01*
X209135667Y-115576198D01*
X209239985Y-115597545D01*
X209423971Y-115548246D01*
X209528288Y-115569593D01*
X209586610Y-115603265D01*
X209657255Y-115682933D01*
X209706554Y-115866919D01*
X209685207Y-115971236D01*
X209651535Y-116029558D01*
X209571867Y-116100203D01*
X209387881Y-116149502D01*
X209283564Y-116128155D01*
X209225243Y-116094484D01*
X209154597Y-116014815D01*
X209105298Y-115830829D01*
X209126645Y-115726512D01*
X209160317Y-115668191D01*
X209239985Y-115597545D01*
%TO.C,SW30*%
X264768659Y-89355298D02*
X264642995Y-89438269D01*
X264413012Y-89499892D01*
X264308695Y-89478545D01*
X264250374Y-89444874D01*
X264179728Y-89365205D01*
X264155078Y-89273213D01*
X264176425Y-89168895D01*
X264210097Y-89110574D01*
X264289765Y-89039928D01*
X264461426Y-88944632D01*
X264541095Y-88873987D01*
X264574766Y-88815665D01*
X264596113Y-88711348D01*
X264571464Y-88619355D01*
X264500818Y-88539687D01*
X264442497Y-88506015D01*
X264338179Y-88484668D01*
X264108197Y-88546291D01*
X263982532Y-88629262D01*
X263648232Y-88669539D02*
X263677069Y-89697088D01*
X263308212Y-89056440D01*
X263309097Y-89795686D01*
X262820296Y-88891383D01*
X262544317Y-88965332D02*
X261946363Y-89125553D01*
X262366936Y-89407252D01*
X262228946Y-89444226D01*
X262149278Y-89514872D01*
X262115606Y-89573193D01*
X262094259Y-89677511D01*
X262155883Y-89907493D01*
X262226529Y-89987161D01*
X262284850Y-90020833D01*
X262389168Y-90042180D01*
X262665147Y-89968232D01*
X262744815Y-89897586D01*
X262778487Y-89839265D01*
X261348409Y-89285774D02*
X261256416Y-89310424D01*
X261176748Y-89381070D01*
X261143076Y-89439391D01*
X261121729Y-89543708D01*
X261125031Y-89740019D01*
X261186655Y-89970001D01*
X261281950Y-90141663D01*
X261352596Y-90221331D01*
X261410917Y-90255003D01*
X261515235Y-90276350D01*
X261607228Y-90251700D01*
X261686896Y-90181054D01*
X261720568Y-90122733D01*
X261741915Y-90018415D01*
X261738612Y-89822105D01*
X261676989Y-89592122D01*
X261581693Y-89420461D01*
X261511048Y-89340793D01*
X261452726Y-89307121D01*
X261348409Y-89285774D01*
%TO.C,SW26*%
X188770104Y-99366285D02*
X188644440Y-99449256D01*
X188414457Y-99510879D01*
X188310140Y-99489532D01*
X188251819Y-99455861D01*
X188181173Y-99376192D01*
X188156523Y-99284200D01*
X188177870Y-99179882D01*
X188211542Y-99121561D01*
X188291210Y-99050915D01*
X188462871Y-98955619D01*
X188542540Y-98884974D01*
X188576211Y-98826652D01*
X188597558Y-98722335D01*
X188572909Y-98630342D01*
X188502263Y-98550674D01*
X188443942Y-98517002D01*
X188339624Y-98495655D01*
X188109642Y-98557278D01*
X187983977Y-98640249D01*
X187649677Y-98680526D02*
X187678514Y-99708075D01*
X187309657Y-99067427D01*
X187310542Y-99806673D01*
X186821741Y-98902370D01*
X186524415Y-99080636D02*
X186466094Y-99046965D01*
X186361776Y-99025618D01*
X186131794Y-99087241D01*
X186052125Y-99157887D01*
X186018454Y-99216208D01*
X185997107Y-99320526D01*
X186021756Y-99412519D01*
X186104727Y-99538184D01*
X186804581Y-99942245D01*
X186206627Y-100102466D01*
X185119871Y-99358385D02*
X185303857Y-99309086D01*
X185408175Y-99330433D01*
X185466496Y-99364105D01*
X185595463Y-99477445D01*
X185690759Y-99649106D01*
X185789356Y-100017078D01*
X185768009Y-100121395D01*
X185734337Y-100179717D01*
X185654669Y-100250362D01*
X185470683Y-100299661D01*
X185366366Y-100278314D01*
X185308045Y-100244643D01*
X185237399Y-100164974D01*
X185175775Y-99934992D01*
X185197122Y-99830674D01*
X185230794Y-99772353D01*
X185310462Y-99701707D01*
X185494448Y-99652408D01*
X185598766Y-99673755D01*
X185657087Y-99707427D01*
X185727733Y-99787095D01*
%TO.C,SW27*%
X206475649Y-92033907D02*
X206349985Y-92116878D01*
X206120002Y-92178501D01*
X206015685Y-92157154D01*
X205957364Y-92123483D01*
X205886718Y-92043814D01*
X205862068Y-91951822D01*
X205883415Y-91847504D01*
X205917087Y-91789183D01*
X205996755Y-91718537D01*
X206168416Y-91623241D01*
X206248085Y-91552596D01*
X206281756Y-91494274D01*
X206303103Y-91389957D01*
X206278454Y-91297964D01*
X206207808Y-91218296D01*
X206149487Y-91184624D01*
X206045169Y-91163277D01*
X205815187Y-91224900D01*
X205689522Y-91307871D01*
X205355222Y-91348148D02*
X205384059Y-92375697D01*
X205015202Y-91735049D01*
X205016087Y-92474295D01*
X204527286Y-91569992D01*
X204229960Y-91748258D02*
X204171639Y-91714587D01*
X204067321Y-91693240D01*
X203837339Y-91754863D01*
X203757670Y-91825509D01*
X203723999Y-91883830D01*
X203702652Y-91988148D01*
X203727301Y-92080141D01*
X203810272Y-92205806D01*
X204510126Y-92609867D01*
X203912172Y-92770088D01*
X203331378Y-91890435D02*
X202687427Y-92062981D01*
X203360214Y-92917984D01*
%TO.C,SW28*%
X223534143Y-82286714D02*
X223408479Y-82369685D01*
X223178496Y-82431308D01*
X223074179Y-82409961D01*
X223015858Y-82376290D01*
X222945212Y-82296621D01*
X222920562Y-82204629D01*
X222941909Y-82100311D01*
X222975581Y-82041990D01*
X223055249Y-81971344D01*
X223226910Y-81876048D01*
X223306579Y-81805403D01*
X223340250Y-81747081D01*
X223361597Y-81642764D01*
X223336948Y-81550771D01*
X223266302Y-81471103D01*
X223207981Y-81437431D01*
X223103663Y-81416084D01*
X222873681Y-81477707D01*
X222748016Y-81560678D01*
X222413716Y-81600955D02*
X222442553Y-82628504D01*
X222073696Y-81987856D01*
X222074581Y-82727102D01*
X221585780Y-81822799D01*
X221288454Y-82001065D02*
X221230133Y-81967394D01*
X221125815Y-81946047D01*
X220895833Y-82007670D01*
X220816164Y-82078316D01*
X220782493Y-82136637D01*
X220761146Y-82240955D01*
X220785795Y-82332948D01*
X220868766Y-82458613D01*
X221568620Y-82862674D01*
X220970666Y-83022895D01*
X220270812Y-82618834D02*
X220350480Y-82548188D01*
X220384152Y-82489867D01*
X220405499Y-82385549D01*
X220393174Y-82339553D01*
X220322528Y-82259884D01*
X220264207Y-82226213D01*
X220159889Y-82204866D01*
X219975903Y-82254164D01*
X219896235Y-82324810D01*
X219862563Y-82383132D01*
X219841216Y-82487449D01*
X219853541Y-82533446D01*
X219924187Y-82613114D01*
X219982508Y-82646786D01*
X220086826Y-82668133D01*
X220270812Y-82618834D01*
X220375129Y-82640181D01*
X220433451Y-82673853D01*
X220504096Y-82753521D01*
X220553395Y-82937507D01*
X220532048Y-83041824D01*
X220498376Y-83100146D01*
X220418708Y-83170791D01*
X220234722Y-83220090D01*
X220130405Y-83198743D01*
X220072084Y-83165072D01*
X220001438Y-83085403D01*
X219952139Y-82901417D01*
X219973486Y-82797100D01*
X220007158Y-82738779D01*
X220086826Y-82668133D01*
%TO.C,SW20*%
X259851088Y-71002704D02*
X259725424Y-71085675D01*
X259495441Y-71147298D01*
X259391124Y-71125951D01*
X259332803Y-71092280D01*
X259262157Y-71012611D01*
X259237507Y-70920619D01*
X259258854Y-70816301D01*
X259292526Y-70757980D01*
X259372194Y-70687334D01*
X259543855Y-70592038D01*
X259623524Y-70521393D01*
X259657195Y-70463071D01*
X259678542Y-70358754D01*
X259653893Y-70266761D01*
X259583247Y-70187093D01*
X259524926Y-70153421D01*
X259420608Y-70132074D01*
X259190626Y-70193697D01*
X259064961Y-70276668D01*
X258730661Y-70316945D02*
X258759498Y-71344494D01*
X258390641Y-70703846D01*
X258391526Y-71443092D01*
X257902725Y-70538789D01*
X257605399Y-70717055D02*
X257547078Y-70683384D01*
X257442760Y-70662037D01*
X257212778Y-70723660D01*
X257133109Y-70794306D01*
X257099438Y-70852627D01*
X257078091Y-70956945D01*
X257102740Y-71048938D01*
X257185711Y-71174603D01*
X257885565Y-71578664D01*
X257287611Y-71738885D01*
X256430838Y-70933180D02*
X256338845Y-70957830D01*
X256259177Y-71028476D01*
X256225505Y-71086797D01*
X256204158Y-71191114D01*
X256207460Y-71387425D01*
X256269084Y-71617407D01*
X256364379Y-71789069D01*
X256435025Y-71868737D01*
X256493346Y-71902409D01*
X256597664Y-71923756D01*
X256689657Y-71899106D01*
X256769325Y-71828460D01*
X256802997Y-71770139D01*
X256824344Y-71665821D01*
X256821041Y-71469511D01*
X256759418Y-71239528D01*
X256664122Y-71067867D01*
X256593477Y-70988199D01*
X256535155Y-70954527D01*
X256430838Y-70933180D01*
%TO.C,SW9*%
X232885741Y-45616851D02*
X232760076Y-45699822D01*
X232530094Y-45761446D01*
X232425776Y-45740099D01*
X232367455Y-45706427D01*
X232296809Y-45626759D01*
X232272159Y-45534766D01*
X232293507Y-45430448D01*
X232327178Y-45372127D01*
X232406847Y-45301481D01*
X232578508Y-45206186D01*
X232658176Y-45135540D01*
X232691848Y-45077219D01*
X232713195Y-44972901D01*
X232688545Y-44880908D01*
X232617899Y-44801240D01*
X232559578Y-44767568D01*
X232455260Y-44746221D01*
X232225278Y-44807845D01*
X232099613Y-44890815D01*
X231765313Y-44931092D02*
X231794150Y-45958641D01*
X231425294Y-45317993D01*
X231426178Y-46057239D01*
X230937377Y-45152937D01*
X230782228Y-46229785D02*
X230598242Y-46279084D01*
X230493924Y-46257737D01*
X230435603Y-46224065D01*
X230306636Y-46110725D01*
X230211341Y-45939064D01*
X230112743Y-45571092D01*
X230134090Y-45466774D01*
X230167762Y-45408453D01*
X230247430Y-45337807D01*
X230431416Y-45288508D01*
X230535734Y-45309855D01*
X230594055Y-45343527D01*
X230664701Y-45423195D01*
X230726324Y-45653178D01*
X230704977Y-45757495D01*
X230671305Y-45815817D01*
X230591637Y-45886463D01*
X230407651Y-45935761D01*
X230303334Y-45914414D01*
X230245013Y-45880743D01*
X230174367Y-45801074D01*
%TO.C,SW8*%
X213239052Y-45704786D02*
X213113387Y-45787757D01*
X212883405Y-45849381D01*
X212779087Y-45828034D01*
X212720766Y-45794362D01*
X212650120Y-45714694D01*
X212625470Y-45622701D01*
X212646818Y-45518383D01*
X212680489Y-45460062D01*
X212760158Y-45389416D01*
X212931819Y-45294121D01*
X213011487Y-45223475D01*
X213045159Y-45165154D01*
X213066506Y-45060836D01*
X213041856Y-44968843D01*
X212971210Y-44889175D01*
X212912889Y-44855503D01*
X212808571Y-44834156D01*
X212578589Y-44895780D01*
X212452924Y-44978750D01*
X212118624Y-45019027D02*
X212147461Y-46046576D01*
X211778605Y-45405928D01*
X211779489Y-46145174D01*
X211290688Y-45240872D01*
X210895649Y-45790412D02*
X210975318Y-45719766D01*
X211008989Y-45661445D01*
X211030336Y-45557127D01*
X211018012Y-45511130D01*
X210947366Y-45431462D01*
X210889045Y-45397790D01*
X210784727Y-45376443D01*
X210600741Y-45425742D01*
X210521073Y-45496388D01*
X210487401Y-45554709D01*
X210466054Y-45659027D01*
X210478379Y-45705024D01*
X210549025Y-45784692D01*
X210607346Y-45818363D01*
X210711663Y-45839711D01*
X210895649Y-45790412D01*
X210999967Y-45811759D01*
X211058288Y-45845430D01*
X211128934Y-45925099D01*
X211178233Y-46109085D01*
X211156886Y-46213402D01*
X211123214Y-46271723D01*
X211043546Y-46342369D01*
X210859560Y-46391668D01*
X210755242Y-46370321D01*
X210696921Y-46336649D01*
X210626275Y-46256981D01*
X210576976Y-46072995D01*
X210598324Y-45968678D01*
X210631995Y-45910356D01*
X210711663Y-45839711D01*
%TO.C,SW16*%
X183852546Y-81013699D02*
X183726882Y-81096670D01*
X183496899Y-81158293D01*
X183392582Y-81136946D01*
X183334261Y-81103275D01*
X183263615Y-81023606D01*
X183238965Y-80931614D01*
X183260312Y-80827296D01*
X183293984Y-80768975D01*
X183373652Y-80698329D01*
X183545313Y-80603033D01*
X183624982Y-80532388D01*
X183658653Y-80474066D01*
X183680000Y-80369749D01*
X183655351Y-80277756D01*
X183584705Y-80198088D01*
X183526384Y-80164416D01*
X183422066Y-80143069D01*
X183192084Y-80204692D01*
X183066419Y-80287663D01*
X182732119Y-80327940D02*
X182760956Y-81355489D01*
X182392099Y-80714841D01*
X182392984Y-81454087D01*
X181904183Y-80549784D01*
X181289069Y-81749880D02*
X181841026Y-81601983D01*
X181565048Y-81675932D02*
X181306229Y-80710006D01*
X181435196Y-80823346D01*
X181551838Y-80890689D01*
X181656156Y-80912036D01*
X180202313Y-81005799D02*
X180386299Y-80956500D01*
X180490617Y-80977847D01*
X180548938Y-81011519D01*
X180677905Y-81124859D01*
X180773201Y-81296520D01*
X180871798Y-81664492D01*
X180850451Y-81768809D01*
X180816779Y-81827131D01*
X180737111Y-81897776D01*
X180553125Y-81947075D01*
X180448808Y-81925728D01*
X180390487Y-81892057D01*
X180319841Y-81812388D01*
X180258217Y-81582406D01*
X180279564Y-81478088D01*
X180313236Y-81419767D01*
X180392904Y-81349121D01*
X180576890Y-81299822D01*
X180681208Y-81321169D01*
X180739529Y-81354841D01*
X180810175Y-81434509D01*
%TO.C,SW19*%
X238263263Y-63846199D02*
X238137599Y-63929170D01*
X237907616Y-63990793D01*
X237803299Y-63969446D01*
X237744978Y-63935775D01*
X237674332Y-63856106D01*
X237649682Y-63764114D01*
X237671029Y-63659796D01*
X237704701Y-63601475D01*
X237784369Y-63530829D01*
X237956030Y-63435533D01*
X238035699Y-63364888D01*
X238069370Y-63306566D01*
X238090717Y-63202249D01*
X238066068Y-63110256D01*
X237995422Y-63030588D01*
X237937101Y-62996916D01*
X237832783Y-62975569D01*
X237602801Y-63037192D01*
X237477136Y-63120163D01*
X237142836Y-63160440D02*
X237171673Y-64187989D01*
X236802816Y-63547341D01*
X236803701Y-64286587D01*
X236314900Y-63382284D01*
X235699786Y-64582380D02*
X236251743Y-64434483D01*
X235975765Y-64508432D02*
X235716946Y-63542506D01*
X235845913Y-63655846D01*
X235962555Y-63723189D01*
X236066873Y-63744536D01*
X235239821Y-64705627D02*
X235055835Y-64754926D01*
X234951518Y-64733579D01*
X234893196Y-64699907D01*
X234764229Y-64586567D01*
X234668934Y-64414906D01*
X234570336Y-64046934D01*
X234591683Y-63942617D01*
X234625355Y-63884295D01*
X234705023Y-63813649D01*
X234889009Y-63764351D01*
X234993327Y-63785698D01*
X235051648Y-63819369D01*
X235122294Y-63899038D01*
X235183918Y-64129020D01*
X235162571Y-64233338D01*
X235128899Y-64291659D01*
X235049231Y-64362305D01*
X234865245Y-64411604D01*
X234760927Y-64390257D01*
X234702606Y-64356585D01*
X234631960Y-64276917D01*
%TO.C,SW17*%
X201558081Y-73681322D02*
X201432417Y-73764293D01*
X201202434Y-73825916D01*
X201098117Y-73804569D01*
X201039796Y-73770898D01*
X200969150Y-73691229D01*
X200944500Y-73599237D01*
X200965847Y-73494919D01*
X200999519Y-73436598D01*
X201079187Y-73365952D01*
X201250848Y-73270656D01*
X201330517Y-73200011D01*
X201364188Y-73141689D01*
X201385535Y-73037372D01*
X201360886Y-72945379D01*
X201290240Y-72865711D01*
X201231919Y-72832039D01*
X201127601Y-72810692D01*
X200897619Y-72872315D01*
X200771954Y-72955286D01*
X200437654Y-72995563D02*
X200466491Y-74023112D01*
X200097634Y-73382464D01*
X200098519Y-74121710D01*
X199609718Y-73217407D01*
X198994604Y-74417503D02*
X199546561Y-74269606D01*
X199270583Y-74343555D02*
X199011764Y-73377629D01*
X199140731Y-73490969D01*
X199257373Y-73558312D01*
X199361691Y-73579659D01*
X198413810Y-73537850D02*
X197769859Y-73710396D01*
X198442646Y-74565399D01*
%TO.C,SW18*%
X218616580Y-63934128D02*
X218490916Y-64017099D01*
X218260933Y-64078722D01*
X218156616Y-64057375D01*
X218098295Y-64023704D01*
X218027649Y-63944035D01*
X218002999Y-63852043D01*
X218024346Y-63747725D01*
X218058018Y-63689404D01*
X218137686Y-63618758D01*
X218309347Y-63523462D01*
X218389016Y-63452817D01*
X218422687Y-63394495D01*
X218444034Y-63290178D01*
X218419385Y-63198185D01*
X218348739Y-63118517D01*
X218290418Y-63084845D01*
X218186100Y-63063498D01*
X217956118Y-63125121D01*
X217830453Y-63208092D01*
X217496153Y-63248369D02*
X217524990Y-64275918D01*
X217156133Y-63635270D01*
X217157018Y-64374516D01*
X216668217Y-63470213D01*
X216053103Y-64670309D02*
X216605060Y-64522412D01*
X216329082Y-64596361D02*
X216070263Y-63630435D01*
X216199230Y-63743775D01*
X216315872Y-63811118D01*
X216420190Y-63832465D01*
X215353249Y-64266248D02*
X215432917Y-64195602D01*
X215466589Y-64137281D01*
X215487936Y-64032963D01*
X215475611Y-63986967D01*
X215404965Y-63907298D01*
X215346644Y-63873627D01*
X215242326Y-63852280D01*
X215058340Y-63901578D01*
X214978672Y-63972224D01*
X214945000Y-64030546D01*
X214923653Y-64134863D01*
X214935978Y-64180860D01*
X215006624Y-64260528D01*
X215064945Y-64294200D01*
X215169263Y-64315547D01*
X215353249Y-64266248D01*
X215457566Y-64287595D01*
X215515888Y-64321267D01*
X215586533Y-64400935D01*
X215635832Y-64584921D01*
X215614485Y-64689238D01*
X215580813Y-64747560D01*
X215501145Y-64818205D01*
X215317159Y-64867504D01*
X215212842Y-64846157D01*
X215154521Y-64812486D01*
X215083875Y-64732817D01*
X215034576Y-64548831D01*
X215055923Y-64444514D01*
X215089595Y-64386193D01*
X215169263Y-64315547D01*
%TO.C,D3*%
X78968227Y-33951195D02*
X78002301Y-33692376D01*
X77940678Y-33922358D01*
X77949700Y-34072672D01*
X78017043Y-34189315D01*
X78096712Y-34259961D01*
X78268373Y-34355256D01*
X78406362Y-34392230D01*
X78602673Y-34395533D01*
X78706990Y-34374186D01*
X78823633Y-34306842D01*
X78906603Y-34181177D01*
X78968227Y-33951195D01*
X77768132Y-34566309D02*
X77607910Y-35164263D01*
X78062155Y-34940885D01*
X78025181Y-35078875D01*
X78046528Y-35183192D01*
X78080200Y-35241514D01*
X78159868Y-35312160D01*
X78389850Y-35373783D01*
X78494168Y-35352436D01*
X78552489Y-35318764D01*
X78623135Y-35239096D01*
X78697083Y-34963117D01*
X78675736Y-34858800D01*
X78642065Y-34800479D01*
%TO.C,D2*%
X59321547Y-33863259D02*
X58355621Y-33604440D01*
X58293998Y-33834422D01*
X58303020Y-33984736D01*
X58370363Y-34101379D01*
X58450032Y-34172025D01*
X58621693Y-34267320D01*
X58759682Y-34304294D01*
X58955993Y-34307597D01*
X59060310Y-34286250D01*
X59176953Y-34218906D01*
X59259923Y-34093241D01*
X59321547Y-33863259D01*
X58201120Y-34549019D02*
X58142799Y-34582691D01*
X58072153Y-34662359D01*
X58010529Y-34892341D01*
X58031876Y-34996659D01*
X58065548Y-35054980D01*
X58145216Y-35125626D01*
X58237209Y-35150275D01*
X58387523Y-35141253D01*
X59087377Y-34737192D01*
X58927156Y-35335146D01*
%TO.C,D12*%
X54527227Y-51755881D02*
X53561301Y-51497062D01*
X53499678Y-51727045D01*
X53508700Y-51877359D01*
X53576044Y-51994001D01*
X53655712Y-52064647D01*
X53827373Y-52159942D01*
X53965362Y-52196917D01*
X54161673Y-52200219D01*
X54265991Y-52178872D01*
X54382633Y-52111528D01*
X54465604Y-51985864D01*
X54527227Y-51755881D01*
X54132836Y-53227768D02*
X54280733Y-52675811D01*
X54206785Y-52951790D02*
X53240859Y-52692970D01*
X53403498Y-52637952D01*
X53520140Y-52570608D01*
X53590786Y-52490940D01*
X53160306Y-53361570D02*
X53101984Y-53395242D01*
X53031339Y-53474910D01*
X52969715Y-53704893D01*
X52991062Y-53809210D01*
X53024734Y-53867532D01*
X53104402Y-53938178D01*
X53196395Y-53962827D01*
X53346709Y-53953805D01*
X54046563Y-53549744D01*
X53886342Y-54147698D01*
%TO.C,D14*%
X91232407Y-61591009D02*
X90266481Y-61332190D01*
X90204858Y-61562173D01*
X90213880Y-61712487D01*
X90281224Y-61829129D01*
X90360892Y-61899775D01*
X90532553Y-61995070D01*
X90670542Y-62032045D01*
X90866853Y-62035347D01*
X90971171Y-62014000D01*
X91087813Y-61946656D01*
X91170784Y-61820992D01*
X91232407Y-61591009D01*
X90838016Y-63062896D02*
X90985913Y-62510939D01*
X90911965Y-62786918D02*
X89946039Y-62528098D01*
X90108678Y-62473080D01*
X90225320Y-62405736D01*
X90295966Y-62326068D01*
X89972221Y-63718287D02*
X90616171Y-63890833D01*
X89665873Y-63389707D02*
X90417443Y-63344595D01*
X90257222Y-63942549D01*
%TO.C,D13*%
X74173916Y-51843819D02*
X73207990Y-51585000D01*
X73146367Y-51814983D01*
X73155389Y-51965297D01*
X73222733Y-52081939D01*
X73302401Y-52152585D01*
X73474062Y-52247880D01*
X73612051Y-52284855D01*
X73808362Y-52288157D01*
X73912680Y-52266810D01*
X74029322Y-52199466D01*
X74112293Y-52073802D01*
X74173916Y-51843819D01*
X73779525Y-53315706D02*
X73927422Y-52763749D01*
X73853474Y-53039728D02*
X72887548Y-52780908D01*
X73050187Y-52725890D01*
X73166829Y-52658546D01*
X73237475Y-52578878D01*
X72727326Y-53378863D02*
X72567105Y-53976817D01*
X73021350Y-53753439D01*
X72984376Y-53891429D01*
X73005723Y-53995746D01*
X73039395Y-54054067D01*
X73119063Y-54124713D01*
X73349045Y-54186337D01*
X73453363Y-54164990D01*
X73511684Y-54131318D01*
X73582330Y-54051650D01*
X73656278Y-53775671D01*
X73634931Y-53671353D01*
X73601259Y-53613032D01*
%TO.C,D15*%
X108937952Y-68923389D02*
X107972026Y-68664570D01*
X107910403Y-68894553D01*
X107919425Y-69044867D01*
X107986769Y-69161509D01*
X108066437Y-69232155D01*
X108238098Y-69327450D01*
X108376087Y-69364425D01*
X108572398Y-69367727D01*
X108676716Y-69346380D01*
X108793358Y-69279036D01*
X108876329Y-69153372D01*
X108937952Y-68923389D01*
X108543561Y-70395276D02*
X108691458Y-69843319D01*
X108617510Y-70119298D02*
X107651584Y-69860478D01*
X107814223Y-69805460D01*
X107930865Y-69738116D01*
X108001511Y-69658448D01*
X107343466Y-71010390D02*
X107466713Y-70550426D01*
X107939002Y-70627676D01*
X107880681Y-70661348D01*
X107810035Y-70741016D01*
X107748412Y-70970999D01*
X107769759Y-71075316D01*
X107803431Y-71133637D01*
X107883099Y-71204283D01*
X108113081Y-71265907D01*
X108217399Y-71244560D01*
X108275720Y-71210888D01*
X108346366Y-71131220D01*
X108407989Y-70901237D01*
X108386642Y-70796920D01*
X108352971Y-70738599D01*
%TO.C,D22*%
X50184375Y-68191403D02*
X49218449Y-67932584D01*
X49156826Y-68162567D01*
X49165848Y-68312881D01*
X49233192Y-68429523D01*
X49312860Y-68500169D01*
X49484521Y-68595464D01*
X49622510Y-68632439D01*
X49818821Y-68635741D01*
X49923139Y-68614394D01*
X50039781Y-68547050D01*
X50122752Y-68421386D01*
X50184375Y-68191403D01*
X49063948Y-68877163D02*
X49005627Y-68910835D01*
X48934981Y-68990503D01*
X48873357Y-69220485D01*
X48894704Y-69324803D01*
X48928376Y-69383124D01*
X49008044Y-69453770D01*
X49100037Y-69478420D01*
X49250351Y-69469397D01*
X49950206Y-69065336D01*
X49789984Y-69663290D01*
X48817454Y-69797092D02*
X48759132Y-69830764D01*
X48688487Y-69910432D01*
X48626863Y-70140415D01*
X48648210Y-70244732D01*
X48681882Y-70303054D01*
X48761550Y-70373700D01*
X48853543Y-70398349D01*
X49003857Y-70389327D01*
X49703711Y-69985266D01*
X49543490Y-70583220D01*
%TO.C,D25*%
X104020398Y-87275977D02*
X103054472Y-87017158D01*
X102992849Y-87247141D01*
X103001871Y-87397455D01*
X103069215Y-87514097D01*
X103148883Y-87584743D01*
X103320544Y-87680038D01*
X103458533Y-87717013D01*
X103654844Y-87720315D01*
X103759162Y-87698968D01*
X103875804Y-87631624D01*
X103958775Y-87505960D01*
X104020398Y-87275977D01*
X102899971Y-87961737D02*
X102841650Y-87995409D01*
X102771004Y-88075077D01*
X102709380Y-88305059D01*
X102730727Y-88409377D01*
X102764399Y-88467698D01*
X102844067Y-88538344D01*
X102936060Y-88562994D01*
X103086374Y-88553971D01*
X103786229Y-88149910D01*
X103626007Y-88747864D01*
X102425912Y-89362978D02*
X102549159Y-88903014D01*
X103021448Y-88980264D01*
X102963127Y-89013936D01*
X102892481Y-89093604D01*
X102830858Y-89323587D01*
X102852205Y-89427904D01*
X102885877Y-89486225D01*
X102965545Y-89556871D01*
X103195527Y-89618495D01*
X103299845Y-89597148D01*
X103358166Y-89563476D01*
X103428812Y-89483808D01*
X103490435Y-89253825D01*
X103469088Y-89149508D01*
X103435417Y-89091187D01*
%TO.C,D24*%
X86314849Y-79943600D02*
X85348923Y-79684781D01*
X85287300Y-79914764D01*
X85296322Y-80065078D01*
X85363666Y-80181720D01*
X85443334Y-80252366D01*
X85614995Y-80347661D01*
X85752984Y-80384636D01*
X85949295Y-80387938D01*
X86053613Y-80366591D01*
X86170255Y-80299247D01*
X86253226Y-80173583D01*
X86314849Y-79943600D01*
X85194422Y-80629360D02*
X85136101Y-80663032D01*
X85065455Y-80742700D01*
X85003831Y-80972682D01*
X85025178Y-81077000D01*
X85058850Y-81135321D01*
X85138518Y-81205967D01*
X85230511Y-81230617D01*
X85380825Y-81221594D01*
X86080680Y-80817533D01*
X85920458Y-81415487D01*
X85054663Y-82070878D02*
X85698613Y-82243424D01*
X84748315Y-81742298D02*
X85499885Y-81697186D01*
X85339664Y-82295140D01*
%TO.C,D23*%
X69256355Y-70196415D02*
X68290429Y-69937596D01*
X68228806Y-70167579D01*
X68237828Y-70317893D01*
X68305172Y-70434535D01*
X68384840Y-70505181D01*
X68556501Y-70600476D01*
X68694490Y-70637451D01*
X68890801Y-70640753D01*
X68995119Y-70619406D01*
X69111761Y-70552062D01*
X69194732Y-70426398D01*
X69256355Y-70196415D01*
X68135928Y-70882175D02*
X68077607Y-70915847D01*
X68006961Y-70995515D01*
X67945337Y-71225497D01*
X67966684Y-71329815D01*
X68000356Y-71388136D01*
X68080024Y-71458782D01*
X68172017Y-71483432D01*
X68322331Y-71474409D01*
X69022186Y-71070348D01*
X68861964Y-71668302D01*
X67809765Y-71731459D02*
X67649544Y-72329413D01*
X68103789Y-72106035D01*
X68066815Y-72244025D01*
X68088162Y-72348342D01*
X68121834Y-72406663D01*
X68201502Y-72477309D01*
X68431484Y-72538933D01*
X68535802Y-72517586D01*
X68594123Y-72483914D01*
X68664769Y-72404246D01*
X68738717Y-72128267D01*
X68717370Y-72023949D01*
X68683698Y-71965628D01*
%TO.C,D21*%
X28021839Y-77264986D02*
X27055913Y-77006167D01*
X26994290Y-77236150D01*
X27003312Y-77386464D01*
X27070656Y-77503106D01*
X27150324Y-77573752D01*
X27321985Y-77669047D01*
X27459974Y-77706022D01*
X27656285Y-77709324D01*
X27760603Y-77687977D01*
X27877245Y-77620633D01*
X27960216Y-77494969D01*
X28021839Y-77264986D01*
X26901412Y-77950746D02*
X26843091Y-77984418D01*
X26772445Y-78064086D01*
X26710821Y-78294068D01*
X26732168Y-78398386D01*
X26765840Y-78456707D01*
X26845508Y-78527353D01*
X26937501Y-78552003D01*
X27087815Y-78542980D01*
X27787670Y-78138919D01*
X27627448Y-78736873D01*
X27380954Y-79656803D02*
X27528851Y-79104845D01*
X27454902Y-79380824D02*
X26488976Y-79122005D01*
X26651615Y-79066986D01*
X26768258Y-78999643D01*
X26838904Y-78919974D01*
%TO.C,D11*%
X32939405Y-58912396D02*
X31973479Y-58653577D01*
X31911856Y-58883560D01*
X31920878Y-59033874D01*
X31988222Y-59150516D01*
X32067890Y-59221162D01*
X32239551Y-59316457D01*
X32377540Y-59353432D01*
X32573851Y-59356734D01*
X32678169Y-59335387D01*
X32794811Y-59268043D01*
X32877782Y-59142379D01*
X32939405Y-58912396D01*
X32545014Y-60384283D02*
X32692911Y-59832326D01*
X32618963Y-60108305D02*
X31653037Y-59849485D01*
X31815676Y-59794467D01*
X31932318Y-59727123D01*
X32002964Y-59647455D01*
X32298520Y-61304213D02*
X32446417Y-60752255D01*
X32372468Y-61028234D02*
X31406542Y-60769415D01*
X31569181Y-60714396D01*
X31685824Y-60647053D01*
X31756470Y-60567384D01*
%TO.C,D33*%
X80103194Y-103125823D02*
X79137268Y-102867004D01*
X79075645Y-103096987D01*
X79084667Y-103247301D01*
X79152011Y-103363943D01*
X79231679Y-103434589D01*
X79403340Y-103529884D01*
X79541329Y-103566859D01*
X79737640Y-103570161D01*
X79841958Y-103548814D01*
X79958600Y-103481470D01*
X80041571Y-103355806D01*
X80103194Y-103125823D01*
X78903099Y-103740937D02*
X78742877Y-104338891D01*
X79197122Y-104115514D01*
X79160148Y-104253503D01*
X79181495Y-104357821D01*
X79215167Y-104416142D01*
X79294835Y-104486788D01*
X79524817Y-104548411D01*
X79629135Y-104527064D01*
X79687456Y-104493393D01*
X79758102Y-104413724D01*
X79832050Y-104137746D01*
X79810703Y-104033428D01*
X79777032Y-103975107D01*
X78656604Y-104660867D02*
X78496383Y-105258821D01*
X78950628Y-105035443D01*
X78913654Y-105173433D01*
X78935001Y-105277750D01*
X78968673Y-105336071D01*
X79048341Y-105406717D01*
X79278323Y-105468341D01*
X79382641Y-105446994D01*
X79440962Y-105413322D01*
X79511608Y-105333654D01*
X79585556Y-105057675D01*
X79564209Y-104953357D01*
X79530537Y-104895036D01*
%TO.C,D34*%
X100701652Y-108805600D02*
X99795344Y-108382982D01*
X99694721Y-108598770D01*
X99677504Y-108748367D01*
X99723570Y-108874931D01*
X99789761Y-108958338D01*
X99942266Y-109081994D01*
X100071738Y-109142368D01*
X100264493Y-109179710D01*
X100370933Y-109176801D01*
X100497497Y-109130736D01*
X100601029Y-109021388D01*
X100701652Y-108805600D01*
X99412976Y-109202975D02*
X99151355Y-109764023D01*
X99637488Y-109622917D01*
X99577114Y-109752390D01*
X99580022Y-109858830D01*
X99603054Y-109922112D01*
X99669245Y-110005519D01*
X99885032Y-110106142D01*
X99991472Y-110103234D01*
X100054754Y-110080201D01*
X100138161Y-110014011D01*
X100258909Y-109755066D01*
X100256001Y-109648626D01*
X100232968Y-109585344D01*
X99091213Y-110681731D02*
X99695418Y-110963476D01*
X98846576Y-110304946D02*
X99594562Y-110391028D01*
X99332942Y-110952076D01*
%TO.C,D35*%
X120000886Y-117975976D02*
X119181734Y-117402399D01*
X119045168Y-117597436D01*
X119002236Y-117741771D01*
X119025624Y-117874411D01*
X119076325Y-117968045D01*
X119205041Y-118116305D01*
X119322063Y-118198244D01*
X119505405Y-118268490D01*
X119610733Y-118284109D01*
X119743373Y-118260721D01*
X119864320Y-118171012D01*
X120000886Y-117975976D01*
X118662784Y-118143537D02*
X118307713Y-118650631D01*
X118810963Y-118596086D01*
X118729023Y-118713108D01*
X118713404Y-118818435D01*
X118725098Y-118884756D01*
X118775800Y-118978389D01*
X118970836Y-119114955D01*
X119076163Y-119130574D01*
X119142484Y-119118880D01*
X119236117Y-119068179D01*
X119399996Y-118834135D01*
X119415615Y-118728808D01*
X119403921Y-118662487D01*
X117788763Y-119391769D02*
X118061894Y-119001696D01*
X118479280Y-119235821D01*
X118412959Y-119247515D01*
X118319326Y-119298216D01*
X118182760Y-119493252D01*
X118167141Y-119598580D01*
X118178835Y-119664900D01*
X118229536Y-119758534D01*
X118424572Y-119895100D01*
X118529900Y-119910719D01*
X118596221Y-119899025D01*
X118689854Y-119848323D01*
X118826420Y-119653287D01*
X118842039Y-119547960D01*
X118830345Y-119481639D01*
%TO.C,D9*%
X219572312Y-38937160D02*
X218606386Y-39195979D01*
X218668010Y-39425962D01*
X218750980Y-39551627D01*
X218867623Y-39618970D01*
X218971940Y-39640317D01*
X219168251Y-39637015D01*
X219306240Y-39600041D01*
X219477901Y-39504745D01*
X219557570Y-39434099D01*
X219624913Y-39317457D01*
X219633935Y-39167143D01*
X219572312Y-38937160D01*
X219843456Y-39949083D02*
X219892754Y-40133069D01*
X219871407Y-40237386D01*
X219837736Y-40295707D01*
X219724396Y-40424675D01*
X219552735Y-40519970D01*
X219184763Y-40618568D01*
X219080445Y-40597221D01*
X219022124Y-40563549D01*
X218951478Y-40483881D01*
X218902179Y-40299895D01*
X218923526Y-40195577D01*
X218957198Y-40137256D01*
X219036866Y-40066610D01*
X219266849Y-40004986D01*
X219371166Y-40026333D01*
X219429487Y-40060005D01*
X219500133Y-40139673D01*
X219549432Y-40323659D01*
X219528085Y-40427977D01*
X219494413Y-40486298D01*
X219414745Y-40556944D01*
%TO.C,D8*%
X199925630Y-39025094D02*
X198959704Y-39283913D01*
X199021328Y-39513896D01*
X199104298Y-39639561D01*
X199220941Y-39706904D01*
X199325258Y-39728251D01*
X199521569Y-39724949D01*
X199659558Y-39687975D01*
X199831219Y-39592679D01*
X199910888Y-39522033D01*
X199978231Y-39405391D01*
X199987253Y-39255077D01*
X199925630Y-39025094D01*
X199669465Y-40276906D02*
X199598820Y-40197238D01*
X199540498Y-40163566D01*
X199436181Y-40142219D01*
X199390184Y-40154544D01*
X199310516Y-40225190D01*
X199276844Y-40283511D01*
X199255497Y-40387829D01*
X199304796Y-40571815D01*
X199375442Y-40651483D01*
X199433763Y-40685155D01*
X199538081Y-40706502D01*
X199584077Y-40694177D01*
X199663745Y-40623531D01*
X199697417Y-40565210D01*
X199718764Y-40460892D01*
X199669465Y-40276906D01*
X199690812Y-40172589D01*
X199724484Y-40114267D01*
X199804152Y-40043622D01*
X199988138Y-39994323D01*
X200092456Y-40015670D01*
X200150777Y-40049341D01*
X200221423Y-40129010D01*
X200270722Y-40312996D01*
X200249375Y-40417313D01*
X200215703Y-40475634D01*
X200136035Y-40546280D01*
X199952049Y-40595579D01*
X199847731Y-40574232D01*
X199789410Y-40540560D01*
X199718764Y-40460892D01*
%TO.C,D19*%
X224355422Y-56787962D02*
X223389496Y-57046781D01*
X223451119Y-57276763D01*
X223534090Y-57402428D01*
X223650732Y-57469771D01*
X223755050Y-57491118D01*
X223951361Y-57487816D01*
X224089350Y-57450842D01*
X224261011Y-57355546D01*
X224340679Y-57284901D01*
X224408023Y-57168258D01*
X224417045Y-57017944D01*
X224355422Y-56787962D01*
X224749813Y-58259849D02*
X224601916Y-57707891D01*
X224675864Y-57983870D02*
X223709938Y-58242689D01*
X223823278Y-58113722D01*
X223890622Y-57997080D01*
X223911969Y-57892762D01*
X224873060Y-58719813D02*
X224922359Y-58903799D01*
X224901012Y-59008117D01*
X224867340Y-59066438D01*
X224754000Y-59195405D01*
X224582339Y-59290701D01*
X224214367Y-59389298D01*
X224110049Y-59367951D01*
X224051728Y-59334279D01*
X223981082Y-59254611D01*
X223931783Y-59070625D01*
X223953130Y-58966308D01*
X223986802Y-58907987D01*
X224066470Y-58837341D01*
X224296453Y-58775717D01*
X224400770Y-58797064D01*
X224459092Y-58830736D01*
X224529737Y-58910404D01*
X224579036Y-59094390D01*
X224557689Y-59198708D01*
X224524018Y-59257029D01*
X224444349Y-59327675D01*
%TO.C,D17*%
X197624013Y-77167650D02*
X197365194Y-76201724D01*
X197135212Y-76263347D01*
X197009547Y-76346318D01*
X196942204Y-76462960D01*
X196920857Y-76567278D01*
X196924159Y-76763589D01*
X196961133Y-76901578D01*
X197056429Y-77073239D01*
X197127074Y-77152907D01*
X197243717Y-77220251D01*
X197394031Y-77229273D01*
X197624013Y-77167650D01*
X196152126Y-77562041D02*
X196704084Y-77414144D01*
X196428105Y-77488092D02*
X196169286Y-76522166D01*
X196298253Y-76635506D01*
X196414895Y-76702850D01*
X196519213Y-76724197D01*
X195571332Y-76682388D02*
X194927381Y-76854934D01*
X195600169Y-77709937D01*
%TO.C,D26*%
X174873465Y-92349874D02*
X173907539Y-92608693D01*
X173969162Y-92838675D01*
X174052133Y-92964340D01*
X174168775Y-93031683D01*
X174273093Y-93053030D01*
X174469404Y-93049728D01*
X174607393Y-93012754D01*
X174779054Y-92917458D01*
X174858722Y-92846813D01*
X174926066Y-92730170D01*
X174935088Y-92579856D01*
X174873465Y-92349874D01*
X174246026Y-93503973D02*
X174212354Y-93562294D01*
X174191007Y-93666612D01*
X174252631Y-93896594D01*
X174323277Y-93976262D01*
X174381598Y-94009934D01*
X174485916Y-94031281D01*
X174577909Y-94006631D01*
X174703573Y-93923661D01*
X175107634Y-93223807D01*
X175267856Y-93821761D01*
X174523775Y-94908516D02*
X174474476Y-94724530D01*
X174495823Y-94620213D01*
X174529495Y-94561891D01*
X174642835Y-94432924D01*
X174814496Y-94337629D01*
X175182467Y-94239031D01*
X175286785Y-94260378D01*
X175345106Y-94294050D01*
X175415752Y-94373718D01*
X175465051Y-94557704D01*
X175443704Y-94662022D01*
X175410032Y-94720343D01*
X175330364Y-94790989D01*
X175100382Y-94852613D01*
X174996064Y-94831266D01*
X174937743Y-94797594D01*
X174867097Y-94717926D01*
X174817798Y-94533940D01*
X174839145Y-94429622D01*
X174872817Y-94371301D01*
X174952485Y-94300655D01*
%TO.C,D16*%
X169955905Y-73997281D02*
X168989979Y-74256100D01*
X169051602Y-74486082D01*
X169134573Y-74611747D01*
X169251215Y-74679090D01*
X169355533Y-74700437D01*
X169551844Y-74697135D01*
X169689833Y-74660161D01*
X169861494Y-74564865D01*
X169941162Y-74494220D01*
X170008506Y-74377577D01*
X170017528Y-74227263D01*
X169955905Y-73997281D01*
X170350296Y-75469168D02*
X170202399Y-74917210D01*
X170276347Y-75193189D02*
X169310421Y-75452008D01*
X169423761Y-75323041D01*
X169491105Y-75206399D01*
X169512452Y-75102081D01*
X169606215Y-76555923D02*
X169556916Y-76371937D01*
X169578263Y-76267620D01*
X169611935Y-76209298D01*
X169725275Y-76080331D01*
X169896936Y-75985036D01*
X170264907Y-75886438D01*
X170369225Y-75907785D01*
X170427546Y-75941457D01*
X170498192Y-76021125D01*
X170547491Y-76205111D01*
X170526144Y-76309429D01*
X170492472Y-76367750D01*
X170412804Y-76438396D01*
X170182822Y-76500020D01*
X170078504Y-76478673D01*
X170020183Y-76445001D01*
X169949537Y-76365333D01*
X169900238Y-76181347D01*
X169921585Y-76077029D01*
X169955257Y-76018708D01*
X170034925Y-75948062D01*
%TO.C,D18*%
X204402637Y-56767475D02*
X203436711Y-57026294D01*
X203498334Y-57256276D01*
X203581305Y-57381941D01*
X203697947Y-57449284D01*
X203802265Y-57470631D01*
X203998576Y-57467329D01*
X204136565Y-57430355D01*
X204308226Y-57335059D01*
X204387894Y-57264414D01*
X204455238Y-57147771D01*
X204464260Y-56997457D01*
X204402637Y-56767475D01*
X204797028Y-58239362D02*
X204649131Y-57687404D01*
X204723079Y-57963383D02*
X203757153Y-58222202D01*
X203870493Y-58093235D01*
X203937837Y-57976593D01*
X203959184Y-57872275D01*
X204392967Y-58939216D02*
X204322321Y-58859548D01*
X204263999Y-58825876D01*
X204159682Y-58804529D01*
X204113685Y-58816854D01*
X204034017Y-58887500D01*
X204000345Y-58945821D01*
X203978998Y-59050138D01*
X204028297Y-59234124D01*
X204098943Y-59313792D01*
X204157264Y-59347464D01*
X204261582Y-59368811D01*
X204307578Y-59356487D01*
X204387247Y-59285841D01*
X204420918Y-59227519D01*
X204442265Y-59123202D01*
X204392967Y-58939216D01*
X204414314Y-58834898D01*
X204447985Y-58776577D01*
X204527654Y-58705931D01*
X204711639Y-58656632D01*
X204815957Y-58677979D01*
X204874278Y-58711651D01*
X204944924Y-58791319D01*
X204994223Y-58975305D01*
X204972876Y-59079623D01*
X204939204Y-59137944D01*
X204859536Y-59208590D01*
X204675550Y-59257889D01*
X204571233Y-59236542D01*
X204512911Y-59202870D01*
X204442265Y-59123202D01*
%TO.C,D28*%
X209637506Y-75270306D02*
X208671580Y-75529125D01*
X208733203Y-75759107D01*
X208816174Y-75884772D01*
X208932816Y-75952115D01*
X209037134Y-75973462D01*
X209233445Y-75970160D01*
X209371434Y-75933186D01*
X209543095Y-75837890D01*
X209622763Y-75767245D01*
X209690107Y-75650602D01*
X209699129Y-75500288D01*
X209637506Y-75270306D01*
X209010067Y-76424405D02*
X208976395Y-76482726D01*
X208955048Y-76587044D01*
X209016672Y-76817026D01*
X209087318Y-76896694D01*
X209145639Y-76930366D01*
X209249957Y-76951713D01*
X209341950Y-76927063D01*
X209467614Y-76844093D01*
X209871675Y-76144239D01*
X210031897Y-76742193D01*
X209627836Y-77442047D02*
X209557190Y-77362379D01*
X209498868Y-77328707D01*
X209394551Y-77307360D01*
X209348554Y-77319685D01*
X209268886Y-77390331D01*
X209235214Y-77448652D01*
X209213867Y-77552969D01*
X209263166Y-77736955D01*
X209333812Y-77816623D01*
X209392133Y-77850295D01*
X209496451Y-77871642D01*
X209542447Y-77859318D01*
X209622116Y-77788672D01*
X209655787Y-77730350D01*
X209677134Y-77626033D01*
X209627836Y-77442047D01*
X209649183Y-77337729D01*
X209682854Y-77279408D01*
X209762523Y-77208762D01*
X209946508Y-77159463D01*
X210050826Y-77180810D01*
X210109147Y-77214482D01*
X210179793Y-77294150D01*
X210229092Y-77478136D01*
X210207745Y-77582454D01*
X210174073Y-77640775D01*
X210094405Y-77711421D01*
X209910419Y-77760720D01*
X209806102Y-77739373D01*
X209747780Y-77705701D01*
X209677134Y-77626033D01*
%TO.C,D27*%
X192579009Y-85017498D02*
X191613083Y-85276317D01*
X191674706Y-85506299D01*
X191757677Y-85631964D01*
X191874319Y-85699307D01*
X191978637Y-85720654D01*
X192174948Y-85717352D01*
X192312937Y-85680378D01*
X192484598Y-85585082D01*
X192564266Y-85514437D01*
X192631610Y-85397794D01*
X192640632Y-85247480D01*
X192579009Y-85017498D01*
X191951570Y-86171597D02*
X191917898Y-86229918D01*
X191896551Y-86334236D01*
X191958175Y-86564218D01*
X192028821Y-86643886D01*
X192087142Y-86677558D01*
X192191460Y-86698905D01*
X192283453Y-86674255D01*
X192409117Y-86591285D01*
X192813178Y-85891431D01*
X192973400Y-86489385D01*
X192093747Y-87070179D02*
X192266293Y-87714130D01*
X193121296Y-87041342D01*
%TO.C,D20*%
X245954454Y-63986297D02*
X244988528Y-64245116D01*
X245050151Y-64475098D01*
X245133122Y-64600763D01*
X245249764Y-64668106D01*
X245354082Y-64689453D01*
X245550393Y-64686151D01*
X245688382Y-64649177D01*
X245860043Y-64553881D01*
X245939711Y-64483236D01*
X246007055Y-64366593D01*
X246016077Y-64216279D01*
X245954454Y-63986297D01*
X245327015Y-65140396D02*
X245293343Y-65198717D01*
X245271996Y-65303035D01*
X245333620Y-65533017D01*
X245404266Y-65612685D01*
X245462587Y-65646357D01*
X245566905Y-65667704D01*
X245658898Y-65643054D01*
X245784562Y-65560084D01*
X246188623Y-64860230D01*
X246348845Y-65458184D01*
X245543140Y-66314957D02*
X245567790Y-66406950D01*
X245638435Y-66486618D01*
X245696757Y-66520290D01*
X245801074Y-66541637D01*
X245997385Y-66538334D01*
X246227367Y-66476711D01*
X246399028Y-66381415D01*
X246478697Y-66310770D01*
X246512368Y-66252448D01*
X246533715Y-66148131D01*
X246509066Y-66056138D01*
X246438420Y-65976470D01*
X246380099Y-65942798D01*
X246275781Y-65921451D01*
X246079471Y-65924753D01*
X245849488Y-65986377D01*
X245677827Y-66081672D01*
X245598159Y-66152318D01*
X245564487Y-66210639D01*
X245543140Y-66314957D01*
%TO.C,D36*%
X161769040Y-129217629D02*
X160949888Y-129791205D01*
X161086453Y-129986241D01*
X161207400Y-130075950D01*
X161340041Y-130099338D01*
X161445369Y-130083719D01*
X161628711Y-130013474D01*
X161745732Y-129931534D01*
X161874448Y-129783274D01*
X161925150Y-129689641D01*
X161948538Y-129557000D01*
X161905605Y-129412665D01*
X161769040Y-129217629D01*
X161468838Y-130532343D02*
X161823909Y-131039437D01*
X161944775Y-130547881D01*
X162026714Y-130664903D01*
X162120348Y-130715604D01*
X162186668Y-130727298D01*
X162291996Y-130711679D01*
X162487032Y-130575113D01*
X162537733Y-130481480D01*
X162549427Y-130415159D01*
X162533808Y-130309832D01*
X162369929Y-130075788D01*
X162276296Y-130025087D01*
X162209975Y-130013393D01*
X162315546Y-131741567D02*
X162206293Y-131585538D01*
X162190674Y-131480211D01*
X162202368Y-131413890D01*
X162264763Y-131253936D01*
X162393479Y-131105676D01*
X162705537Y-130887171D01*
X162810865Y-130871552D01*
X162877185Y-130883246D01*
X162970819Y-130933947D01*
X163080071Y-131089976D01*
X163095691Y-131195304D01*
X163083996Y-131261624D01*
X163033295Y-131355258D01*
X162838259Y-131491824D01*
X162732931Y-131507443D01*
X162666611Y-131495749D01*
X162572977Y-131445047D01*
X162463725Y-131289019D01*
X162448106Y-131183691D01*
X162459800Y-131117370D01*
X162510501Y-131023737D01*
%TO.C,D38*%
X198790666Y-108199722D02*
X197824740Y-108458541D01*
X197886363Y-108688523D01*
X197969334Y-108814188D01*
X198085976Y-108881531D01*
X198190294Y-108902878D01*
X198386605Y-108899576D01*
X198524594Y-108862602D01*
X198696255Y-108767306D01*
X198775923Y-108696661D01*
X198843267Y-108580018D01*
X198852289Y-108429704D01*
X198790666Y-108199722D01*
X198058909Y-109332474D02*
X198219131Y-109930428D01*
X198500830Y-109509855D01*
X198537804Y-109647844D01*
X198608450Y-109727512D01*
X198666771Y-109761184D01*
X198771088Y-109782531D01*
X199001071Y-109720908D01*
X199080739Y-109650262D01*
X199114411Y-109591941D01*
X199135758Y-109487623D01*
X199061809Y-109211644D01*
X198991164Y-109131976D01*
X198932842Y-109098304D01*
X198780996Y-110371463D02*
X198710350Y-110291795D01*
X198652028Y-110258123D01*
X198547711Y-110236776D01*
X198501714Y-110249101D01*
X198422046Y-110319747D01*
X198388374Y-110378068D01*
X198367027Y-110482385D01*
X198416326Y-110666371D01*
X198486972Y-110746039D01*
X198545293Y-110779711D01*
X198649611Y-110801058D01*
X198695607Y-110788734D01*
X198775276Y-110718088D01*
X198808947Y-110659766D01*
X198830294Y-110555449D01*
X198780996Y-110371463D01*
X198802343Y-110267145D01*
X198836014Y-110208824D01*
X198915683Y-110138178D01*
X199099668Y-110088879D01*
X199203986Y-110110226D01*
X199262307Y-110143898D01*
X199332953Y-110223566D01*
X199382252Y-110407552D01*
X199360905Y-110511870D01*
X199327233Y-110570191D01*
X199247565Y-110640837D01*
X199063579Y-110690136D01*
X198959262Y-110668789D01*
X198900940Y-110635117D01*
X198830294Y-110555449D01*
%TO.C,D29*%
X229284192Y-75182374D02*
X228318266Y-75441193D01*
X228379889Y-75671175D01*
X228462860Y-75796840D01*
X228579502Y-75864183D01*
X228683820Y-75885530D01*
X228880131Y-75882228D01*
X229018120Y-75845254D01*
X229189781Y-75749958D01*
X229269449Y-75679313D01*
X229336793Y-75562670D01*
X229345815Y-75412356D01*
X229284192Y-75182374D01*
X228656753Y-76336473D02*
X228623081Y-76394794D01*
X228601734Y-76499112D01*
X228663358Y-76729094D01*
X228734004Y-76808762D01*
X228792325Y-76842434D01*
X228896643Y-76863781D01*
X228988636Y-76839131D01*
X229114300Y-76756161D01*
X229518361Y-76056307D01*
X229678583Y-76654261D01*
X229801830Y-77114225D02*
X229851129Y-77298211D01*
X229829782Y-77402529D01*
X229796110Y-77460850D01*
X229682770Y-77589817D01*
X229511109Y-77685113D01*
X229143137Y-77783710D01*
X229038819Y-77762363D01*
X228980498Y-77728691D01*
X228909852Y-77649023D01*
X228860553Y-77465037D01*
X228881900Y-77360720D01*
X228915572Y-77302399D01*
X228995240Y-77231753D01*
X229225223Y-77170129D01*
X229329540Y-77191476D01*
X229387862Y-77225148D01*
X229458507Y-77304816D01*
X229507806Y-77488802D01*
X229486459Y-77593120D01*
X229452788Y-77651441D01*
X229373119Y-77722087D01*
%TO.C,D30*%
X250872017Y-82338882D02*
X249906091Y-82597701D01*
X249967714Y-82827683D01*
X250050685Y-82953348D01*
X250167327Y-83020691D01*
X250271645Y-83042038D01*
X250467956Y-83038736D01*
X250605945Y-83001762D01*
X250777606Y-82906466D01*
X250857274Y-82835821D01*
X250924618Y-82719178D01*
X250933640Y-82568864D01*
X250872017Y-82338882D01*
X250140260Y-83471634D02*
X250300482Y-84069588D01*
X250582181Y-83649015D01*
X250619155Y-83787004D01*
X250689801Y-83866672D01*
X250748122Y-83900344D01*
X250852439Y-83921691D01*
X251082422Y-83860068D01*
X251162090Y-83789422D01*
X251195762Y-83731101D01*
X251217109Y-83626783D01*
X251143160Y-83350804D01*
X251072515Y-83271136D01*
X251014193Y-83237464D01*
X250460703Y-84667542D02*
X250485353Y-84759535D01*
X250555998Y-84839203D01*
X250614320Y-84872875D01*
X250718637Y-84894222D01*
X250914948Y-84890919D01*
X251144930Y-84829296D01*
X251316591Y-84734000D01*
X251396260Y-84663355D01*
X251429931Y-84605033D01*
X251451278Y-84500716D01*
X251426629Y-84408723D01*
X251355983Y-84329055D01*
X251297662Y-84295383D01*
X251193344Y-84274036D01*
X250997034Y-84277338D01*
X250767051Y-84338962D01*
X250595390Y-84434257D01*
X250515722Y-84504903D01*
X250482050Y-84563224D01*
X250460703Y-84667542D01*
%TO.C,D37*%
X179360433Y-117089185D02*
X178454125Y-117511804D01*
X178554748Y-117727591D01*
X178658280Y-117836939D01*
X178784844Y-117883005D01*
X178891284Y-117885913D01*
X179084039Y-117848572D01*
X179213511Y-117788198D01*
X179366016Y-117664541D01*
X179432207Y-117581135D01*
X179478272Y-117454570D01*
X179461056Y-117304973D01*
X179360433Y-117089185D01*
X178836494Y-118331796D02*
X179098115Y-118892844D01*
X179302502Y-118429744D01*
X179362876Y-118559217D01*
X179446283Y-118625407D01*
X179509565Y-118648440D01*
X179616005Y-118651348D01*
X179831792Y-118550725D01*
X179897983Y-118467318D01*
X179921015Y-118404036D01*
X179923924Y-118297596D01*
X179803176Y-118038651D01*
X179719769Y-117972460D01*
X179656486Y-117949428D01*
X179238987Y-119194947D02*
X179520733Y-119799152D01*
X180245918Y-118988116D01*
D11*
%TO.C,H1*%
X148874790Y-125877420D02*
X148888901Y-125593787D01*
X150029067Y-134022330D02*
X150029067Y-134022330D01*
X150316951Y-124167161D02*
X150053514Y-124549550D01*
X151005579Y-134996013D02*
X151266722Y-134676039D01*
X148186304Y-123630316D02*
X147713450Y-123381938D01*
X150029067Y-134022330D02*
X149811800Y-134163617D01*
X151565171Y-133161324D02*
X151453253Y-132782645D01*
X150508862Y-123955495D02*
X150316951Y-124167161D01*
X147556036Y-133942163D02*
X147667955Y-134320842D01*
X144023310Y-125365914D02*
X143971187Y-125899975D01*
X152429387Y-129743865D02*
X153376242Y-130690720D01*
X151602477Y-133551743D02*
X151565171Y-133161324D01*
X148115629Y-132107473D02*
X147854486Y-132427448D01*
X153668516Y-126411328D02*
X153377667Y-126846835D01*
X150173737Y-133302993D02*
X150222578Y-133552606D01*
X144176503Y-124859635D02*
X144023310Y-125365914D01*
X148584117Y-131638985D02*
X148115629Y-132107473D01*
X153376242Y-130690720D02*
X154351317Y-129715645D01*
X148435664Y-135257157D02*
X148791021Y-135443688D01*
X150027654Y-133083940D02*
X150173737Y-133302993D01*
X155095060Y-126434065D02*
X155147182Y-125900005D01*
X147194296Y-124659433D02*
X147637252Y-124953120D01*
X150070889Y-127262961D02*
X150496162Y-127813471D01*
X153377664Y-124951710D02*
X153668529Y-125385979D01*
X146688987Y-127793685D02*
X145742132Y-126846830D01*
X147854486Y-132427448D02*
X147667955Y-132782645D01*
X149860457Y-124967790D02*
X149741483Y-125414340D01*
X152945604Y-123225244D02*
X152427795Y-123174444D01*
X151909656Y-123222069D02*
X151406747Y-123368119D01*
X149157012Y-127277240D02*
X148945522Y-126596909D01*
X152430812Y-127793690D02*
X151474077Y-126836955D01*
X150222578Y-133552606D02*
X150174311Y-133802483D01*
X151565171Y-133942163D02*
X151602477Y-133551743D01*
X147854486Y-134676039D02*
X148115629Y-134996013D01*
X154351317Y-129715645D02*
X153404462Y-128768790D01*
X149559166Y-132615451D02*
X150027654Y-133083940D01*
X144426004Y-124393044D02*
X144176503Y-124859635D01*
X145451267Y-125386860D02*
X145742132Y-124953120D01*
X151081789Y-125884455D02*
X151162222Y-125438544D01*
X151386589Y-125047665D02*
X151479722Y-124936187D01*
X147667955Y-134320842D02*
X147854486Y-134676039D01*
X146689692Y-124561537D02*
X147194296Y-124659433D01*
X146170005Y-123232912D02*
X145665930Y-123381938D01*
X149090677Y-134022330D02*
X148945421Y-133803079D01*
X148945421Y-133803079D02*
X148897003Y-133553135D01*
X151452897Y-128770206D02*
X149559167Y-130663885D01*
X148791021Y-135443688D02*
X149169926Y-135555607D01*
X153377667Y-126846835D02*
X152430812Y-127793690D01*
X145451267Y-126412560D02*
X145349844Y-125899975D01*
X149811800Y-134163617D02*
X149559873Y-134210713D01*
X153769953Y-125898565D02*
X153668516Y-126411328D01*
X154692365Y-127406936D02*
X154941867Y-126940344D01*
X153377667Y-126846835D02*
X153377667Y-126846835D01*
X149560604Y-135592913D02*
X149951084Y-135555607D01*
X145349844Y-125899975D02*
X145451267Y-125386860D01*
X144426005Y-127407503D02*
X144767052Y-127821905D01*
X151266722Y-132427448D02*
X151005579Y-132107473D01*
X151406747Y-123368119D02*
X150934629Y-123612594D01*
X147665467Y-128768785D02*
X149157012Y-127277240D01*
X154341437Y-123968195D02*
X153917985Y-123622120D01*
X154940631Y-124857900D02*
X154688196Y-124388308D01*
X147667955Y-132782645D02*
X147556036Y-133161324D01*
X149090677Y-133083940D02*
X149559166Y-132615451D01*
X148945421Y-133303192D02*
X149090677Y-133083940D01*
X148945522Y-126596909D02*
X148874790Y-125877420D01*
X147209375Y-123232912D02*
X146689689Y-123183236D01*
X143971187Y-125899975D02*
X144023310Y-126434234D01*
X149559873Y-134210713D02*
X149307945Y-134163617D01*
X152926815Y-124652025D02*
X153377664Y-124951710D01*
X154941867Y-126940344D02*
X155095060Y-126434065D01*
X147637252Y-124953120D02*
X148612327Y-123978045D01*
X144767052Y-123978045D02*
X144426004Y-124393044D01*
X148612327Y-123978045D02*
X148186304Y-123630316D01*
X153917985Y-123622120D02*
X153447520Y-123374470D01*
X149803307Y-126630961D02*
X150070889Y-127262961D01*
X151919460Y-124648145D02*
X152416699Y-124552366D01*
X149169926Y-135555607D02*
X149560604Y-135592913D01*
X153404462Y-128768790D02*
X154351317Y-127821935D01*
X146689689Y-123183236D02*
X146170005Y-123232912D01*
X151482544Y-124933365D02*
X151919460Y-124648145D01*
X146185088Y-124659433D02*
X146689692Y-124561537D01*
X150684950Y-135257157D02*
X151005579Y-134996013D01*
X151453253Y-134320842D02*
X151565171Y-133942163D01*
X152427795Y-123174444D02*
X151909656Y-123222069D01*
X151266722Y-134676039D02*
X151453253Y-134320842D01*
X151474077Y-126836955D02*
X151182154Y-126400393D01*
X149559167Y-130663885D02*
X147665467Y-128768785D01*
X149741483Y-125414340D02*
X149700296Y-125881661D01*
X149951084Y-135555607D02*
X150329659Y-135443688D01*
X149700296Y-125881661D02*
X149803307Y-126630961D01*
X154351317Y-127821935D02*
X154692365Y-127406936D01*
X148888901Y-125593787D02*
X146688987Y-127793685D01*
X155094905Y-125365591D02*
X154940631Y-124857900D01*
X150534267Y-131638985D02*
X152429387Y-129743865D01*
X148897003Y-133553135D02*
X148945421Y-133303192D01*
X151479722Y-124936187D02*
X151482544Y-124933365D01*
X150053514Y-124549550D02*
X149860457Y-124967790D01*
X147713450Y-123381938D02*
X147209375Y-123232912D01*
X151453253Y-132782645D02*
X151266722Y-132427448D01*
X154688196Y-124388308D02*
X154341437Y-123968195D01*
X150934629Y-123612594D02*
X150508862Y-123955495D01*
X145665930Y-123381938D02*
X145193076Y-123630316D01*
X144023310Y-126434234D02*
X144176504Y-126940845D01*
X144176504Y-126940845D02*
X144426005Y-127407503D01*
X148115629Y-134996013D02*
X148435664Y-135257157D01*
X145742132Y-124953120D02*
X146185088Y-124659433D01*
X151162222Y-125438544D02*
X151386589Y-125047665D01*
X144767052Y-127821905D02*
X148584117Y-131638985D01*
X151005579Y-132107473D02*
X150534267Y-131638985D01*
X152416699Y-124552366D02*
X152926815Y-124652025D01*
X145742132Y-126846830D02*
X145451267Y-126412560D01*
X149307945Y-134163617D02*
X149090677Y-134022330D01*
X147556036Y-133161324D02*
X147518730Y-133551743D01*
X149559167Y-130663885D02*
X149559167Y-130663885D01*
X147518730Y-133551743D02*
X147556036Y-133942163D01*
X150329659Y-135443688D02*
X150684950Y-135257157D01*
X150496162Y-127813471D02*
X151452897Y-128770206D01*
X153447520Y-123374470D02*
X152945604Y-123225244D01*
X145193076Y-123630316D02*
X144767052Y-123978045D01*
X151182154Y-126400393D02*
X151081789Y-125884455D01*
X150174311Y-133802483D02*
X150029067Y-134022330D01*
X153668529Y-125385979D02*
X153769953Y-125898565D01*
X155147182Y-125900005D02*
X155094905Y-125365591D01*
D10*
%TO.C,SW22*%
X64231015Y-76458418D02*
X64599033Y-76557028D01*
X60502080Y-82033256D02*
X51915000Y-79732355D01*
X59121012Y-78262318D02*
X56706198Y-77615271D01*
X64500423Y-76925046D02*
X64599033Y-76557028D01*
X50263595Y-78477171D02*
X54610261Y-79641857D01*
X59474566Y-78874691D02*
X59121012Y-78262318D01*
X50418887Y-77897615D02*
X50263595Y-78477171D01*
X53065450Y-75438815D02*
X57972354Y-76753616D01*
X55826711Y-75102005D02*
X51480045Y-73937319D01*
X52802490Y-76420195D02*
X53065450Y-75438815D01*
X63612932Y-80237205D02*
X63711542Y-79869187D01*
X51480045Y-73937319D02*
X51350635Y-74420282D01*
X54963815Y-80254229D02*
X54704996Y-81220155D01*
X57956327Y-82608984D02*
X55058549Y-81832527D01*
X60845602Y-75551299D02*
X62513599Y-75998238D01*
X58568699Y-82255431D02*
X57956327Y-82608984D01*
X51915000Y-79732355D02*
X52013610Y-79364337D01*
X55645538Y-75778153D02*
X55826711Y-75102005D01*
X55058549Y-81832527D02*
X54704996Y-81220155D01*
X60502080Y-82033255D02*
G75*
G03*
X63612932Y-80237205I657401J2453450D01*
G01*
X57972354Y-76753616D02*
G75*
G03*
X60850509Y-75532985I657399J2453454D01*
G01*
X55645537Y-75778153D02*
G75*
G03*
X56706198Y-77615271I1448892J-388227D01*
G01*
X54963814Y-80254229D02*
G75*
G03*
X54610261Y-79641857I-482963J129409D01*
G01*
%TO.C,SW33*%
X94724539Y-109475754D02*
X95092557Y-109574364D01*
X86320235Y-108119341D02*
X81973569Y-106954655D01*
X89614536Y-111279654D02*
X87199722Y-110632607D01*
X89968090Y-111892027D02*
X89614536Y-111279654D01*
X83296014Y-109437531D02*
X83558974Y-108456151D01*
X80912411Y-110914951D02*
X80757119Y-111494507D01*
X86139062Y-108795489D02*
X86320235Y-108119341D01*
X85457339Y-113271565D02*
X85198520Y-114237491D01*
X94106456Y-113254541D02*
X94205066Y-112886523D01*
X80757119Y-111494507D02*
X85103785Y-112659193D01*
X82408524Y-112749691D02*
X82507134Y-112381673D01*
X83558974Y-108456151D02*
X88465878Y-109770952D01*
X85552073Y-114849863D02*
X85198520Y-114237491D01*
X89062223Y-115272767D02*
X88449851Y-115626320D01*
X90995604Y-115050592D02*
X82408524Y-112749691D01*
X91339126Y-108568635D02*
X93007123Y-109015574D01*
X94993947Y-109942382D02*
X95092557Y-109574364D01*
X88449851Y-115626320D02*
X85552073Y-114849863D01*
X81973569Y-106954655D02*
X81844159Y-107437618D01*
X86139061Y-108795489D02*
G75*
G03*
X87199722Y-110632607I1448892J-388227D01*
G01*
X88465878Y-109770952D02*
G75*
G03*
X91344033Y-108550321I657399J2453454D01*
G01*
X85457338Y-113271565D02*
G75*
G03*
X85103785Y-112659193I-482963J129409D01*
G01*
X90995604Y-115050591D02*
G75*
G03*
X94106456Y-113254541I657401J2453450D01*
G01*
%TO.C,SW23*%
X72449167Y-76508123D02*
X72712127Y-75526743D01*
X80492279Y-75639227D02*
X82160276Y-76086166D01*
X80148757Y-82121184D02*
X71561677Y-79820283D01*
X74610492Y-80342157D02*
X74351673Y-81308083D01*
X69910272Y-78565099D02*
X74256938Y-79729785D01*
X79121243Y-78962619D02*
X78767689Y-78350246D01*
X78215376Y-82343359D02*
X77603004Y-82696912D01*
X83259609Y-80325133D02*
X83358219Y-79957115D01*
X77603004Y-82696912D02*
X74705226Y-81920455D01*
X75473388Y-75189933D02*
X71126722Y-74025247D01*
X72712127Y-75526743D02*
X77619031Y-76841544D01*
X71126722Y-74025247D02*
X70997312Y-74508210D01*
X70065564Y-77985543D02*
X69910272Y-78565099D01*
X74705226Y-81920455D02*
X74351673Y-81308083D01*
X83877692Y-76546346D02*
X84245710Y-76644956D01*
X78767689Y-78350246D02*
X76352875Y-77703199D01*
X84147100Y-77012974D02*
X84245710Y-76644956D01*
X75292215Y-75866081D02*
X75473388Y-75189933D01*
X71561677Y-79820283D02*
X71660287Y-79452265D01*
X80148757Y-82121183D02*
G75*
G03*
X83259609Y-80325133I657401J2453450D01*
G01*
X75292214Y-75866081D02*
G75*
G03*
X76352875Y-77703199I1448892J-388227D01*
G01*
X77619031Y-76841544D02*
G75*
G03*
X80497186Y-75620913I657399J2453454D01*
G01*
X74610491Y-80342157D02*
G75*
G03*
X74256938Y-79729785I-482963J129409D01*
G01*
%TO.C,SW35*%
X121562088Y-129341095D02*
X120988511Y-130160247D01*
X131662216Y-129474398D02*
X131880748Y-129162301D01*
X124265120Y-132454553D02*
X123568755Y-132577340D01*
X117753116Y-126063637D02*
X121439300Y-128644731D01*
X118097262Y-125572145D02*
X117753116Y-126063637D01*
X131568652Y-128943768D02*
X131880748Y-129162301D01*
X121425177Y-124166807D02*
X125586470Y-127080575D01*
X123733606Y-125368122D02*
X124135109Y-124794716D01*
X126149849Y-128891156D02*
X124101969Y-127457215D01*
X120842424Y-124999065D02*
X121425177Y-124166807D01*
X129695422Y-132283270D02*
X129913955Y-131971173D01*
X128697656Y-126933476D02*
X130112199Y-127923949D01*
X126157892Y-132907032D02*
X118875630Y-127807938D01*
X121111299Y-130856611D02*
X120988511Y-130160247D01*
X123568755Y-132577340D02*
X121111299Y-130856611D01*
X124135109Y-124794716D02*
X120448925Y-122213622D01*
X118875630Y-127807938D02*
X119094163Y-127495841D01*
X126272637Y-129587520D02*
X126149849Y-128891156D01*
X120448925Y-122213622D02*
X120162137Y-122623198D01*
X126157892Y-132907032D02*
G75*
G03*
X129695422Y-132283270I1456884J2080646D01*
G01*
X121562088Y-129341095D02*
G75*
G03*
X121439300Y-128644731I-409578J286788D01*
G01*
X123733606Y-125368122D02*
G75*
G03*
X124101969Y-127457215I1228729J-860365D01*
G01*
X125586470Y-127080575D02*
G75*
G03*
X128708531Y-126917945I1456884J2080649D01*
G01*
%TO.C,SW25*%
X113885292Y-96042187D02*
X113531738Y-95429814D01*
X107476176Y-92606311D02*
X112383080Y-93921112D01*
X104829613Y-95065111D02*
X104674321Y-95644667D01*
X109469275Y-99000023D02*
X109115722Y-98387651D01*
X109374541Y-97421725D02*
X109115722Y-98387651D01*
X106325726Y-96899851D02*
X106424336Y-96531833D01*
X118023658Y-97404701D02*
X118122268Y-97036683D01*
X118911149Y-94092542D02*
X119009759Y-93724524D01*
X110056264Y-92945649D02*
X110237437Y-92269501D01*
X114912806Y-99200752D02*
X106325726Y-96899851D01*
X115256328Y-92718795D02*
X116924325Y-93165734D01*
X107213216Y-93587691D02*
X107476176Y-92606311D01*
X112367053Y-99776480D02*
X109469275Y-99000023D01*
X112979425Y-99422927D02*
X112367053Y-99776480D01*
X113531738Y-95429814D02*
X111116924Y-94782767D01*
X118641741Y-93625914D02*
X119009759Y-93724524D01*
X110237437Y-92269501D02*
X105890771Y-91104815D01*
X105890771Y-91104815D02*
X105761361Y-91587778D01*
X104674321Y-95644667D02*
X109020987Y-96809353D01*
X110056263Y-92945649D02*
G75*
G03*
X111116924Y-94782767I1448892J-388227D01*
G01*
X114912806Y-99200751D02*
G75*
G03*
X118023658Y-97404701I657401J2453450D01*
G01*
X109374540Y-97421725D02*
G75*
G03*
X109020987Y-96809353I-482963J129409D01*
G01*
X112383080Y-93921112D02*
G75*
G03*
X115261235Y-92700481I657399J2453454D01*
G01*
%TO.C,SW21*%
X33470721Y-88989034D02*
X33117168Y-88376662D01*
X34238883Y-82258512D02*
X29892217Y-81093826D01*
X30327172Y-86888862D02*
X30425782Y-86520844D01*
X37886738Y-86031198D02*
X37533184Y-85418825D01*
X28675767Y-85633678D02*
X33022433Y-86798364D01*
X28831059Y-85054122D02*
X28675767Y-85633678D01*
X42643187Y-83614925D02*
X43011205Y-83713535D01*
X36368499Y-89765491D02*
X33470721Y-88989034D01*
X31477622Y-82595322D02*
X36384526Y-83910123D01*
X38914252Y-89189763D02*
X30327172Y-86888862D01*
X37533184Y-85418825D02*
X35118370Y-84771778D01*
X36980871Y-89411938D02*
X36368499Y-89765491D01*
X31214662Y-83576702D02*
X31477622Y-82595322D01*
X42025104Y-87393712D02*
X42123714Y-87025694D01*
X34057710Y-82934660D02*
X34238883Y-82258512D01*
X42912595Y-84081553D02*
X43011205Y-83713535D01*
X39257774Y-82707806D02*
X40925771Y-83154745D01*
X29892217Y-81093826D02*
X29762807Y-81576789D01*
X33375987Y-87410736D02*
X33117168Y-88376662D01*
X38914252Y-89189762D02*
G75*
G03*
X42025104Y-87393712I657401J2453450D01*
G01*
X33375986Y-87410736D02*
G75*
G03*
X33022433Y-86798364I-482963J129409D01*
G01*
X36384526Y-83910123D02*
G75*
G03*
X39262681Y-82689492I657399J2453454D01*
G01*
X34057709Y-82934660D02*
G75*
G03*
X35118370Y-84771778I1448892J-388227D01*
G01*
%TO.C,SW14*%
X92041630Y-69380145D02*
X91886338Y-69959701D01*
X100191442Y-73737961D02*
X99579070Y-74091514D01*
X97449454Y-66584535D02*
X93102788Y-65419849D01*
X96681292Y-73315057D02*
X96327739Y-72702685D01*
X102468345Y-67033829D02*
X104136342Y-67480768D01*
X93537743Y-71214885D02*
X93636353Y-70846867D01*
X101097309Y-70357221D02*
X100743755Y-69744848D01*
X93102788Y-65419849D02*
X92973378Y-65902812D01*
X105235675Y-71719735D02*
X105334285Y-71351717D01*
X96586558Y-71736759D02*
X96327739Y-72702685D01*
X99579070Y-74091514D02*
X96681292Y-73315057D01*
X100743755Y-69744848D02*
X98328941Y-69097801D01*
X94688193Y-66921345D02*
X99595097Y-68236146D01*
X106123166Y-68407576D02*
X106221776Y-68039558D01*
X94425233Y-67902725D02*
X94688193Y-66921345D01*
X105853758Y-67940948D02*
X106221776Y-68039558D01*
X91886338Y-69959701D02*
X96233004Y-71124387D01*
X102124823Y-73515786D02*
X93537743Y-71214885D01*
X97268281Y-67260683D02*
X97449454Y-66584535D01*
X99595097Y-68236146D02*
G75*
G03*
X102473252Y-67015515I657399J2453454D01*
G01*
X97268280Y-67260683D02*
G75*
G03*
X98328941Y-69097801I1448892J-388227D01*
G01*
X96586557Y-71736759D02*
G75*
G03*
X96233004Y-71124387I-482963J129409D01*
G01*
X102124823Y-73515785D02*
G75*
G03*
X105235675Y-71719735I657401J2453450D01*
G01*
%TO.C,SW34*%
X104031889Y-121297724D02*
X103790044Y-120633261D01*
X110821747Y-116116833D02*
X112386793Y-116846627D01*
X114182494Y-118104363D02*
X114343512Y-117759059D01*
X100146003Y-116616924D02*
X99892432Y-117160708D01*
X108652594Y-118487194D02*
X106386825Y-117430649D01*
X107415275Y-122323734D02*
X106750812Y-122565579D01*
X101300788Y-118683587D02*
X101461805Y-118338284D01*
X104212662Y-119726954D02*
X103790044Y-120633261D01*
X112733336Y-121212092D02*
X112894354Y-120866789D01*
X101878738Y-112901062D02*
X101667429Y-113354216D01*
X106750812Y-122565579D02*
X104031889Y-121297724D01*
X105957123Y-114802844D02*
X101878738Y-112901062D01*
X113998209Y-117598042D02*
X114343512Y-117759059D01*
X109357864Y-122440663D02*
X101300788Y-118683587D01*
X103179326Y-114655049D02*
X107783370Y-116801950D01*
X105661290Y-115437259D02*
X105957123Y-114802844D01*
X102749946Y-115575858D02*
X103179326Y-114655049D01*
X99892432Y-117160708D02*
X103970817Y-119062491D01*
X108894439Y-119151657D02*
X108652594Y-118487194D01*
X109357864Y-122440664D02*
G75*
G03*
X112733336Y-121212092I1073450J2302022D01*
G01*
X105661291Y-115437259D02*
G75*
G03*
X106386825Y-117430649I1359464J-633927D01*
G01*
X104212661Y-119726954D02*
G75*
G03*
X103970817Y-119062491I-453154J211309D01*
G01*
X107783370Y-116801949D02*
G75*
G03*
X110829759Y-116099650I1073451J2302017D01*
G01*
%TO.C,SW24*%
X96179745Y-88709807D02*
X95826191Y-88097434D01*
X91763728Y-91667643D02*
X91410175Y-91055271D01*
X100318111Y-90072321D02*
X100416721Y-89704303D01*
X101205602Y-86760162D02*
X101304212Y-86392144D01*
X88620179Y-89567471D02*
X88718789Y-89199453D01*
X95273878Y-92090547D02*
X94661506Y-92444100D01*
X97207259Y-91868372D02*
X88620179Y-89567471D01*
X87124066Y-87732731D02*
X86968774Y-88312287D01*
X88185224Y-83772435D02*
X88055814Y-84255398D01*
X94661506Y-92444100D02*
X91763728Y-91667643D01*
X95826191Y-88097434D02*
X93411377Y-87450387D01*
X97550781Y-85386415D02*
X99218778Y-85833354D01*
X92350717Y-85613269D02*
X92531890Y-84937121D01*
X89770629Y-85273931D02*
X94677533Y-86588732D01*
X92531890Y-84937121D02*
X88185224Y-83772435D01*
X89507669Y-86255311D02*
X89770629Y-85273931D01*
X91668994Y-90089345D02*
X91410175Y-91055271D01*
X86968774Y-88312287D02*
X91315440Y-89476973D01*
X100936194Y-86293534D02*
X101304212Y-86392144D01*
X97207259Y-91868371D02*
G75*
G03*
X100318111Y-90072321I657401J2453450D01*
G01*
X94677533Y-86588732D02*
G75*
G03*
X97555688Y-85368101I657399J2453454D01*
G01*
X92350716Y-85613269D02*
G75*
G03*
X93411377Y-87450387I1448892J-388227D01*
G01*
X91668993Y-90089345D02*
G75*
G03*
X91315440Y-89476973I-482963J129409D01*
G01*
%TO.C,SW12*%
X68530492Y-61884610D02*
X68629102Y-61516592D01*
X56832560Y-61379760D02*
X56931170Y-61011742D01*
X56397605Y-55584724D02*
X56268195Y-56067687D01*
X65419640Y-63680661D02*
X56832560Y-61379760D01*
X59881375Y-61901634D02*
X59622556Y-62867560D01*
X60744271Y-56749410D02*
X56397605Y-55584724D01*
X63486259Y-63902836D02*
X62873887Y-64256389D01*
X64392126Y-60522096D02*
X64038572Y-59909723D01*
X57720050Y-58067600D02*
X57983010Y-57086220D01*
X62873887Y-64256389D02*
X59976109Y-63479932D01*
X59976109Y-63479932D02*
X59622556Y-62867560D01*
X55336447Y-59545020D02*
X55181155Y-60124576D01*
X60563098Y-57425558D02*
X60744271Y-56749410D01*
X57983010Y-57086220D02*
X62889914Y-58401021D01*
X69417983Y-58572451D02*
X69516593Y-58204433D01*
X69148575Y-58105823D02*
X69516593Y-58204433D01*
X64038572Y-59909723D02*
X61623758Y-59262676D01*
X65763162Y-57198704D02*
X67431159Y-57645643D01*
X55181155Y-60124576D02*
X59527821Y-61289262D01*
X62889914Y-58401021D02*
G75*
G03*
X65768069Y-57180390I657399J2453454D01*
G01*
X65419640Y-63680660D02*
G75*
G03*
X68530492Y-61884610I657401J2453450D01*
G01*
X59881374Y-61901634D02*
G75*
G03*
X59527821Y-61289262I-482963J129409D01*
G01*
X60563097Y-57425558D02*
G75*
G03*
X61623758Y-59262676I1448892J-388227D01*
G01*
%TO.C,SW3*%
X81396807Y-43115098D02*
X81495417Y-42747080D01*
X85127345Y-39160896D02*
X85308518Y-38484748D01*
X93094739Y-43619948D02*
X93193349Y-43251930D01*
X89983887Y-45415999D02*
X81396807Y-43115098D01*
X84540356Y-45215270D02*
X84186803Y-44602898D01*
X87438134Y-45991727D02*
X84540356Y-45215270D01*
X88050506Y-45638174D02*
X87438134Y-45991727D01*
X79900694Y-41280358D02*
X79745402Y-41859914D01*
X85308518Y-38484748D02*
X80961852Y-37320062D01*
X90327409Y-38934042D02*
X91995406Y-39380981D01*
X93982230Y-40307789D02*
X94080840Y-39939771D01*
X88602819Y-41645061D02*
X86188005Y-40998014D01*
X88956373Y-42257434D02*
X88602819Y-41645061D01*
X84445622Y-43636972D02*
X84186803Y-44602898D01*
X80961852Y-37320062D02*
X80832442Y-37803025D01*
X79745402Y-41859914D02*
X84092068Y-43024600D01*
X82547257Y-38821558D02*
X87454161Y-40136359D01*
X82284297Y-39802938D02*
X82547257Y-38821558D01*
X93712822Y-39841161D02*
X94080840Y-39939771D01*
X84445621Y-43636972D02*
G75*
G03*
X84092068Y-43024600I-482963J129409D01*
G01*
X85127344Y-39160896D02*
G75*
G03*
X86188005Y-40998014I1448892J-388227D01*
G01*
X87454161Y-40136359D02*
G75*
G03*
X90332316Y-38915728I657399J2453454D01*
G01*
X89983887Y-45415998D02*
G75*
G03*
X93094739Y-43619948I657401J2453450D01*
G01*
%TO.C,SW15*%
X112393736Y-74253721D02*
X117300640Y-75568522D01*
X109591881Y-77292077D02*
X113938547Y-78456763D01*
X123559301Y-75273324D02*
X123927319Y-75371934D01*
X114973824Y-74593059D02*
X115154997Y-73916911D01*
X115154997Y-73916911D02*
X110808331Y-72752225D01*
X114386835Y-80647433D02*
X114033282Y-80035061D01*
X119830366Y-80848162D02*
X111243286Y-78547261D01*
X117284613Y-81423890D02*
X114386835Y-80647433D01*
X110808331Y-72752225D02*
X110678921Y-73235188D01*
X117896985Y-81070337D02*
X117284613Y-81423890D01*
X109747173Y-76712521D02*
X109591881Y-77292077D01*
X122941218Y-79052111D02*
X123039828Y-78684093D01*
X111243286Y-78547261D02*
X111341896Y-78179243D01*
X123828709Y-75739952D02*
X123927319Y-75371934D01*
X118802852Y-77689597D02*
X118449298Y-77077224D01*
X120173888Y-74366205D02*
X121841885Y-74813144D01*
X114292101Y-79069135D02*
X114033282Y-80035061D01*
X112130776Y-75235101D02*
X112393736Y-74253721D01*
X118449298Y-77077224D02*
X116034484Y-76430177D01*
X114292100Y-79069135D02*
G75*
G03*
X113938547Y-78456763I-482963J129409D01*
G01*
X119830366Y-80848161D02*
G75*
G03*
X122941218Y-79052111I657401J2453450D01*
G01*
X117300640Y-75568522D02*
G75*
G03*
X120178795Y-74347891I657399J2453454D01*
G01*
X114973823Y-74593059D02*
G75*
G03*
X116034484Y-76430177I1448892J-388227D01*
G01*
%TO.C,SW13*%
X89064665Y-58660378D02*
X89163275Y-58292360D01*
X74827837Y-60212503D02*
X79174503Y-61377189D01*
X76044287Y-55672651D02*
X75914877Y-56155614D01*
X85066322Y-63768588D02*
X76479242Y-61467687D01*
X77366732Y-58155527D02*
X77629692Y-57174147D01*
X83685254Y-59997650D02*
X81270440Y-59350603D01*
X79528057Y-61989561D02*
X79269238Y-62955487D01*
X83132941Y-63990763D02*
X82520569Y-64344316D01*
X80209780Y-57513485D02*
X80390953Y-56837337D01*
X80390953Y-56837337D02*
X76044287Y-55672651D01*
X84038808Y-60610023D02*
X83685254Y-59997650D01*
X88177174Y-61972537D02*
X88275784Y-61604519D01*
X74983129Y-59632947D02*
X74827837Y-60212503D01*
X85409844Y-57286631D02*
X87077841Y-57733570D01*
X82520569Y-64344316D02*
X79622791Y-63567859D01*
X88795257Y-58193750D02*
X89163275Y-58292360D01*
X79622791Y-63567859D02*
X79269238Y-62955487D01*
X77629692Y-57174147D02*
X82536596Y-58488948D01*
X76479242Y-61467687D02*
X76577852Y-61099669D01*
X80209779Y-57513485D02*
G75*
G03*
X81270440Y-59350603I1448892J-388227D01*
G01*
X79528056Y-61989561D02*
G75*
G03*
X79174503Y-61377189I-482963J129409D01*
G01*
X85066322Y-63768587D02*
G75*
G03*
X88177174Y-61972537I657401J2453450D01*
G01*
X82536596Y-58488948D02*
G75*
G03*
X85414751Y-57268317I657399J2453454D01*
G01*
%TO.C,SW2*%
X67791449Y-45903807D02*
X64893671Y-45127350D01*
X68403821Y-45550254D02*
X67791449Y-45903807D01*
X70337202Y-45328079D02*
X61750122Y-43027178D01*
X61750122Y-43027178D02*
X61848732Y-42659160D01*
X61315167Y-37232142D02*
X61185757Y-37715105D01*
X74066137Y-39753241D02*
X74434155Y-39851851D01*
X60098717Y-41771994D02*
X64445383Y-42936680D01*
X60254009Y-41192438D02*
X60098717Y-41771994D01*
X62900572Y-38733638D02*
X67807476Y-40048439D01*
X73448054Y-43532028D02*
X73546664Y-43164010D01*
X70680724Y-38846122D02*
X72348721Y-39293061D01*
X64798937Y-43549052D02*
X64540118Y-44514978D01*
X68956134Y-41557141D02*
X66541320Y-40910094D01*
X65480660Y-39072976D02*
X65661833Y-38396828D01*
X62637612Y-39715018D02*
X62900572Y-38733638D01*
X64893671Y-45127350D02*
X64540118Y-44514978D01*
X69309688Y-42169514D02*
X68956134Y-41557141D01*
X74335545Y-40219869D02*
X74434155Y-39851851D01*
X65661833Y-38396828D02*
X61315167Y-37232142D01*
X65480659Y-39072976D02*
G75*
G03*
X66541320Y-40910094I1448892J-388227D01*
G01*
X67807476Y-40048439D02*
G75*
G03*
X70685631Y-38827808I657399J2453454D01*
G01*
X70337202Y-45328078D02*
G75*
G03*
X73448054Y-43532028I657401J2453450D01*
G01*
X64798936Y-43549052D02*
G75*
G03*
X64445383Y-42936680I-482963J129409D01*
G01*
%TO.C,SW11*%
X46942667Y-69041119D02*
X47041277Y-68673101D01*
X42804301Y-67678605D02*
X42450747Y-67066232D01*
X39156446Y-63905919D02*
X34809780Y-62741233D01*
X38388284Y-70636441D02*
X38034731Y-70024069D01*
X35244735Y-68536269D02*
X35343345Y-68168251D01*
X47560750Y-65262332D02*
X47928768Y-65360942D01*
X33593330Y-67281085D02*
X37939996Y-68445771D01*
X34809780Y-62741233D02*
X34680370Y-63224196D01*
X41898434Y-71059345D02*
X41286062Y-71412898D01*
X47830158Y-65728960D02*
X47928768Y-65360942D01*
X38293550Y-69058143D02*
X38034731Y-70024069D01*
X38975273Y-64582067D02*
X39156446Y-63905919D01*
X36395185Y-64242729D02*
X41302089Y-65557530D01*
X41286062Y-71412898D02*
X38388284Y-70636441D01*
X33748622Y-66701529D02*
X33593330Y-67281085D01*
X42450747Y-67066232D02*
X40035933Y-66419185D01*
X44175337Y-64355213D02*
X45843334Y-64802152D01*
X36132225Y-65224109D02*
X36395185Y-64242729D01*
X43831815Y-70837170D02*
X35244735Y-68536269D01*
X41302089Y-65557530D02*
G75*
G03*
X44180244Y-64336899I657399J2453454D01*
G01*
X38293549Y-69058143D02*
G75*
G03*
X37939996Y-68445771I-482963J129409D01*
G01*
X38975272Y-64582067D02*
G75*
G03*
X40035933Y-66419185I1448892J-388227D01*
G01*
X43831815Y-70837169D02*
G75*
G03*
X46942667Y-69041119I657401J2453450D01*
G01*
%TO.C,SW36*%
X176710107Y-130858880D02*
X174252651Y-132579609D01*
X172982710Y-131637670D02*
X173556286Y-132456822D01*
X176832895Y-130162516D02*
X176710107Y-130858880D01*
X170623191Y-133637743D02*
X170404658Y-133325646D01*
X176031792Y-122098682D02*
X176343889Y-121880149D01*
X165904352Y-130245961D02*
X166191141Y-130655537D01*
X178529215Y-125001118D02*
X178310682Y-124689022D01*
X176562421Y-122192246D02*
X176343889Y-121880149D01*
X168600162Y-134095976D02*
X172286346Y-131514882D01*
X173160796Y-124108974D02*
X174575339Y-123118501D01*
X174129013Y-127172696D02*
X172081133Y-128606637D01*
X168073644Y-129996612D02*
X172234936Y-127082844D01*
X174252651Y-132579609D02*
X173556286Y-132456822D01*
X168656397Y-130828871D02*
X168073644Y-129996612D01*
X174825377Y-127295484D02*
X174129013Y-127172696D01*
X169590537Y-127664867D02*
X165904352Y-130245961D01*
X168256016Y-133604485D02*
X168600162Y-134095976D01*
X177905453Y-128538649D02*
X170623191Y-133637743D01*
X169992040Y-128238274D02*
X169590537Y-127664867D01*
X172982710Y-131637670D02*
G75*
G03*
X172286346Y-131514882I-409576J-286789D01*
G01*
X177905453Y-128538649D02*
G75*
G03*
X178529215Y-125001118I-1456884J2080646D01*
G01*
X169992040Y-128238274D02*
G75*
G03*
X172081133Y-128606637I1228728J860366D01*
G01*
X172234936Y-127082844D02*
G75*
G03*
X173149921Y-124093443I-1456884J2080646D01*
G01*
%TO.C,SW29*%
X232818400Y-77563060D02*
X232947809Y-78046023D01*
X243116410Y-81222429D02*
X242762857Y-81834801D01*
X244679680Y-80063329D02*
X236092600Y-82364231D01*
X242762857Y-81834801D02*
X239865079Y-82611258D01*
X239865079Y-82611258D02*
X239252707Y-82257705D01*
X241598171Y-77488135D02*
X239183357Y-78135183D01*
X245121613Y-73370910D02*
X245489631Y-73272300D01*
X234942149Y-78070690D02*
X239849052Y-76755890D01*
X236092600Y-82364231D02*
X235993990Y-81996213D01*
X234034849Y-82102911D02*
X238381516Y-80938226D01*
X241736200Y-74278029D02*
X243404197Y-73831090D01*
X233879558Y-81523356D02*
X234034849Y-82102911D01*
X242210544Y-77841688D02*
X241598171Y-77488135D01*
X235205109Y-79052071D02*
X234942149Y-78070690D01*
X238993888Y-81291779D02*
X239252707Y-82257705D01*
X245588241Y-73640318D02*
X245489631Y-73272300D01*
X237346239Y-77074522D02*
X237165066Y-76398374D01*
X246475732Y-76952477D02*
X246377122Y-76584460D01*
X237165066Y-76398374D02*
X232818400Y-77563060D01*
X244679680Y-80063331D02*
G75*
G03*
X246475732Y-76952477I-657400J2453453D01*
G01*
X237346238Y-77074522D02*
G75*
G03*
X239183357Y-78135183I1448891J388231D01*
G01*
X239849052Y-76755890D02*
G75*
G03*
X241731293Y-74259715I-657400J2453452D01*
G01*
X238993888Y-81291779D02*
G75*
G03*
X238381516Y-80938226I-482964J-129411D01*
G01*
%TO.C,SW37*%
X187628578Y-117552621D02*
X187332745Y-116918205D01*
X183254360Y-118819988D02*
X183465669Y-119273141D01*
X191070595Y-122567849D02*
X190406132Y-122326004D01*
X185240666Y-123079634D02*
X189319051Y-121177852D01*
X189983514Y-121419697D02*
X190406132Y-122326004D01*
X185863374Y-119871929D02*
X185433994Y-118951121D01*
X195369608Y-119222582D02*
X187312532Y-122979659D01*
X195149022Y-112739381D02*
X194988004Y-112394077D01*
X187312532Y-122979659D02*
X187151514Y-122634355D01*
X191466239Y-114036304D02*
X193031286Y-113306510D01*
X187332745Y-116918205D02*
X183254360Y-118819988D01*
X196598180Y-115847110D02*
X196437162Y-115501807D01*
X191887736Y-117221609D02*
X189621967Y-118278155D01*
X193789518Y-121299994D02*
X191070595Y-122567849D01*
X194642701Y-112555095D02*
X194988004Y-112394077D01*
X185433994Y-118951121D02*
X190038037Y-116804220D01*
X192552199Y-117463454D02*
X191887736Y-117221609D01*
X184987095Y-122535849D02*
X185240666Y-123079634D01*
X194031363Y-120635531D02*
X193789518Y-121299994D01*
X189983514Y-121419697D02*
G75*
G03*
X189319051Y-121177852I-453155J-211310D01*
G01*
X190038037Y-116804220D02*
G75*
G03*
X191458226Y-114019120I-1073450J2302022D01*
G01*
X187628578Y-117552621D02*
G75*
G03*
X189621967Y-118278155I1359462J633929D01*
G01*
X195369608Y-119222583D02*
G75*
G03*
X196598180Y-115847110I-1073450J2302022D01*
G01*
%TO.C,SW38*%
X208500362Y-114309119D02*
X208759181Y-115275045D01*
X205599074Y-115381571D02*
X205500464Y-115013553D01*
X209371553Y-115628598D02*
X208759181Y-115275045D01*
X206852713Y-110091862D02*
X206671540Y-109415714D01*
X214628087Y-106388250D02*
X214996105Y-106289640D01*
X211242674Y-107295369D02*
X212910671Y-106848430D01*
X203541323Y-115120251D02*
X207887990Y-113955566D01*
X212269331Y-114852141D02*
X209371553Y-115628598D01*
X215094715Y-106657658D02*
X214996105Y-106289640D01*
X203386032Y-114540696D02*
X203541323Y-115120251D01*
X212622884Y-114239769D02*
X212269331Y-114852141D01*
X206671540Y-109415714D02*
X202324874Y-110580400D01*
X214186154Y-113080669D02*
X205599074Y-115381571D01*
X204448623Y-111088030D02*
X209355526Y-109773230D01*
X211717018Y-110859028D02*
X211104645Y-110505475D01*
X202324874Y-110580400D02*
X202454283Y-111063363D01*
X204711583Y-112069411D02*
X204448623Y-111088030D01*
X215982206Y-109969817D02*
X215883596Y-109601800D01*
X211104645Y-110505475D02*
X208689831Y-111152523D01*
X214186154Y-113080671D02*
G75*
G03*
X215982206Y-109969817I-657400J2453453D01*
G01*
X209355526Y-109773230D02*
G75*
G03*
X211237767Y-107277055I-657400J2453452D01*
G01*
X206852712Y-110091862D02*
G75*
G03*
X208689831Y-111152523I1448891J388231D01*
G01*
X208500362Y-114309119D02*
G75*
G03*
X207887990Y-113955566I-482964J-129411D01*
G01*
%TO.C,SW30*%
X266709444Y-80527422D02*
X267077462Y-80428812D01*
X255622680Y-89259423D02*
X259969347Y-88094738D01*
X254406231Y-84719572D02*
X254535640Y-85202535D01*
X255467389Y-88679868D02*
X255622680Y-89259423D01*
X267176072Y-80796830D02*
X267077462Y-80428812D01*
X256792940Y-86208583D02*
X256529980Y-85227202D01*
X266267511Y-87219841D02*
X257680431Y-89520743D01*
X260581719Y-88448291D02*
X260840538Y-89414217D01*
X257680431Y-89520743D02*
X257581821Y-89152725D01*
X264350688Y-88991313D02*
X261452910Y-89767770D01*
X268063563Y-84108989D02*
X267964953Y-83740972D01*
X263186002Y-84644647D02*
X260771188Y-85291695D01*
X261452910Y-89767770D02*
X260840538Y-89414217D01*
X264704241Y-88378941D02*
X264350688Y-88991313D01*
X263798375Y-84998200D02*
X263186002Y-84644647D01*
X258934070Y-84231034D02*
X258752897Y-83554886D01*
X258752897Y-83554886D02*
X254406231Y-84719572D01*
X256529980Y-85227202D02*
X261436883Y-83912402D01*
X263324031Y-81434541D02*
X264992028Y-80987602D01*
X261436883Y-83912402D02*
G75*
G03*
X263319124Y-81416227I-657400J2453452D01*
G01*
X260581719Y-88448291D02*
G75*
G03*
X259969347Y-88094738I-482964J-129411D01*
G01*
X258934069Y-84231034D02*
G75*
G03*
X260771188Y-85291695I1448891J388231D01*
G01*
X266267511Y-87219843D02*
G75*
G03*
X268063563Y-84108989I-657400J2453453D01*
G01*
%TO.C,SW26*%
X180794385Y-96219570D02*
X180531425Y-95238189D01*
X188352133Y-99002300D02*
X185454355Y-99778757D01*
X179624125Y-99270410D02*
X183970792Y-98105725D01*
X188705686Y-98389928D02*
X188352133Y-99002300D01*
X185454355Y-99778757D02*
X184841983Y-99425204D01*
X190268956Y-97230828D02*
X181681876Y-99531730D01*
X187325476Y-91445528D02*
X188993473Y-90998589D01*
X184583164Y-98459278D02*
X184841983Y-99425204D01*
X190710889Y-90538409D02*
X191078907Y-90439799D01*
X179468834Y-98690855D02*
X179624125Y-99270410D01*
X181681876Y-99531730D02*
X181583266Y-99163712D01*
X178407676Y-94730559D02*
X178537085Y-95213522D01*
X187799820Y-95009187D02*
X187187447Y-94655634D01*
X180531425Y-95238189D02*
X185438328Y-93923389D01*
X191177517Y-90807817D02*
X191078907Y-90439799D01*
X192065008Y-94119976D02*
X191966398Y-93751959D01*
X182754342Y-93565873D02*
X178407676Y-94730559D01*
X187187447Y-94655634D02*
X184772633Y-95302682D01*
X182935515Y-94242021D02*
X182754342Y-93565873D01*
X184583164Y-98459278D02*
G75*
G03*
X183970792Y-98105725I-482964J-129411D01*
G01*
X182935514Y-94242021D02*
G75*
G03*
X184772633Y-95302682I1448891J388231D01*
G01*
X190268956Y-97230830D02*
G75*
G03*
X192065008Y-94119976I-657400J2453453D01*
G01*
X185438328Y-93923389D02*
G75*
G03*
X187320569Y-91427214I-657400J2453452D01*
G01*
%TO.C,SW27*%
X198499930Y-88887192D02*
X198236970Y-87905811D01*
X197329670Y-91938032D02*
X201676337Y-90773347D01*
X200641060Y-86909643D02*
X200459887Y-86233495D01*
X207974501Y-89898450D02*
X199387421Y-92199352D01*
X205031021Y-84113150D02*
X206699018Y-83666211D01*
X205505365Y-87676809D02*
X204892992Y-87323256D01*
X206411231Y-91057550D02*
X206057678Y-91669922D01*
X204892992Y-87323256D02*
X202478178Y-87970304D01*
X202288709Y-91126900D02*
X202547528Y-92092826D01*
X197174379Y-91358477D02*
X197329670Y-91938032D01*
X209770553Y-86787598D02*
X209671943Y-86419581D01*
X206057678Y-91669922D02*
X203159900Y-92446379D01*
X208416434Y-83206031D02*
X208784452Y-83107421D01*
X198236970Y-87905811D02*
X203143873Y-86591011D01*
X208883062Y-83475439D02*
X208784452Y-83107421D01*
X203159900Y-92446379D02*
X202547528Y-92092826D01*
X200459887Y-86233495D02*
X196113221Y-87398181D01*
X196113221Y-87398181D02*
X196242630Y-87881144D01*
X199387421Y-92199352D02*
X199288811Y-91831334D01*
X207974501Y-89898452D02*
G75*
G03*
X209770553Y-86787598I-657400J2453453D01*
G01*
X200641059Y-86909643D02*
G75*
G03*
X202478178Y-87970304I1448891J388231D01*
G01*
X203143873Y-86591011D02*
G75*
G03*
X205026114Y-84094836I-657400J2453452D01*
G01*
X202288709Y-91126900D02*
G75*
G03*
X201676337Y-90773347I-482964J-129411D01*
G01*
%TO.C,SW28*%
X219347203Y-81379707D02*
X219606022Y-82345633D01*
X217699554Y-77162450D02*
X217518381Y-76486302D01*
X222563859Y-77929616D02*
X221951486Y-77576063D01*
X223116172Y-81922729D02*
X220218394Y-82699186D01*
X215558424Y-79139999D02*
X215295464Y-78158618D01*
X214388164Y-82190839D02*
X218734831Y-81026154D01*
X215295464Y-78158618D02*
X220202367Y-76843818D01*
X222089515Y-74365957D02*
X223757512Y-73919018D01*
X213171715Y-77650988D02*
X213301124Y-78133951D01*
X225474928Y-73458838D02*
X225842946Y-73360228D01*
X226829047Y-77040405D02*
X226730437Y-76672388D01*
X223469725Y-81310357D02*
X223116172Y-81922729D01*
X221951486Y-77576063D02*
X219536672Y-78223111D01*
X217518381Y-76486302D02*
X213171715Y-77650988D01*
X225941556Y-73728246D02*
X225842946Y-73360228D01*
X214232873Y-81611284D02*
X214388164Y-82190839D01*
X225032995Y-80151257D02*
X216445915Y-82452159D01*
X216445915Y-82452159D02*
X216347305Y-82084141D01*
X220218394Y-82699186D02*
X219606022Y-82345633D01*
X219347203Y-81379707D02*
G75*
G03*
X218734831Y-81026154I-482964J-129411D01*
G01*
X217699553Y-77162450D02*
G75*
G03*
X219536672Y-78223111I1448891J388231D01*
G01*
X225032995Y-80151259D02*
G75*
G03*
X226829047Y-77040405I-657400J2453453D01*
G01*
X220202367Y-76843818D02*
G75*
G03*
X222084608Y-74347643I-657400J2453452D01*
G01*
%TO.C,SW20*%
X251875369Y-67855989D02*
X251612409Y-66874608D01*
X250705109Y-70906829D02*
X255051776Y-69742144D01*
X259433117Y-70638719D02*
X256535339Y-71415176D01*
X255664148Y-70095697D02*
X255922967Y-71061623D01*
X262258501Y-62444236D02*
X262159891Y-62076218D01*
X251612409Y-66874608D02*
X256519312Y-65559808D01*
X252762860Y-71168149D02*
X252664250Y-70800131D01*
X261349940Y-68867247D02*
X252762860Y-71168149D01*
X258880804Y-66645606D02*
X258268431Y-66292053D01*
X263145992Y-65756395D02*
X263047382Y-65388378D01*
X253835326Y-65202292D02*
X249488660Y-66366978D01*
X256535339Y-71415176D02*
X255922967Y-71061623D01*
X250549818Y-70327274D02*
X250705109Y-70906829D01*
X261791873Y-62174828D02*
X262159891Y-62076218D01*
X249488660Y-66366978D02*
X249618069Y-66849941D01*
X258268431Y-66292053D02*
X255853617Y-66939101D01*
X254016499Y-65878440D02*
X253835326Y-65202292D01*
X258406460Y-63081947D02*
X260074457Y-62635008D01*
X259786670Y-70026347D02*
X259433117Y-70638719D01*
X261349940Y-68867249D02*
G75*
G03*
X263145992Y-65756395I-657400J2453453D01*
G01*
X255664148Y-70095697D02*
G75*
G03*
X255051776Y-69742144I-482964J-129411D01*
G01*
X256519312Y-65559808D02*
G75*
G03*
X258401553Y-63063633I-657400J2453452D01*
G01*
X254016498Y-65878440D02*
G75*
G03*
X255853617Y-66939101I1448891J388231D01*
G01*
%TO.C,SW9*%
X235753118Y-36935136D02*
X235654508Y-36567118D01*
X225107026Y-41365508D02*
X230013929Y-40050708D01*
X225369986Y-42346889D02*
X225107026Y-41365508D01*
X227511116Y-40369340D02*
X227329943Y-39693192D01*
X233281287Y-44517247D02*
X232927734Y-45129619D01*
X224044435Y-44818174D02*
X224199726Y-45397729D01*
X232927734Y-45129619D02*
X230029956Y-45906076D01*
X231763048Y-40782953D02*
X229348234Y-41430001D01*
X235286490Y-36665728D02*
X235654508Y-36567118D01*
X226257477Y-45659049D02*
X226158867Y-45291031D01*
X222983277Y-40857878D02*
X223112686Y-41340841D01*
X236640609Y-40247295D02*
X236541999Y-39879278D01*
X224199726Y-45397729D02*
X228546393Y-44233044D01*
X230029956Y-45906076D02*
X229417584Y-45552523D01*
X227329943Y-39693192D02*
X222983277Y-40857878D01*
X229158765Y-44586597D02*
X229417584Y-45552523D01*
X232375421Y-41136506D02*
X231763048Y-40782953D01*
X231901077Y-37572847D02*
X233569074Y-37125908D01*
X234844557Y-43358147D02*
X226257477Y-45659049D01*
X227511115Y-40369340D02*
G75*
G03*
X229348234Y-41430001I1448891J388231D01*
G01*
X229158765Y-44586597D02*
G75*
G03*
X228546393Y-44233044I-482964J-129411D01*
G01*
X234844557Y-43358149D02*
G75*
G03*
X236640609Y-40247295I-657400J2453453D01*
G01*
X230013929Y-40050708D02*
G75*
G03*
X231896170Y-37554533I-657400J2453452D01*
G01*
%TO.C,SW8*%
X206610788Y-45746984D02*
X206512178Y-45378966D01*
X215639801Y-36753663D02*
X216007819Y-36655053D01*
X209512076Y-44674532D02*
X209770895Y-45640458D01*
X215197868Y-43446082D02*
X206610788Y-45746984D01*
X207864427Y-40457275D02*
X207683254Y-39781127D01*
X213281045Y-45217554D02*
X210383267Y-45994011D01*
X204397746Y-44906109D02*
X204553037Y-45485664D01*
X207683254Y-39781127D02*
X203336588Y-40945813D01*
X205723297Y-42434824D02*
X205460337Y-41453443D01*
X203336588Y-40945813D02*
X203465997Y-41428776D01*
X213634598Y-44605182D02*
X213281045Y-45217554D01*
X204553037Y-45485664D02*
X208899704Y-44320979D01*
X205460337Y-41453443D02*
X210367240Y-40138643D01*
X212254388Y-37660782D02*
X213922385Y-37213843D01*
X216106429Y-37023071D02*
X216007819Y-36655053D01*
X212116359Y-40870888D02*
X209701545Y-41517936D01*
X210383267Y-45994011D02*
X209770895Y-45640458D01*
X212728732Y-41224441D02*
X212116359Y-40870888D01*
X216993920Y-40335230D02*
X216895310Y-39967213D01*
X209512076Y-44674532D02*
G75*
G03*
X208899704Y-44320979I-482964J-129411D01*
G01*
X215197868Y-43446084D02*
G75*
G03*
X216993920Y-40335230I-657400J2453453D01*
G01*
X207864426Y-40457275D02*
G75*
G03*
X209701545Y-41517936I1448891J388231D01*
G01*
X210367240Y-40138643D02*
G75*
G03*
X212249481Y-37642468I-657400J2453452D01*
G01*
%TO.C,SW16*%
X180536797Y-81426171D02*
X179924425Y-81072618D01*
X175876827Y-77866984D02*
X175613867Y-76885603D01*
X177836784Y-75213287D02*
X173490118Y-76377973D01*
X176764318Y-81179144D02*
X176665708Y-80811126D01*
X182882262Y-76656601D02*
X182269889Y-76303048D01*
X174551276Y-80338269D02*
X174706567Y-80917824D01*
X178017957Y-75889435D02*
X177836784Y-75213287D01*
X185793331Y-72185823D02*
X186161349Y-72087213D01*
X175613867Y-76885603D02*
X180520770Y-75570803D01*
X179665606Y-80106692D02*
X179924425Y-81072618D01*
X182269889Y-76303048D02*
X179855075Y-76950096D01*
X187147450Y-75767390D02*
X187048840Y-75399373D01*
X173490118Y-76377973D02*
X173619527Y-76860936D01*
X186259959Y-72455231D02*
X186161349Y-72087213D01*
X185351398Y-78878242D02*
X176764318Y-81179144D01*
X183434575Y-80649714D02*
X180536797Y-81426171D01*
X182407918Y-73092942D02*
X184075915Y-72646003D01*
X183788128Y-80037342D02*
X183434575Y-80649714D01*
X174706567Y-80917824D02*
X179053234Y-79753139D01*
X178017956Y-75889435D02*
G75*
G03*
X179855075Y-76950096I1448891J388231D01*
G01*
X180520770Y-75570803D02*
G75*
G03*
X182403011Y-73074628I-657400J2453452D01*
G01*
X179665606Y-80106692D02*
G75*
G03*
X179053234Y-79753139I-482964J-129411D01*
G01*
X185351398Y-78878244D02*
G75*
G03*
X187147450Y-75767390I-657400J2453453D01*
G01*
%TO.C,SW19*%
X240204048Y-55018323D02*
X240572066Y-54919713D01*
X227900835Y-59210473D02*
X228030244Y-59693436D01*
X232247501Y-58045787D02*
X227900835Y-59210473D01*
X236818635Y-55925442D02*
X238486632Y-55478503D01*
X229117284Y-63750324D02*
X233463951Y-62585639D01*
X237845292Y-63482214D02*
X234947514Y-64258671D01*
X239762115Y-61710742D02*
X231175035Y-64011644D01*
X230287544Y-60699484D02*
X230024584Y-59718103D01*
X231175035Y-64011644D02*
X231076425Y-63643626D01*
X230024584Y-59718103D02*
X234931487Y-58403303D01*
X237292979Y-59489101D02*
X236680606Y-59135548D01*
X232428674Y-58721935D02*
X232247501Y-58045787D01*
X238198845Y-62869842D02*
X237845292Y-63482214D01*
X228961993Y-63170769D02*
X229117284Y-63750324D01*
X234076323Y-62939192D02*
X234335142Y-63905118D01*
X234947514Y-64258671D02*
X234335142Y-63905118D01*
X240670676Y-55287731D02*
X240572066Y-54919713D01*
X236680606Y-59135548D02*
X234265792Y-59782596D01*
X241558167Y-58599890D02*
X241459557Y-58231873D01*
X234931487Y-58403303D02*
G75*
G03*
X236813728Y-55907128I-657400J2453452D01*
G01*
X239762115Y-61710744D02*
G75*
G03*
X241558167Y-58599890I-657400J2453453D01*
G01*
X234076323Y-62939192D02*
G75*
G03*
X233463951Y-62585639I-482964J-129411D01*
G01*
X232428673Y-58721935D02*
G75*
G03*
X234265792Y-59782596I1448891J388231D01*
G01*
%TO.C,SW17*%
X192256811Y-73005892D02*
X192412102Y-73585447D01*
X195542319Y-67880910D02*
X191195653Y-69045596D01*
X194469853Y-73846767D02*
X194371243Y-73478749D01*
X193582362Y-70534607D02*
X193319402Y-69553226D01*
X203056933Y-71545865D02*
X194469853Y-73846767D01*
X203498866Y-64853446D02*
X203866884Y-64754836D01*
X192412102Y-73585447D02*
X196758769Y-72420762D01*
X197371141Y-72774315D02*
X197629960Y-73740241D01*
X195723492Y-68557058D02*
X195542319Y-67880910D01*
X201140110Y-73317337D02*
X198242332Y-74093794D01*
X199975424Y-68970671D02*
X197560610Y-69617719D01*
X203965494Y-65122854D02*
X203866884Y-64754836D01*
X193319402Y-69553226D02*
X198226305Y-68238426D01*
X201493663Y-72704965D02*
X201140110Y-73317337D01*
X191195653Y-69045596D02*
X191325062Y-69528559D01*
X204852985Y-68435013D02*
X204754375Y-68066996D01*
X200113453Y-65760565D02*
X201781450Y-65313626D01*
X198242332Y-74093794D02*
X197629960Y-73740241D01*
X200587797Y-69324224D02*
X199975424Y-68970671D01*
X203056933Y-71545867D02*
G75*
G03*
X204852985Y-68435013I-657400J2453453D01*
G01*
X198226305Y-68238426D02*
G75*
G03*
X200108546Y-65742251I-657400J2453452D01*
G01*
X197371141Y-72774315D02*
G75*
G03*
X196758769Y-72420762I-482964J-129411D01*
G01*
X195723491Y-68557058D02*
G75*
G03*
X197560610Y-69617719I1448891J388231D01*
G01*
%TO.C,SW18*%
X221023993Y-55375660D02*
X220925383Y-55007642D01*
X212600818Y-58133716D02*
X208254152Y-59298402D01*
X215300831Y-64346600D02*
X214688459Y-63993047D01*
X212781991Y-58809864D02*
X212600818Y-58133716D01*
X208254152Y-59298402D02*
X208383561Y-59781365D01*
X211528352Y-64099573D02*
X211429742Y-63731555D01*
X220557365Y-55106252D02*
X220925383Y-55007642D01*
X210640861Y-60787413D02*
X210377901Y-59806032D01*
X217033923Y-59223477D02*
X214619109Y-59870525D01*
X217646296Y-59577030D02*
X217033923Y-59223477D01*
X210377901Y-59806032D02*
X215284804Y-58491232D01*
X209470601Y-63838253D02*
X213817268Y-62673568D01*
X221911484Y-58687819D02*
X221812874Y-58319802D01*
X209315310Y-63258698D02*
X209470601Y-63838253D01*
X218552162Y-62957771D02*
X218198609Y-63570143D01*
X218198609Y-63570143D02*
X215300831Y-64346600D01*
X214429640Y-63027121D02*
X214688459Y-63993047D01*
X220115432Y-61798671D02*
X211528352Y-64099573D01*
X217171952Y-56013371D02*
X218839949Y-55566432D01*
X212781990Y-58809864D02*
G75*
G03*
X214619109Y-59870525I1448891J388231D01*
G01*
X220115432Y-61798673D02*
G75*
G03*
X221911484Y-58687819I-657400J2453453D01*
G01*
X214429640Y-63027121D02*
G75*
G03*
X213817268Y-62673568I-482964J-129411D01*
G01*
X215284804Y-58491232D02*
G75*
G03*
X217167045Y-55995057I-657400J2453452D01*
G01*
D12*
%TO.C,D3*%
X79888497Y-32632542D02*
X81820349Y-33150180D01*
X81820349Y-33150180D02*
X80810954Y-36917291D01*
X79888497Y-32632542D02*
X78879103Y-36399653D01*
%TO.C,D2*%
X60241817Y-32544606D02*
X59232423Y-36311717D01*
X62173669Y-33062244D02*
X61164274Y-36829355D01*
X60241817Y-32544606D02*
X62173669Y-33062244D01*
%TO.C,D12*%
X55324250Y-50897193D02*
X54314856Y-54664304D01*
X55324250Y-50897193D02*
X57256102Y-51414831D01*
X57256102Y-51414831D02*
X56246707Y-55181942D01*
%TO.C,D14*%
X92029430Y-60732321D02*
X91020036Y-64499432D01*
X93961282Y-61249959D02*
X92951887Y-65017070D01*
X92029430Y-60732321D02*
X93961282Y-61249959D01*
%TO.C,D13*%
X76902791Y-51502769D02*
X75893396Y-55269880D01*
X74970939Y-50985131D02*
X76902791Y-51502769D01*
X74970939Y-50985131D02*
X73961545Y-54752242D01*
%TO.C,D15*%
X111666827Y-68582339D02*
X110657432Y-72349450D01*
X109734975Y-68064701D02*
X111666827Y-68582339D01*
X109734975Y-68064701D02*
X108725581Y-71831812D01*
%TO.C,D22*%
X50981398Y-67332715D02*
X52913250Y-67850353D01*
X52913250Y-67850353D02*
X51903855Y-71617464D01*
X50981398Y-67332715D02*
X49972004Y-71099826D01*
%TO.C,D25*%
X104817421Y-86417289D02*
X103808027Y-90184400D01*
X106749273Y-86934927D02*
X105739878Y-90702038D01*
X104817421Y-86417289D02*
X106749273Y-86934927D01*
%TO.C,D24*%
X87111872Y-79084912D02*
X86102478Y-82852023D01*
X87111872Y-79084912D02*
X89043724Y-79602550D01*
X89043724Y-79602550D02*
X88034329Y-83369661D01*
%TO.C,D23*%
X70053378Y-69337727D02*
X69043984Y-73104838D01*
X71985230Y-69855365D02*
X70975835Y-73622476D01*
X70053378Y-69337727D02*
X71985230Y-69855365D01*
%TO.C,D21*%
X28818862Y-76406298D02*
X27809468Y-80173409D01*
X30750714Y-76923936D02*
X29741319Y-80691047D01*
X28818862Y-76406298D02*
X30750714Y-76923936D01*
%TO.C,D11*%
X35668280Y-58571346D02*
X34658885Y-62338457D01*
X33736428Y-58053708D02*
X32727034Y-61820819D01*
X33736428Y-58053708D02*
X35668280Y-58571346D01*
%TO.C,D33*%
X80900217Y-102267135D02*
X82832069Y-102784773D01*
X82832069Y-102784773D02*
X81822674Y-106551884D01*
X80900217Y-102267135D02*
X79890823Y-106034246D01*
%TO.C,D34*%
X101635676Y-108098359D02*
X103448292Y-108943596D01*
X101635676Y-108098359D02*
X99987465Y-111632960D01*
X103448292Y-108943596D02*
X101800081Y-112478196D01*
%TO.C,D35*%
X121043531Y-117441670D02*
X118806583Y-120636363D01*
X122681835Y-118588823D02*
X120444887Y-121783516D01*
X121043531Y-117441670D02*
X122681835Y-118588823D01*
%TO.C,D9*%
X221641814Y-36817401D02*
X222651208Y-40584512D01*
X219709962Y-37335039D02*
X221641814Y-36817401D01*
X219709962Y-37335039D02*
X220719357Y-41102150D01*
%TO.C,D8*%
X200063280Y-37422973D02*
X201072675Y-41190084D01*
X200063280Y-37422973D02*
X201995132Y-36905335D01*
X201995132Y-36905335D02*
X203004526Y-40672446D01*
%TO.C,D19*%
X226548171Y-55128167D02*
X227557565Y-58895278D01*
X224616319Y-55645805D02*
X226548171Y-55128167D01*
X224616319Y-55645805D02*
X225625714Y-59412916D01*
%TO.C,D17*%
X193901867Y-76661381D02*
X197668978Y-75651986D01*
X193384229Y-74729529D02*
X197151340Y-73720135D01*
X193901867Y-76661381D02*
X193384229Y-74729529D01*
%TO.C,D26*%
X175134362Y-91207717D02*
X176143757Y-94974828D01*
X175134362Y-91207717D02*
X177066214Y-90690079D01*
X177066214Y-90690079D02*
X178075608Y-94457190D01*
%TO.C,D16*%
X170216802Y-72855124D02*
X172148654Y-72337486D01*
X170216802Y-72855124D02*
X171226197Y-76622235D01*
X172148654Y-72337486D02*
X173158048Y-76104597D01*
%TO.C,D18*%
X204663534Y-55625318D02*
X206595386Y-55107680D01*
X206595386Y-55107680D02*
X207604780Y-58874791D01*
X204663534Y-55625318D02*
X205672929Y-59392429D01*
%TO.C,D28*%
X209898403Y-74128149D02*
X210907798Y-77895260D01*
X211830255Y-73610511D02*
X212839649Y-77377622D01*
X209898403Y-74128149D02*
X211830255Y-73610511D01*
%TO.C,D27*%
X192839906Y-83875341D02*
X194771758Y-83357703D01*
X192839906Y-83875341D02*
X193849301Y-87642452D01*
X194771758Y-83357703D02*
X195781152Y-87124814D01*
%TO.C,D20*%
X248147203Y-62326502D02*
X249156597Y-66093613D01*
X246215351Y-62844140D02*
X247224746Y-66611251D01*
X246215351Y-62844140D02*
X248147203Y-62326502D01*
%TO.C,D36*%
X161623562Y-128055120D02*
X163261866Y-126907967D01*
X161623562Y-128055120D02*
X163860510Y-131249813D01*
X163261866Y-126907967D02*
X165498814Y-130102660D01*
%TO.C,D38*%
X199051563Y-107057565D02*
X200060958Y-110824676D01*
X200983415Y-106539927D02*
X201992809Y-110307038D01*
X199051563Y-107057565D02*
X200983415Y-106539927D01*
%TO.C,D29*%
X231476941Y-73522579D02*
X232486335Y-77289690D01*
X229545089Y-74040217D02*
X231476941Y-73522579D01*
X229545089Y-74040217D02*
X230554484Y-77807328D01*
%TO.C,D30*%
X251132914Y-81196725D02*
X252142309Y-84963836D01*
X251132914Y-81196725D02*
X253064766Y-80679087D01*
X253064766Y-80679087D02*
X254074160Y-84446198D01*
%TO.C,D37*%
X181231649Y-115073839D02*
X182879860Y-118608440D01*
X179419033Y-115919076D02*
X181231649Y-115073839D01*
X179419033Y-115919076D02*
X181067244Y-119453676D01*
%TD*%
M02*
