%TF.GenerationSoftware,KiCad,Pcbnew,(6.0.0)*%
%TF.CreationDate,2022-07-11T00:19:46-07:00*%
%TF.ProjectId,greenthumb,67726565-6e74-4687-956d-622e6b696361,rev?*%
%TF.SameCoordinates,Original*%
%TF.FileFunction,Paste,Bot*%
%TF.FilePolarity,Positive*%
%FSLAX46Y46*%
G04 Gerber Fmt 4.6, Leading zero omitted, Abs format (unit mm)*
G04 Created by KiCad (PCBNEW (6.0.0)) date 2022-07-11 00:19:46*
%MOMM*%
%LPD*%
G01*
G04 APERTURE LIST*
G04 Aperture macros list*
%AMRotRect*
0 Rectangle, with rotation*
0 The origin of the aperture is its center*
0 $1 length*
0 $2 width*
0 $3 Rotation angle, in degrees counterclockwise*
0 Add horizontal line*
21,1,$1,$2,0,0,$3*%
G04 Aperture macros list end*
%ADD10R,1.800000X1.100000*%
%ADD11RotRect,2.600000X2.600000X345.000000*%
%ADD12RotRect,2.550000X2.500000X165.000000*%
%ADD13RotRect,2.550000X2.500000X145.000000*%
%ADD14RotRect,2.600000X2.600000X325.000000*%
%ADD15RotRect,2.600000X2.600000X335.000000*%
%ADD16RotRect,2.550000X2.500000X155.000000*%
%ADD17RotRect,2.550000X2.500000X215.000000*%
%ADD18RotRect,2.600000X2.600000X35.000000*%
%ADD19RotRect,2.550000X2.500000X195.000000*%
%ADD20RotRect,2.600000X2.600000X15.000000*%
%ADD21RotRect,2.550000X2.500000X205.000000*%
%ADD22RotRect,2.600000X2.600000X25.000000*%
%ADD23RotRect,0.900000X1.200000X255.000000*%
%ADD24RotRect,0.900000X1.200000X245.000000*%
%ADD25RotRect,0.900000X1.200000X235.000000*%
%ADD26RotRect,0.900000X1.200000X285.000000*%
%ADD27RotRect,0.900000X1.200000X15.000000*%
%ADD28RotRect,0.900000X1.200000X305.000000*%
%ADD29RotRect,0.900000X1.200000X295.000000*%
G04 APERTURE END LIST*
D10*
%TO.C,SW41*%
X146047311Y-100452740D03*
X152247311Y-96752740D03*
X146047311Y-96752740D03*
X152247311Y-100452740D03*
%TD*%
D11*
%TO.C,SW22*%
X49666146Y-75780658D03*
D12*
X51239280Y-77579095D03*
D11*
X60253188Y-80895055D03*
D12*
X65274753Y-78710288D03*
%TD*%
D11*
%TO.C,SW33*%
X80159670Y-108797994D03*
D12*
X81732804Y-110596431D03*
X95768277Y-111727624D03*
D11*
X90746712Y-113912391D03*
%TD*%
%TO.C,SW23*%
X69312823Y-75868586D03*
D12*
X70885957Y-77667023D03*
D11*
X79899865Y-80982983D03*
D12*
X84921430Y-78798216D03*
%TD*%
D13*
%TO.C,SW35*%
X118977119Y-125553426D03*
D14*
X118113959Y-123325404D03*
D13*
X131779259Y-131416813D03*
D14*
X126313297Y-131752346D03*
%TD*%
D12*
%TO.C,SW25*%
X105650006Y-94746591D03*
D11*
X104076872Y-92948154D03*
X114663914Y-98062551D03*
D12*
X119685479Y-95877784D03*
%TD*%
%TO.C,SW21*%
X29651452Y-84735602D03*
D11*
X28078318Y-82937165D03*
X38665360Y-88051562D03*
D12*
X43686925Y-85866795D03*
%TD*%
D11*
%TO.C,SW14*%
X91288889Y-67263188D03*
D12*
X92862023Y-69061625D03*
X106897496Y-70192818D03*
D11*
X101875931Y-72377585D03*
%TD*%
D15*
%TO.C,SW34*%
X99772305Y-114401416D03*
D16*
X101009243Y-116445703D03*
X114635056Y-119996944D03*
D15*
X109310399Y-121276534D03*
%TD*%
D12*
%TO.C,SW24*%
X87944459Y-87414211D03*
D11*
X86371325Y-85615774D03*
X96958367Y-90730171D03*
D12*
X101979932Y-88545404D03*
%TD*%
%TO.C,SW12*%
X56156840Y-59226500D03*
D11*
X54583706Y-57428063D03*
X65170748Y-62542460D03*
D12*
X70192313Y-60357693D03*
%TD*%
%TO.C,SW3*%
X80721087Y-40961838D03*
D11*
X79147953Y-39163401D03*
X89734995Y-44277798D03*
D12*
X94756560Y-42093031D03*
%TD*%
%TO.C,SW15*%
X110567566Y-76394001D03*
D11*
X108994432Y-74595564D03*
X119581474Y-79709961D03*
D12*
X124603039Y-77525194D03*
%TD*%
D11*
%TO.C,SW13*%
X74230388Y-57515990D03*
D12*
X75803522Y-59314427D03*
X89838995Y-60445620D03*
D11*
X84817430Y-62630387D03*
%TD*%
%TO.C,SW2*%
X59501268Y-39075481D03*
D12*
X61074402Y-40873918D03*
D11*
X70088310Y-44189878D03*
D12*
X75109875Y-42005111D03*
%TD*%
%TO.C,SW11*%
X34569015Y-66383009D03*
D11*
X32995881Y-64584572D03*
D12*
X48604488Y-67514202D03*
D11*
X43582923Y-69698969D03*
%TD*%
D17*
%TO.C,SW36*%
X168539354Y-132771286D03*
D18*
X166150480Y-132820363D03*
D17*
X178427726Y-122746606D03*
D18*
X176873555Y-127997690D03*
%TD*%
D19*
%TO.C,SW29*%
X234430779Y-80837313D03*
D20*
X232169187Y-80066387D03*
D19*
X247151452Y-74799218D03*
D20*
X243895032Y-79202064D03*
%TD*%
D21*
%TO.C,SW37*%
X185410812Y-121764510D03*
D22*
X183049709Y-121398018D03*
D21*
X196889724Y-113609226D03*
D22*
X194447324Y-118510655D03*
%TD*%
D19*
%TO.C,SW38*%
X203937253Y-113854653D03*
D20*
X201675661Y-113083727D03*
X213401506Y-112219404D03*
D19*
X216657926Y-107816558D03*
%TD*%
%TO.C,SW30*%
X256018610Y-87993825D03*
D20*
X253757018Y-87222899D03*
D19*
X268739283Y-81955730D03*
D20*
X265482863Y-86358576D03*
%TD*%
D19*
%TO.C,SW26*%
X180020055Y-98004812D03*
D20*
X177758463Y-97233886D03*
D19*
X192740728Y-91966717D03*
D20*
X189484308Y-96369563D03*
%TD*%
D19*
%TO.C,SW27*%
X197725600Y-90672434D03*
D20*
X195464008Y-89901508D03*
D19*
X210446273Y-84634339D03*
D20*
X207189853Y-89037185D03*
%TD*%
%TO.C,SW28*%
X212522502Y-80154315D03*
D19*
X214784094Y-80925241D03*
D20*
X224248347Y-79289992D03*
D19*
X227504767Y-74887146D03*
%TD*%
D20*
%TO.C,SW20*%
X248839447Y-68870305D03*
D19*
X251101039Y-69641231D03*
D20*
X260565292Y-68005982D03*
D19*
X263821712Y-63603136D03*
%TD*%
%TO.C,SW9*%
X224595656Y-44132131D03*
D20*
X222334064Y-43361205D03*
D19*
X237316329Y-38094036D03*
D20*
X234059909Y-42496882D03*
%TD*%
%TO.C,SW8*%
X202687375Y-43449140D03*
D19*
X204948967Y-44220066D03*
D20*
X214413220Y-42584817D03*
D19*
X217669640Y-38181971D03*
%TD*%
%TO.C,SW16*%
X175102497Y-79652226D03*
D20*
X172840905Y-78881300D03*
D19*
X187823170Y-73614131D03*
D20*
X184566750Y-78016977D03*
%TD*%
%TO.C,SW19*%
X227251622Y-61713800D03*
D19*
X229513214Y-62484726D03*
X242233887Y-56446631D03*
D20*
X238977467Y-60849477D03*
%TD*%
%TO.C,SW17*%
X190546440Y-71548923D03*
D19*
X192808032Y-72319849D03*
X205528705Y-66281754D03*
D20*
X202272285Y-70684600D03*
%TD*%
D19*
%TO.C,SW18*%
X209866531Y-62572655D03*
D20*
X207604939Y-61801729D03*
X219330784Y-60937406D03*
D19*
X222587204Y-56534560D03*
%TD*%
D23*
%TO.C,D3*%
X80699131Y-33470916D03*
X79845029Y-36658472D03*
%TD*%
%TO.C,D2*%
X61052451Y-33382980D03*
X60198349Y-36570536D03*
%TD*%
%TO.C,D12*%
X56134884Y-51735567D03*
X55280782Y-54923123D03*
%TD*%
%TO.C,D14*%
X92840064Y-61570695D03*
X91985962Y-64758251D03*
%TD*%
%TO.C,D13*%
X75781573Y-51823505D03*
X74927471Y-55011061D03*
%TD*%
%TO.C,D15*%
X110545609Y-68903075D03*
X109691507Y-72090631D03*
%TD*%
%TO.C,D22*%
X51792032Y-68171089D03*
X50937930Y-71358645D03*
%TD*%
%TO.C,D25*%
X105628055Y-87255663D03*
X104773953Y-90443219D03*
%TD*%
%TO.C,D24*%
X87922506Y-79923286D03*
X87068404Y-83110842D03*
%TD*%
%TO.C,D23*%
X70864012Y-70176101D03*
X70009910Y-73363657D03*
%TD*%
%TO.C,D21*%
X29629496Y-77244672D03*
X28775394Y-80432228D03*
%TD*%
%TO.C,D11*%
X34547062Y-58892082D03*
X33692960Y-62079638D03*
%TD*%
%TO.C,D33*%
X81710851Y-103105509D03*
X80856749Y-106293065D03*
%TD*%
D24*
%TO.C,D34*%
X102288413Y-109064762D03*
X100893773Y-112055578D03*
%TD*%
D25*
%TO.C,D35*%
X121518537Y-118506738D03*
X119625735Y-121209940D03*
%TD*%
D26*
%TO.C,D9*%
X220831180Y-37655775D03*
X221685282Y-40843331D03*
%TD*%
%TO.C,D8*%
X201184498Y-37743709D03*
X202038600Y-40931265D03*
%TD*%
%TO.C,D19*%
X225737537Y-55966541D03*
X226591639Y-59154097D03*
%TD*%
D27*
%TO.C,D17*%
X194222603Y-75540163D03*
X197410159Y-74686061D03*
%TD*%
D26*
%TO.C,D26*%
X176255580Y-91528453D03*
X177109682Y-94716009D03*
%TD*%
%TO.C,D16*%
X171338020Y-73175860D03*
X172192122Y-76363416D03*
%TD*%
%TO.C,D18*%
X205784752Y-55946054D03*
X206638854Y-59133610D03*
%TD*%
%TO.C,D28*%
X211019621Y-74448885D03*
X211873723Y-77636441D03*
%TD*%
%TO.C,D27*%
X193961124Y-84196077D03*
X194815226Y-87383633D03*
%TD*%
%TO.C,D20*%
X247336569Y-63164876D03*
X248190671Y-66352432D03*
%TD*%
D28*
%TO.C,D36*%
X162786860Y-127973035D03*
X164679662Y-130676237D03*
%TD*%
D26*
%TO.C,D38*%
X200172781Y-107378301D03*
X201026883Y-110565857D03*
%TD*%
%TO.C,D29*%
X230666307Y-74360953D03*
X231520409Y-77548509D03*
%TD*%
%TO.C,D30*%
X252254132Y-81517461D03*
X253108234Y-84705017D03*
%TD*%
D29*
%TO.C,D37*%
X180578912Y-116040242D03*
X181973552Y-119031058D03*
%TD*%
M02*
