0
SECTION
2
HEADER
9
$INSUNITS
70
4
9
$ACADVER
1
AC1014
9
$HANDSEED
5
FFFF
0
ENDSEC
0
SECTION
2
TABLES
0
TABLE
2
VPORT
5
8
100
AcDbSymbolTable
0
ENDTAB
0
TABLE
2
LTYPE
5
5
100
AcDbSymbolTable
0
LTYPE
5
14
100
AcDbSymbolTableRecord
100
AcDbLinetypeTableRecord
2
BYBLOCK
70
0
0
LTYPE
5
15
100
AcDbSymbolTableRecord
100
AcDbLinetypeTableRecord
2
BYLAYER
70
0
0
ENDTAB
0
TABLE
2
LAYER
5
2
100
AcDbSymbolTable
70
2
0
LAYER
5
50
100
AcDbSymbolTableRecord
100
AcDbLayerTableRecord
2
0
70
0
6
CONTINUOUS
0
ENDTAB
0
TABLE
2
STYLE
5
3
100
AcDbSymbolTable
70
1
0
STYLE
5
11
100
AcDbSymbolTableRecord
100
AcDbTextStyleTableRecord
2
STANDARD
70
0
0
ENDTAB
0
TABLE
2
VIEW
5
6
100
AcDbSymbolTable
70
0
0
ENDTAB
0
TABLE
2
UCS
5
7
100
AcDbSymbolTable
70
0
0
ENDTAB
0
TABLE
2
APPID
5
9
100
AcDbSymbolTable
70
2
0
APPID
5
12
100
AcDbSymbolTableRecord
100
AcDbRegAppTableRecord
2
ACAD
70
0
0
ENDTAB
0
TABLE
2
DIMSTYLE
5
A
100
AcDbSymbolTable
70
1
0
ENDTAB
0
TABLE
2
BLOCK_RECORD
5
1
100
AcDbSymbolTable
70
1
0
BLOCK_RECORD
5
1F
100
AcDbSymbolTableRecord
100
AcDbBlockTableRecord
2
*MODEL_SPACE
0
BLOCK_RECORD
5
1B
100
AcDbSymbolTableRecord
100
AcDbBlockTableRecord
2
*PAPER_SPACE
0
ENDTAB
0
ENDSEC
0
SECTION
2
BLOCKS
0
BLOCK
5
20
100
AcDbEntity
100
AcDbBlockBegin
2
*MODEL_SPACE
0
ENDBLK
5
21
100
AcDbEntity
100
AcDbBlockEnd
0
BLOCK
5
1C
100
AcDbEntity
100
AcDbBlockBegin
2
*PAPER_SPACE
0
ENDBLK
5
1D
100
AcDbEntity
100
AcDbBlockEnd
0
ENDSEC
0
SECTION
2
ENTITIES
0
LINE
5
100
100
AcDbEntity
8
0
100
AcDbLine
10
86.002992380396563
20
-173.33941836936319
30
0
11
113.04891579844949
21
-180.58635057994837
31
0
0
LINE
5
101
100
AcDbEntity
8
0
100
AcDbLine
10
113.04891579844949
20
-180.58635057994837
30
0
11
133.01132923026816
21
-180.58861906070334
31
0
0
LINE
5
102
100
AcDbEntity
8
0
100
AcDbLine
10
160.05725218165355
20
-173.34168510849122
30
0
11
133.01132923026816
21
-180.58861906070334
31
0
0
ARC
5
103
100
AcDbEntity
8
0
100
AcDbCircle
10
163.09732659569252
20
-173.09645680780577
30
0
40
3.0499490753701615
210
0
220
0
230
1
100
AcDbArc
50
105.000001460344
51
184.61179171793285
0
LINE
5
104
100
AcDbEntity
8
0
100
AcDbLine
10
162.30794161330618
20
-170.15043224715896
30
0
11
175.87917308459848
21
-166.51403136339474
31
0
0
ARC
5
105
100
AcDbEntity
8
0
100
AcDbCircle
10
175.37447675014423
20
-164.63047919284838
30
0
40
1.9499967100437421
210
0
220
0
230
1
100
AcDbArc
50
-74.999998539654442
51
15.0000981274859
0
LINE
5
106
100
AcDbEntity
8
0
100
AcDbLine
10
172.32753336339474
20
-145.72493391540155
30
0
11
177.25802806918449
21
-164.1257796805412
31
0
0
ARC
5
107
100
AcDbEntity
8
0
100
AcDbCircle
10
175.22531082247181
20
-144.94847670623602
30
0
40
3.0000000000000422
210
0
220
0
230
1
100
AcDbArc
50
105.00000146034469
51
195.00000146034293
0
LINE
5
108
100
AcDbEntity
8
0
100
AcDbLine
10
174.4488536133062
20
-142.05069924715897
30
0
11
188.0200850766818
21
-138.414298365516
31
0
0
ARC
5
109
100
AcDbEntity
8
0
100
AcDbCircle
10
188.79664834084181
20
-141.31247162718017
30
0
40
3.0004097649934409
210
0
220
-0
230
1
100
AcDbArc
50
14.053172677048174
51
105.00000146034489
0
ARC
5
110
100
AcDbEntity
8
0
100
AcDbCircle
10
193.56839575949962
20
-140.11803698653327
30
0
40
1.9185583725578663
210
0
220
0
230
1
100
AcDbArc
50
194.05316240933965
51
285.94665467284415
0
ARC
5
111
100
AcDbEntity
8
0
100
AcDbCircle
10
208.44319328584731
20
-141.22414279292624
30
0
40
2.9999999999999769
210
0
220
-0
230
1
100
AcDbArc
50
15.000001460343908
51
104.99999777077252
0
LINE
5
112
100
AcDbEntity
8
0
100
AcDbLine
10
211.34097074492431
20
-140.44768558376069
30
0
11
218.21260029610357
21
-166.09295581113938
31
0
0
LINE
5
113
100
AcDbEntity
8
0
100
AcDbLine
10
194.09550480782576
20
-141.96276522670433
30
0
11
207.66673626328463
21
-138.32636528384919
31
0
0
ARC
5
114
100
AcDbEntity
8
0
100
AcDbCircle
10
220.09615561461982
20
-165.58825867699966
30
0
40
1.9499999577229841
210
0
220
0
230
1
100
AcDbArc
50
195.00000021694484
51
284.99963106948695
0
ARC
5
115
100
AcDbEntity
8
0
100
AcDbCircle
10
234.94852929376404
20
-166.73319382247172
30
0
40
3.0000000000000067
210
0
220
-0
230
1
100
AcDbArc
50
15.000001460343221
51
105.00000146034444
0
LINE
5
116
100
AcDbEntity
8
0
100
AcDbLine
10
237.84630675284106
20
-165.95673661330619
30
0
11
246.40026763660526
21
-197.88052808459844
31
0
0
ARC
5
117
100
AcDbEntity
8
0
100
AcDbCircle
10
243.5024901775283
20
-198.65698529376405
30
0
40
2.9999999999999725
210
0
220
0
230
1
100
AcDbArc
50
-74.99999853965663
51
15.000001460345088
0
LINE
5
118
100
AcDbEntity
8
0
100
AcDbLine
10
244.27894738669383
20
-201.55476275284104
30
0
11
230.70771591540159
21
-205.19116363660527
31
0
0
ARC
5
119
100
AcDbEntity
8
0
100
AcDbCircle
10
229.93125870623601
20
-202.29338617752828
30
0
40
2.9999999999999813
210
0
220
0
230
1
100
AcDbArc
50
195.00000146034392
51
285.00000146034444
0
LINE
5
120
100
AcDbEntity
8
0
100
AcDbLine
10
227.03348124715902
20
-203.06984338669383
30
0
11
225.07940250430195
21
-195.77712346503046
31
0
0
LINE
5
121
100
AcDbEntity
8
0
100
AcDbLine
10
220.60084061330622
20
-167.47181724715898
30
0
11
234.17207208459845
21
-163.83541636339473
31
0
0
ARC
5
122
100
AcDbEntity
8
0
100
AcDbCircle
10
223.19584701166957
20
-196.2818207232113
30
0
40
1.9500001580104867
210
0
220
-0
230
1
100
AcDbArc
50
15.0000024132814
51
104.99983673342649
0
ARC
5
123
100
AcDbEntity
8
0
100
AcDbCircle
10
208.3433606607127
20
-195.13649041018581
30
0
40
3.0004097590860539
210
0
220
0
230
1
100
AcDbArc
50
194.05307430644322
51
284.99999777077261
0
LINE
5
124
100
AcDbEntity
8
0
100
AcDbLine
10
222.69115520009098
20
-194.39826377117441
30
0
11
209.11992373671538
21
-198.03466371615082
31
0
0
ARC
5
125
100
AcDbEntity
8
0
100
AcDbCircle
10
203.54920180933146
20
-196.36973567020956
30
0
40
1.9499892091974067
210
0
220
-0
230
1
100
AcDbArc
50
14.999684398361509
51
105.00000146034569
0
ARC
5
126
100
AcDbEntity
8
0
100
AcDbCircle
10
189.97797047908665
20
-200.00613708037005
30
0
40
1.9499897541629105
210
0
220
0
230
1
100
AcDbArc
50
105.00000146034462
51
195.00030250973205
0
LINE
5
127
100
AcDbEntity
8
0
100
AcDbLine
10
203.04450741623927
20
-194.48619074492433
30
0
11
189.47327594494703
21
-198.12259162868858
31
0
0
LINE
5
128
100
AcDbEntity
8
0
100
AcDbLine
10
57.96577503485225
20
-200.50856631025951
30
0
11
51.741195283849194
21
-223.73902926328464
31
0
0
ARC
5
129
100
AcDbEntity
8
0
100
AcDbCircle
10
54.638972792926303
20
-224.51548628584732
30
0
40
3.0000000000000115
210
0
220
0
230
1
100
AcDbArc
50
165.00000222922773
51
254.99999853965531
0
LINE
5
130
100
AcDbEntity
8
0
100
AcDbLine
10
67.433747084598451
20
-231.04966463660529
30
0
11
53.862515583760697
21
-227.41326374492434
31
0
0
ARC
5
131
100
AcDbEntity
8
0
100
AcDbCircle
10
59.629413815329073
20
-260.17549523061257
30
0
40
30.153302067412682
210
0
220
-0
230
1
100
AcDbArc
50
64.999999628837955
51
74.999833927709005
0
LINE
5
132
100
AcDbEntity
8
0
100
AcDbLine
10
85.106348688867385
20
-238.78509748389513
30
0
11
72.372750097833162
21
-232.84732284459946
31
0
0
ARC
5
133
100
AcDbEntity
8
0
100
AcDbCircle
10
72.363265519765321
20
-266.11276881257675
30
0
40
30.152740984910476
210
0
220
-0
230
1
100
AcDbArc
50
54.999998984746199
51
65.000033153161766
0
LINE
5
134
100
AcDbEntity
8
0
100
AcDbLine
10
101.16723124535369
20
-249.47182307200549
30
0
11
89.658167677772909
21
-241.41308970032824
31
0
0
ARC
5
135
100
AcDbEntity
8
0
100
AcDbCircle
10
105.1373904128321
20
-243.80184838435653
30
0
40
6.9217611034831901
210
0
220
0
230
1
100
AcDbArc
50
234.99999898474616
51
260.03148438676681
0
LINE
5
136
100
AcDbEntity
8
0
100
AcDbLine
10
103.93918515848939
20
-250.61911183402302
30
0
11
142.12008227877595
21
-250.61911183402302
31
0
0
ARC
5
137
100
AcDbEntity
8
0
100
AcDbCircle
10
140.937404248001
20
-243.82495289070476
30
0
40
6.8963267810878213
210
0
220
0
230
1
100
AcDbArc
50
279.87468938943283
51
304.99999882434776
0
LINE
5
138
100
AcDbEntity
8
0
100
AcDbLine
10
156.40203921783967
20
-241.41535975124785
30
0
11
144.89297467109492
21
-249.47409315268214
31
0
0
ARC
5
139
100
AcDbEntity
8
0
100
AcDbCircle
10
173.69698120746534
20
-266.11509398432895
30
0
40
30.152808983730782
210
0
220
0
230
1
100
AcDbArc
50
115.00000037116214
51
125.00000293850145
0
LINE
5
140
100
AcDbEntity
8
0
100
AcDbLine
10
173.68745192817769
20
-232.84959383247039
30
0
11
160.95385331113263
21
-238.78736848389508
31
0
0
ARC
5
141
100
AcDbEntity
8
0
100
AcDbCircle
10
186.43060064154437
20
-260.17741311887664
30
0
40
30.152902780353585
210
0
220
0
230
1
100
AcDbArc
50
105.0000004717278
51
114.99996090638825
0
LINE
5
142
100
AcDbEntity
8
0
100
AcDbLine
10
192.19768733457249
20
-227.41554475832186
30
0
11
178.62645489706821
21
-231.05194565000275
31
0
0
ARC
5
143
100
AcDbEntity
8
0
100
AcDbCircle
10
191.42123017540695
20
-224.51776728584733
30
0
40
3.0000000000000497
210
0
220
0
230
1
100
AcDbArc
50
-74.99999952827261
51
15.000001460343611
0
LINE
5
144
100
AcDbEntity
8
0
100
AcDbLine
10
194.319007634484
20
-223.74131007668177
30
0
11
188.09442767924921
21
-200.51084151122126
31
0
0
ARC
5
145
100
AcDbEntity
8
0
100
AcDbCircle
10
56.082223759343499
20
-200.00386677281944
30
0
40
1.9499966745004615
210
-0
220
0
230
1
100
AcDbArc
50
-15.000099171838542
51
74.999998539654754
0
ARC
5
146
100
AcDbEntity
8
0
100
AcDbCircle
10
42.510834238273134
20
-196.36805573879712
30
0
40
1.9506073318924433
210
0
220
-0
230
1
100
AcDbArc
50
74.99999853965619
51
166.45096490823099
0
ARC
5
147
100
AcDbEntity
8
0
100
AcDbCircle
10
37.716735285847349
20
-195.13461520707369
30
0
40
3.0000000000000044
210
0
220
0
230
1
100
AcDbArc
50
255.00000222922739
51
344.99999853965562
0
LINE
5
148
100
AcDbEntity
8
0
100
AcDbLine
10
36.940278263284647
20
-198.03239271615081
30
0
11
23.369046799909043
21
-194.39599277117441
31
0
0
ARC
5
149
100
AcDbEntity
8
0
100
AcDbCircle
10
22.864355393144635
20
-196.2795497981046
30
0
40
1.9500001255794741
210
0
220
-0
230
1
100
AcDbArc
50
75.000175325259491
51
164.99999853965653
0
LINE
5
150
100
AcDbEntity
8
0
100
AcDbLine
10
19.026723752841036
20
-203.06756338669385
30
0
11
20.98079992344411
21
-195.77485257964463
31
0
0
ARC
5
151
100
AcDbEntity
8
0
100
AcDbCircle
10
16.128946293764027
20
-202.29110617752823
30
0
40
3.0000000000000182
210
0
220
0
230
1
100
AcDbArc
50
254.99999853965576
51
344.99999853965517
0
LINE
5
152
100
AcDbEntity
8
0
100
AcDbLine
10
15.352489084598446
20
-205.18888363660525
30
0
11
1.7812576133061619
21
-201.55248275284106
31
0
0
ARC
5
153
100
AcDbEntity
8
0
100
AcDbCircle
10
2.5577170649722496
20
-198.6547058946403
30
0
40
3.0000000000009002
210
0
220
0
230
1
100
AcDbArc
50
164.99999853965576
51
254.999954200221
0
LINE
5
154
100
AcDbEntity
8
0
100
AcDbLine
10
8.2138942471589598
20
-165.95445861330617
30
0
11
-0.34006039410562572
21
-197.87824868547449
31
0
0
ARC
5
155
100
AcDbEntity
8
0
100
AcDbCircle
10
11.111671706235967
20
-166.73091582247173
30
0
40
2.9999999999999876
210
0
220
-0
230
1
100
AcDbArc
50
74.999998539655252
51
164.99999853965622
0
LINE
5
156
100
AcDbEntity
8
0
100
AcDbLine
10
11.888128915401561
20
-163.83313836339477
30
0
11
25.459360386693834
21
-167.46953924715896
31
0
0
ARC
5
157
100
AcDbEntity
8
0
100
AcDbCircle
10
25.964046880439518
20
-165.58598090048019
30
0
40
1.9500001287980964
210
0
220
0
230
1
100
AcDbArc
50
255.00032479929391
51
344.99999475618142
0
LINE
5
158
100
AcDbEntity
8
0
100
AcDbLine
10
56.586920084598454
20
-198.12031463660529
30
0
11
43.01568861330616
21
-194.48391375284103
31
0
0
ARC
5
159
100
AcDbEntity
8
0
100
AcDbCircle
10
52.469391788300904
20
-140.07695279057054
30
0
40
1.9499865985919207
210
0
220
0
230
1
100
AcDbArc
50
255.00000222922696
51
345.00039599815091
0
LINE
5
160
100
AcDbEntity
8
0
100
AcDbLine
10
38.393466736715361
20
-138.32409528384918
30
0
11
51.964698192174282
21
-141.96049522670432
31
0
0
ARC
5
161
100
AcDbEntity
8
0
100
AcDbCircle
10
37.617009714152658
20
-141.22187279292629
30
0
40
3.0000000000000044
210
0
220
-0
230
1
100
AcDbArc
50
75.000002229227363
51
164.99999853965562
0
LINE
5
162
100
AcDbEntity
8
0
100
AcDbLine
10
34.719232255075653
20
-140.44541558376071
30
0
11
27.847602319921766
21
-166.09067824415209
31
0
0
ARC
5
163
100
AcDbEntity
8
0
100
AcDbCircle
10
57.26355066894439
20
-141.31018770883963
30
0
40
3.0004098413375777
210
0
220
-0
230
1
100
AcDbArc
50
74.999998539655479
51
165.94706433801502
0
ARC
5
164
100
AcDbEntity
8
0
100
AcDbCircle
10
70.834888207073718
20
-144.94619271415266
30
0
40
2.9999999999999991
210
0
220
0
230
1
100
AcDbArc
50
-14.999997770772818
51
74.999998539655721
0
LINE
5
165
100
AcDbEntity
8
0
100
AcDbLine
10
73.732665716150819
20
-145.72264973671537
30
0
11
68.802171599122232
21
-164.12349778781658
31
0
0
LINE
5
166
100
AcDbEntity
8
0
100
AcDbLine
10
58.040113952863706
20
-138.4120143734327
30
0
11
71.611345416239303
21
-142.04841525507564
31
0
0
ARC
5
167
100
AcDbEntity
8
0
100
AcDbCircle
10
70.685727142579665
20
-164.62819486115779
30
0
40
1.950000159263684
210
0
220
0
230
1
100
AcDbArc
50
165.00000321921218
51
254.99999853965551
0
ARC
5
168
100
AcDbEntity
8
0
100
AcDbCircle
10
82.962862961233725
20
-173.0942259780349
30
0
40
3.0500010154137098
210
0
220
0
230
1
100
AcDbArc
50
-4.611036245513624
51
74.999998539655593
0
LINE
5
169
100
AcDbEntity
8
0
100
AcDbLine
10
70.181029915401552
20
-166.51175036339475
30
0
11
83.752261386693831
21
-170.14815124715898
31
0
0
ENDSEC
0
SECTION
2
OBJECTS
0
DICTIONARY
5
C
100
AcDbDictionary
3
ACAD_GROUP
350
D
3
ACAD_MLINESTYLE
350
17
0
DICTIONARY
5
D
100
AcDbDictionary
0
DICTIONARY
5
1A
330
C
100
AcDbDictionary
0
DICTIONARY
5
17
100
AcDbDictionary
0
ENDSEC
0
EOF
