<?xml version="1.0" standalone="no"?>
 <!DOCTYPE svg PUBLIC "-//W3C//DTD SVG 1.1//EN" 
 "http://www.w3.org/Graphics/SVG/1.1/DTD/svg11.dtd"> 
<svg
  xmlns:svg="http://www.w3.org/2000/svg"
  xmlns="http://www.w3.org/2000/svg"
  xmlns:xlink="http://www.w3.org/1999/xlink"
  version="1.1"
  width="25.405080cm" height="12.049760cm" viewBox="0 0 254050800 120497600">
<title>SVG Picture created as greenthumb-brd.svg date 2022/06/25 13:28:08 </title>
  <desc>Picture generated by PCBNEW </desc>
<g style="fill:#000000; fill-opacity:1.000000;stroke:#000000; stroke-opacity:1.000000;
stroke-linecap:round; stroke-linejoin:round;"
 transform="translate(0 0) scale(1 1)">
</g>
<g style="fill:#000000; fill-opacity:0.0; 
stroke:#000000; stroke-width:0.000000; stroke-opacity:1; 
stroke-linecap:round; stroke-linejoin:round;">
</g>
<g style="fill:#C2C200; fill-opacity:0.0; 
stroke:#C2C200; stroke-width:0.000000; stroke-opacity:1; 
stroke-linecap:round; stroke-linejoin:round;">
</g>
<g style="fill:#C2C200; fill-opacity:0.0; 
stroke:#C2C200; stroke-width:200000.000000; stroke-opacity:1; 
stroke-linecap:round; stroke-linejoin:round;">
<path d="M208720673.860872 61662231.037271 A1949885.000000 1949885.000000 0.0 0 0 206332431.921437 60283370.706863" />
<path d="M177736772.821018 7847877.331965 A2999925.000000 2999925.000000 0.0 0 0 175615456.944698 11522117.014820" />
<path d="M89290914.926262 39136600.994051 A3049919.000000 3049919.000000 0.0 0 0 87040184.061760 35945330.769489" />
<path d="M208720672.900586 61662231.275198 A3000417.000000 3000417.000000 0.0 0 0 212407847.107589 63831846.401531" />
<path d="M230321402 68867022
L228367327 61574304
" />
<path d="M61328038.036729 4209192.862926 A3000411.000000 3000411.000000 0.0 0 0 57640862.776751 6378813.944119" />
<path d="M159689964 107212541
L148180897 115271273
" />
<path d="M89290915 39136601
L116336838 46383531
" />
<path d="M41681391 4121278
L55252620 7757675
" />
<path d="M38007155 6242596
L31135524 31887858
" />
<path d="M75660673.945598 98644502.116666 A30153916.000000 30153916.000000 0.0 0 0 70721667.965521 96846844.128677" />
<path d="M15176052.119962 29630318.552297 A2999999.000000 2999999.000000 0.0 0 0 11501817.735311 31751640.929077" />
<path d="M228367326.979012 61574304.005623 A1949952.000000 1949952.000000 0.0 0 0 225979076.967488 60195446.878674" />
<path d="M61253699.178821 66305745.047903 A1950114.000000 1950114.000000 0.0 0 0 59874843.024836 63917497.907335" />
<path d="M104455153.152188 115269004.782660 A6921326.000000 6921326.000000 0.0 0 0 107227109.008262 116416293.952990" />
<path d="M104455153 115269005
L92946092 107210267
" />
<path d="M28747279.825108 33266722.652730 A1950008.000000 1950008.000000 0.0 0 0 31135524.067865 31887858.018184" />
<path d="M197383428 7759945
L210954662 4123544
" />
<path d="M77020587.954436 11519831.255747 A2999979.000000 2999979.000000 0.0 0 0 74899268.118242 7845597.558701" />
<path d="M2947860.786678 63675433.942841 A3000003.000000 3000003.000000 0.0 0 0 5069182.112712 67349664.579354" />
<path d="M225979077 60195447
L212407847 63831846
" />
<path d="M194995181.628834 6381085.092924 A3000530.000000 3000530.000000 0.0 0 0 191308008.970535 4211478.890018" />
<path d="M11501818 31751641
L2947861 63675434
" />
<path d="M77020587 11519831
L72090093 29920677
" />
<path d="M40228200.813051 63829574.697703 A2999999.000000 2999999.000000 0.0 0 0 43902434.264689 61708252.070923" />
<path d="M177736773 7847878
L191308009 4211479
" />
<path d="M176975374 98646777
L164241778 104584548
" />
<path d="M61253699 66305745
L55029118 89536210
" />
<path d="M107227109 116416294
L145408005 116416297
" />
<path d="M214628892.745399 6244865.068223 A3000036.000000 3000036.000000 0.0 0 0 210954662.111165 4123544.414897" />
<path d="M195485611 93212724
L181914379 96849127
" />
<path d="M18640413 70986064
L5069182 67349665
" />
<path d="M88394273 104582276
L75660674 98644502
" />
<path d="M175615457 11522117
L180545953 29922962
" />
<path d="M241134231 31753919
L249688190 63677706
" />
<path d="M223888764 33268998
L237459991 29632597
" />
<path d="M55029117.748463 89536209.932595 A2999938.000000 2999938.000000 0.0 0 0 57150440.876197 93210446.462080" />
<path d="M241134230.432496 31753919.152048 A2999931.000000 2999931.000000 0.0 0 0 237459991.030294 29632597.113048" />
<path d="M72090092.595536 29920676.891624 A1950001.000000 1950001.000000 0.0 0 0 73468954.940663 32308931.221449" />
<path d="M18640413.164372 70986063.386525 A3000032.000000 3000032.000000 0.0 0 0 22314644.680769 68864743.914459" />
<path d="M247566871 67351942
L233995641 70988345
" />
<path d="M214628893 6244865
L221500525 31890137
" />
<path d="M59874843 63917498
L46303612 60281097
" />
<path d="M197606928 89538493
L191382352 66308024
" />
<path d="M61328038 4209193
L74899268 7845598
" />
<path d="M247566870.970389 67351941.889479 A2999916.000000 2999916.000000 0.0 0 0 249688190.191975 63677705.948555" />
<path d="M92946092.133660 107210266.809115 A30151253.000000 30151253.000000 0.0 0 0 88394273.099882 104582275.785800" />
<path d="M195485611.116081 93212724.433183 A3000058.000000 3000058.000000 0.0 0 0 197606928.076817 89538492.979419" />
<path d="M73468955 32308931
L87040184 35945331
" />
<path d="M26656970.854406 60193172.543311 A1949947.000000 1949947.000000 0.0 0 0 24268721.234850 61572035.062921" />
<path d="M46303612.179768 60281096.329223 A1950520.000000 1950520.000000 0.0 0 0 43902433.961754 61708251.990785" />
<path d="M163345176 39138868
L136299255 46385801
" />
<path d="M192761199.884275 63919772.568232 A1950131.000000 1950131.000000 0.0 0 0 191382351.628335 66308024.099561" />
<path d="M221500525.491796 31890136.868216 A1950026.000000 1950026.000000 0.0 0 0 223888763.972340 33268997.896763" />
<path d="M194995182.031438 6381084.992131 A1918541.000000 1918541.000000 0.0 0 0 197383427.935856 7759944.775524" />
<path d="M230321402.065996 68867021.982320 A2999858.000000 2999858.000000 0.0 0 0 233995640.908868 70988344.659956" />
<path d="M181914378.995740 96849126.984101 A30154164.000000 30154164.000000 0.0 0 0 176975373.982641 98646776.962774" />
<path d="M165595862.827338 35947613.355597 A3049918.000000 3049918.000000 0.0 0 0 163345175.836506 39138868.013190" />
<path d="M165595863 35947614
L179167096 32311211
" />
<path d="M116336838 46383531
L136299255 46385801
" />
<path d="M40228201 63829574
L26656971 60193172
" />
<path d="M55252620.221755 7757674.172382 A1950001.000000 1950001.000000 0.0 0 0 57640862.904464 6378813.974401" />
<path d="M179167095.975172 32311210.907328 A1949928.000000 1949928.000000 0.0 0 0 180545952.995823 29922962.001119" />
<path d="M22314645 68864744
L24268721 61572035
" />
<path d="M70721668 96846844
L57150441 93210446
" />
<path d="M145408005.008218 116416297.047214 A6895898.000000 6895898.000000 0.0 0 0 148180897.021015 115271273.030012" />
<path d="M164241777.969384 104584547.934346 A30155144.000000 30155144.000000 0.0 0 0 159689963.901853 107212540.859830" />
<path d="M15176052 29630319
L28747280 33266722
" />
<path d="M41681391.258568 4121277.035018 A2999996.000000 2999996.000000 0.0 0 0 38007154.584051 6242595.888547" />
<path d="M206332432 60283371
L192761200 63919773
" />
<g >
</g>
<g >
</g>
<g >
</g>
<g >
</g>
<g >
</g>
<g >
</g>
<g >
</g>
<g >
</g>
<g >
</g>
<g >
</g>
<g >
</g>
<g >
</g>
<g >
</g>
<g >
</g>
<g >
</g>
<g >
</g>
<g >
</g>
<g >
</g>
<g >
</g>
<g >
</g>
<g >
</g>
<g >
</g>
<g >
</g>
<g >
</g>
<g >
</g>
<g >
</g>
<g >
</g>
<g >
</g>
<g >
</g>
<g >
</g>
<g >
</g>
<g >
</g>
<g >
</g>
<g >
</g>
<g >
</g>
<g >
</g>
<g >
</g>
<g >
</g>
<g >
</g>
<g >
</g>
<g >
</g>
<g >
</g>
<g >
</g>
<g >
</g>
<g >
</g>
<g >
</g>
<g >
</g>
<g >
</g>
<g >
</g>
<g >
</g>
<g >
</g>
<g >
</g>
<g >
</g>
<g >
</g>
<g >
</g>
<g >
</g>
<g >
</g>
<g >
</g>
<g >
</g>
<g >
</g>
<g >
</g>
<g >
</g>
<g >
</g>
<g >
</g>
<g >
</g>
<g >
</g>
<g >
</g>
<g >
</g>
<g >
</g>
<g >
</g>
<g >
</g>
<g >
</g>
<g >
</g>
<g >
</g>
<g >
</g>
</g> 
</svg>
