<?xml version="1.0" encoding="UTF-8" standalone="no"?>
<svg
   version="1.1"
   width="24.452580cm"
   height="10.774680cm"
   viewBox="0 0 244525800 107746800"
   id="svg1454"
   sodipodi:docname="switch-outline.svg"
   inkscape:version="1.1.1 (3bf5ae0d25, 2021-09-20)"
   xmlns:inkscape="http://www.inkscape.org/namespaces/inkscape"
   xmlns:sodipodi="http://sodipodi.sourceforge.net/DTD/sodipodi-0.dtd"
   xmlns="http://www.w3.org/2000/svg"
   xmlns:svg="http://www.w3.org/2000/svg"
   xmlns:rdf="http://www.w3.org/1999/02/22-rdf-syntax-ns#"
   xmlns:cc="http://creativecommons.org/ns#"
   xmlns:dc="http://purl.org/dc/elements/1.1/">
  <defs
     id="defs1458" />
  <sodipodi:namedview
     id="namedview1456"
     pagecolor="#ffffff"
     bordercolor="#666666"
     borderopacity="1.0"
     inkscape:pageshadow="2"
     inkscape:pageopacity="0.0"
     inkscape:pagecheckerboard="0"
     inkscape:document-units="cm"
     showgrid="false"
     inkscape:zoom="2.2895676"
     inkscape:cx="468.42906"
     inkscape:cy="199.81939"
     inkscape:window-width="3440"
     inkscape:window-height="1377"
     inkscape:window-x="-8"
     inkscape:window-y="-8"
     inkscape:window-maximized="1"
     inkscape:current-layer="g1452" />
  <title
     id="title2">SVG Picture created as greenthumb-brd.svg date 2022/06/11 01:54:00 </title>
  <desc
     id="desc4">Picture generated by PCBNEW </desc>
  <g
     style="fill:#000000; fill-opacity:1.000000;stroke:#000000; stroke-opacity:1.000000; stroke-linecap:round; stroke-linejoin:round;"
     transform="translate(0 0) scale(1 1)"
     id="g6" />
  <g
     style="fill:#000000; fill-opacity:0.0;  stroke:#000000; stroke-width:0.000000; stroke-opacity:1;  stroke-linecap:round; stroke-linejoin:round;"
     id="g8" />
  <g
     style="fill:#848484; fill-opacity:0.0;  stroke:#848484; stroke-width:0.000000; stroke-opacity:1;  stroke-linecap:round; stroke-linejoin:round;"
     id="g10" />
  <g
     style="fill:#848484; fill-opacity:0.0;  stroke:#848484; stroke-width:150000.000000; stroke-opacity:1;  stroke-linecap:round; stroke-linejoin:round;"
     id="g1452">
    <path
       d="M27446080 37345706 L41934968 41227992 "
       id="path1030" />
    <path
       d="M23563794 51834594 L27446080 37345706 "
       id="path1032" />
    <path
       d="M38052682 55716880 L23563794 51834594 "
       id="path1034" />
    <path
       d="M41934968 41227992 L38052682 55716880 "
       id="path1036" />
    <path
       d="M57939605 70363039 L72428493 74245325 "
       id="path1038" />
    <path
       d="M72428493 74245325 L68546207 88734213 "
       id="path1040" />
    <path
       d="M68546207 88734213 L54057319 84851927 "
       id="path1042" />
    <path
       d="M54057319 84851927 L57939605 70363039 "
       id="path1044" />
    <path
       d="M57699360 55804802 L43210472 51922516 "
       id="path1046" />
    <path
       d="M61581646 41315914 L57699360 55804802 "
       id="path1048" />
    <path
       d="M43210472 51922516 L47092758 37433628 "
       id="path1050" />
    <path
       d="M47092758 37433628 L61581646 41315914 "
       id="path1052" />
    <path
       d="M90717519 99072873 L99321166 86785592 "
       id="path1054" />
    <path
       d="M99321166 86785592 L111608447 95389239 "
       id="path1056" />
    <path
       d="M103004800 107676520 L90717519 99072873 "
       id="path1058" />
    <path
       d="M111608447 95389239 L103004800 107676520 "
       id="path1060" />
    <path
       d="M96345694 58395484 L92463408 72884372 "
       id="path1062" />
    <path
       d="M81856806 54513198 L96345694 58395484 "
       id="path1064" />
    <path
       d="M77974520 69002086 L81856806 54513198 "
       id="path1066" />
    <path
       d="M92463408 72884372 L77974520 69002086 "
       id="path1068" />
    <path
       d="M5858251 44502210 L20347139 48384496 "
       id="path1070" />
    <path
       d="M1975965 58991098 L5858251 44502210 "
       id="path1072" />
    <path
       d="M16464853 62873384 L1975965 58991098 "
       id="path1074" />
    <path
       d="M20347139 48384496 L16464853 62873384 "
       id="path1076" />
    <path
       d="M69068825 28828235 L83557713 32710521 "
       id="path1078" />
    <path
       d="M65186539 43317123 L69068825 28828235 "
       id="path1080" />
    <path
       d="M83557713 32710521 L79675427 47199409 "
       id="path1082" />
    <path
       d="M79675427 47199409 L65186539 43317123 "
       id="path1084" />
    <path
       d="M79348775 76764111 L92943391 83103385 "
       id="path1086" />
    <path
       d="M86604117 96698001 L73009501 90358727 "
       id="path1088" />
    <path
       d="M92943391 83103385 L86604117 96698001 "
       id="path1090" />
    <path
       d="M73009501 90358727 L79348775 76764111 "
       id="path1092" />
    <path
       d="M78640146 51063107 L74757860 65551995 "
       id="path1094" />
    <path
       d="M74757860 65551995 L60268972 61669709 "
       id="path1096" />
    <path
       d="M60268972 61669709 L64151258 47180821 "
       id="path1098" />
    <path
       d="M64151258 47180821 L78640146 51063107 "
       id="path1100" />
    <path
       d="M46852529 22875396 L42970243 37364284 "
       id="path1102" />
    <path
       d="M42970243 37364284 L28481355 33481998 "
       id="path1104" />
    <path
       d="M28481355 33481998 L32363641 18993110 "
       id="path1106" />
    <path
       d="M32363641 18993110 L46852529 22875396 "
       id="path1108" />
    <path
       d="M53045601 15217335 L56927887 728447 "
       id="path1110" />
    <path
       d="M56927887 728447 L71416775 4610733 "
       id="path1112" />
    <path
       d="M67534489 19099621 L53045601 15217335 "
       id="path1114" />
    <path
       d="M71416775 4610733 L67534489 19099621 "
       id="path1116" />
    <path
       d="M86774368 36160611 L101263256 40042897 "
       id="path1118" />
    <path
       d="M97380970 54531785 L82892082 50649499 "
       id="path1120" />
    <path
       d="M101263256 40042897 L97380970 54531785 "
       id="path1122" />
    <path
       d="M82892082 50649499 L86774368 36160611 "
       id="path1124" />
    <path
       d="M52010323 19081036 L66499211 22963322 "
       id="path1126" />
    <path
       d="M48128037 33569924 L52010323 19081036 "
       id="path1128" />
    <path
       d="M62616925 37452210 L48128037 33569924 "
       id="path1130" />
    <path
       d="M66499211 22963322 L62616925 37452210 "
       id="path1132" />
    <path
       d="M33398917 15129415 L37281203 640527 "
       id="path1134" />
    <path
       d="M37281203 640527 L51770091 4522813 "
       id="path1136" />
    <path
       d="M51770091 4522813 L47887805 19011701 "
       id="path1138" />
    <path
       d="M47887805 19011701 L33398917 15129415 "
       id="path1140" />
    <path
       d="M25264704 30031904 L21382418 44520792 "
       id="path1142" />
    <path
       d="M10775816 26149618 L25264704 30031904 "
       id="path1144" />
    <path
       d="M6893530 40638506 L10775816 26149618 "
       id="path1146" />
    <path
       d="M21382418 44520792 L6893530 40638506 "
       id="path1148" />
    <path
       d="M146739497 86787862 L155343144 99075143 "
       id="path1150" />
    <path
       d="M155343144 99075143 L143055863 107678790 "
       id="path1152" />
    <path
       d="M134452216 95391509 L146739497 86787862 "
       id="path1154" />
    <path
       d="M143055863 107678790 L134452216 95391509 "
       id="path1156" />
    <path
       d="M208007977 55719151 L204125691 41230263 "
       id="path1158" />
    <path
       d="M204125691 41230263 L218614579 37347977 "
       id="path1160" />
    <path
       d="M222496865 51836865 L208007977 55719151 "
       id="path1162" />
    <path
       d="M218614579 37347977 L222496865 51836865 "
       id="path1164" />
    <path
       d="M159456542 96700272 L153117268 83105656 "
       id="path1166" />
    <path
       d="M166711884 76766382 L173051158 90360998 "
       id="path1168" />
    <path
       d="M153117268 83105656 L166711884 76766382 "
       id="path1170" />
    <path
       d="M173051158 90360998 L159456542 96700272 "
       id="path1172" />
    <path
       d="M188121054 70365320 L192003340 84854208 "
       id="path1174" />
    <path
       d="M173632166 74247606 L188121054 70365320 "
       id="path1176" />
    <path
       d="M192003340 84854208 L177514452 88736494 "
       id="path1178" />
    <path
       d="M177514452 88736494 L173632166 74247606 "
       id="path1180" />
    <path
       d="M240202411 44504490 L244084697 58993378 "
       id="path1182" />
    <path
       d="M244084697 58993378 L229595809 62875664 "
       id="path1184" />
    <path
       d="M229595809 62875664 L225713523 48386776 "
       id="path1186" />
    <path
       d="M225713523 48386776 L240202411 44504490 "
       id="path1188" />
    <path
       d="M153597255 72886651 L149714969 58397763 "
       id="path1190" />
    <path
       d="M168086143 69004365 L153597255 72886651 "
       id="path1192" />
    <path
       d="M149714969 58397763 L164203857 54515477 "
       id="path1194" />
    <path
       d="M164203857 54515477 L168086143 69004365 "
       id="path1196" />
    <path
       d="M181909403 47183101 L185791689 61671989 "
       id="path1198" />
    <path
       d="M185791689 61671989 L171302801 65554275 "
       id="path1200" />
    <path
       d="M167420515 51065387 L181909403 47183101 "
       id="path1202" />
    <path
       d="M171302801 65554275 L167420515 51065387 "
       id="path1204" />
    <path
       d="M198967895 37435905 L202850181 51924793 "
       id="path1206" />
    <path
       d="M184479007 41318191 L198967895 37435905 "
       id="path1208" />
    <path
       d="M202850181 51924793 L188361293 55807079 "
       id="path1210" />
    <path
       d="M188361293 55807079 L184479007 41318191 "
       id="path1212" />
    <path
       d="M220795954 30034182 L235284842 26151896 "
       id="path1214" />
    <path
       d="M224678240 44523070 L220795954 30034182 "
       id="path1216" />
    <path
       d="M239167128 40640784 L224678240 44523070 "
       id="path1218" />
    <path
       d="M235284842 26151896 L239167128 40640784 "
       id="path1220" />
    <path
       d="M212661743 15131685 L198172855 19013971 "
       id="path1222" />
    <path
       d="M198172855 19013971 L194290569 4525083 "
       id="path1224" />
    <path
       d="M208779457 642797 L212661743 15131685 "
       id="path1226" />
    <path
       d="M194290569 4525083 L208779457 642797 "
       id="path1228" />
    <path
       d="M193015055 15219619 L178526167 19101905 "
       id="path1230" />
    <path
       d="M174643881 4613017 L189132769 730731 "
       id="path1232" />
    <path
       d="M178526167 19101905 L174643881 4613017 "
       id="path1234" />
    <path
       d="M189132769 730731 L193015055 15219619 "
       id="path1236" />
    <path
       d="M163168585 50651775 L148679697 54534061 "
       id="path1238" />
    <path
       d="M144797411 40045173 L159286299 36162887 "
       id="path1240" />
    <path
       d="M159286299 36162887 L163168585 50651775 "
       id="path1242" />
    <path
       d="M148679697 54534061 L144797411 40045173 "
       id="path1244" />
    <path
       d="M199208131 22877675 L213697019 18995389 "
       id="path1246" />
    <path
       d="M203090417 37366563 L199208131 22877675 "
       id="path1248" />
    <path
       d="M217579305 33484277 L203090417 37366563 "
       id="path1250" />
    <path
       d="M213697019 18995389 L217579305 33484277 "
       id="path1252" />
    <path
       d="M180874121 43319404 L166385233 47201690 "
       id="path1254" />
    <path
       d="M162502947 32712802 L176991835 28830516 "
       id="path1256" />
    <path
       d="M176991835 28830516 L180874121 43319404 "
       id="path1258" />
    <path
       d="M166385233 47201690 L162502947 32712802 "
       id="path1260" />
    <path
       d="M194050333 19083319 L197932619 33572207 "
       id="path1262" />
    <path
       d="M179561445 22965605 L194050333 19083319 "
       id="path1264" />
    <path
       d="M183443731 37454493 L179561445 22965605 "
       id="path1266" />
    <path
       d="M197932619 33572207 L183443731 37454493 "
       id="path1268" />
    <g
       id="g1304" />
    <g
       id="g1306" />
    <g
       id="g1308" />
    <g
       id="g1310" />
    <g
       id="g1312" />
    <g
       id="g1314" />
    <g
       id="g1316" />
    <g
       id="g1318" />
    <g
       id="g1320" />
    <g
       id="g1322" />
    <g
       id="g1324" />
    <g
       id="g1326" />
    <g
       id="g1328" />
    <g
       id="g1330" />
    <g
       id="g1332" />
    <g
       id="g1334" />
    <g
       id="g1336" />
    <g
       id="g1338" />
    <g
       id="g1340" />
    <g
       id="g1342" />
    <g
       id="g1344" />
    <g
       id="g1346" />
    <g
       id="g1348" />
    <g
       id="g1350" />
    <g
       id="g1352" />
    <g
       id="g1354" />
    <g
       id="g1356" />
    <g
       id="g1358" />
    <g
       id="g1360" />
    <g
       id="g1362" />
    <g
       id="g1364" />
    <g
       id="g1366" />
    <g
       id="g1368" />
    <g
       id="g1370" />
    <g
       id="g1372" />
    <g
       id="g1374" />
    <g
       id="g1376" />
    <g
       id="g1378" />
    <g
       id="g1380" />
    <g
       id="g1382" />
    <g
       id="g1384" />
    <g
       id="g1386" />
    <g
       id="g1388" />
    <g
       id="g1390" />
    <g
       id="g1392" />
    <g
       id="g1394" />
    <g
       id="g1396" />
    <g
       id="g1398" />
    <g
       id="g1400" />
    <g
       id="g1402" />
    <g
       id="g1404" />
    <g
       id="g1406" />
    <g
       id="g1408" />
    <g
       id="g1410" />
    <g
       id="g1412" />
    <g
       id="g1414" />
    <g
       id="g1416" />
    <g
       id="g1418" />
    <g
       id="g1420" />
    <g
       id="g1422" />
    <g
       id="g1424" />
    <g
       id="g1426" />
    <g
       id="g1428" />
    <g
       id="g1430" />
    <g
       id="g1432" />
    <g
       id="g1434" />
    <g
       id="g1436" />
    <g
       id="g1438" />
    <g
       id="g1440" />
    <g
       id="g1442" />
    <g
       id="g1444" />
    <g
       id="g1446" />
    <g
       id="g1448" />
    <g
       id="g1450" />
  </g>
  <metadata
     id="metadata2275">
    <rdf:RDF>
      <cc:Work
         rdf:about="">
        <dc:title>SVG Picture created as greenthumb-brd.svg date 2022/06/11 01:54:00 </dc:title>
      </cc:Work>
    </rdf:RDF>
  </metadata>
</svg>
