<?xml version="1.0" encoding="UTF-8" standalone="no"?>
<svg
   version="1.1"
   width="24.452580cm"
   height="10.774680cm"
   viewBox="0 0 244525800 107746800"
   id="svg2840"
   sodipodi:docname="greenthumb-brd.svg"
   inkscape:version="1.1.1 (3bf5ae0d25, 2021-09-20)"
   xmlns:inkscape="http://www.inkscape.org/namespaces/inkscape"
   xmlns:sodipodi="http://sodipodi.sourceforge.net/DTD/sodipodi-0.dtd"
   xmlns="http://www.w3.org/2000/svg"
   xmlns:svg="http://www.w3.org/2000/svg"
   xmlns:rdf="http://www.w3.org/1999/02/22-rdf-syntax-ns#"
   xmlns:cc="http://creativecommons.org/ns#"
   xmlns:dc="http://purl.org/dc/elements/1.1/">
  <defs
     id="defs2844" />
  <sodipodi:namedview
     id="namedview2842"
     pagecolor="#ffffff"
     bordercolor="#666666"
     borderopacity="1.0"
     inkscape:pageshadow="2"
     inkscape:pageopacity="0.0"
     inkscape:pagecheckerboard="0"
     inkscape:document-units="cm"
     showgrid="false"
     inkscape:zoom="2.2895676"
     inkscape:cx="433.92473"
     inkscape:cy="160.07389"
     inkscape:window-width="3440"
     inkscape:window-height="1377"
     inkscape:window-x="-8"
     inkscape:window-y="-8"
     inkscape:window-maximized="1"
     inkscape:current-layer="svg2840" />
  <title
     id="title2">SVG Picture created as greenthumb-brd.svg date 2022/06/11 01:57:13 </title>
  <desc
     id="desc4">Picture generated by PCBNEW </desc>
  <g
     style="fill:#000000; fill-opacity:1.000000;stroke:#000000; stroke-opacity:1.000000; stroke-linecap:round; stroke-linejoin:round;"
     transform="translate(0 0) scale(1 1)"
     id="g6" />
  <g
     style="fill:#000000; fill-opacity:0.0;  stroke:#000000; stroke-width:0.000000; stroke-opacity:1;  stroke-linecap:round; stroke-linejoin:round;"
     id="g8" />
  <g
     style="fill:#848484; fill-opacity:0.0;  stroke:#848484; stroke-width:0.000000; stroke-opacity:1;  stroke-linecap:round; stroke-linejoin:round;"
     id="g10" />
  <g
     style="fill:#000000; fill-opacity:0.0;  stroke:#000000; stroke-width:50000.000000; stroke-opacity:1;  stroke-linecap:round; stroke-linejoin:round;"
     id="g402" />
  <g
     style="fill:#008484; fill-opacity:0.0;  stroke:#008484; stroke-width:50000.000000; stroke-opacity:1;  stroke-linecap:round; stroke-linejoin:round;"
     id="g404" />
  <g
     style="fill:#008484; fill-opacity:0.0;  stroke:#008484; stroke-width:120000.000000; stroke-opacity:1;  stroke-linecap:round; stroke-linejoin:round;"
     id="g522">
    <path
       d="M131926940 41829869 L131926940 60371869 "
       id="path498" />
    <path
       d="M130656940 61641869 L115416940 61641869 "
       id="path500" />
    <path
       d="M115416940 40559869 L130656940 40559869 "
       id="path502" />
    <path
       d="M114146940 60371869 L114146940 41829869 "
       id="path504" />
    <path
       d="M118536940 40559869 L127536940 40559869 "
       id="path506" />
    <path
       d="M127536940 40559869 L127536940 39035869 "
       id="path508" />
    <path
       d="M127536940 39035869 L118536940 39035869 "
       id="path510" />
    <path
       d="M118536940 39035869 L118536940 40559869 "
       id="path512" />
    <path
       d="M114146940.000000 60371869.000000 A1269999.000000 1269999.000000 0.0 0 0 115416940.000000 61641869.000000"
       id="path514" />
    <path
       d="M130656940.000000 61641869.000000 A1269999.000000 1269999.000000 0.0 0 0 131926940.000000 60371869.000000"
       id="path516" />
    <path
       d="M131926940.000000 41829869.000000 A1269999.000000 1269999.000000 0.0 0 0 130656940.000000 40559869.000000"
       id="path518" />
    <path
       d="M115416940.000000 40559869.000000 A1269999.000000 1269999.000000 0.0 0 0 114146940.000000 41829869.000000"
       id="path520" />
  </g>
  <g
     style="fill:#000000; fill-opacity:0.0;  stroke:#000000; stroke-width:150000.000000; stroke-opacity:1;  stroke-linecap:round; stroke-linejoin:round;"
     id="g1224" />
  <g
     style="fill:#C2C2C2; fill-opacity:0.0;  stroke:#C2C2C2; stroke-width:150000.000000; stroke-opacity:1;  stroke-linecap:round; stroke-linejoin:round;"
     id="g1226" />
  <g
     style="fill:#C2C2C2; fill-opacity:0.0;  stroke:#C2C2C2; stroke-width:50000.000000; stroke-opacity:1;  stroke-linecap:round; stroke-linejoin:round;"
     id="g1392">
    <circle
       cx="52966940.000000"
       cy="17233869.000000"
       r="3450000.000000"
       id="circle1228" />
    <circle
       cx="161525200.000000"
       cy="37148954.000000"
       r="3450000.000000"
       id="circle1230" />
    <circle
       cx="84265198.000000"
       cy="37758952.000000"
       r="3450000.000000"
       id="circle1232" />
    <circle
       cx="170045198.000000"
       cy="75208953.000000"
       r="3450000.000000"
       id="circle1234" />
    <circle
       cx="7166940.000000"
       cy="42733869.000000"
       r="3450000.000000"
       id="circle1236" />
    <circle
       cx="238666940.000000"
       cy="42733869.000000"
       r="3450000.000000"
       id="circle1238" />
    <circle
       cx="193166940.000000"
       cy="17233869.000000"
       r="3450000.000000"
       id="circle1240" />
    <circle
       cx="76005197.000000"
       cy="75158950.000000"
       r="3450000.000000"
       id="circle1242" />
    <g
       id="g1244" />
    <g
       id="g1246" />
    <g
       id="g1248" />
    <g
       id="g1250" />
    <g
       id="g1252" />
    <g
       id="g1254" />
    <g
       id="g1256" />
    <g
       id="g1258" />
    <g
       id="g1260" />
    <g
       id="g1262" />
    <g
       id="g1264" />
    <g
       id="g1266" />
    <g
       id="g1268" />
    <g
       id="g1270" />
    <g
       id="g1272" />
    <g
       id="g1274" />
    <g
       id="g1276" />
    <g
       id="g1278" />
    <g
       id="g1280" />
    <g
       id="g1282" />
    <g
       id="g1284" />
    <g
       id="g1286" />
    <g
       id="g1288" />
    <g
       id="g1290" />
    <g
       id="g1292" />
    <g
       id="g1294" />
    <g
       id="g1296" />
    <g
       id="g1298" />
    <g
       id="g1300" />
    <g
       id="g1302" />
    <g
       id="g1304" />
    <g
       id="g1306" />
    <g
       id="g1308" />
    <g
       id="g1310" />
    <g
       id="g1312" />
    <g
       id="g1314" />
    <g
       id="g1316" />
    <g
       id="g1318" />
    <g
       id="g1320" />
    <g
       id="g1322" />
    <g
       id="g1324" />
    <g
       id="g1326" />
    <g
       id="g1328" />
    <g
       id="g1330" />
    <g
       id="g1332" />
    <g
       id="g1334" />
    <g
       id="g1336" />
    <g
       id="g1338" />
    <g
       id="g1340" />
    <g
       id="g1342" />
    <g
       id="g1344" />
    <g
       id="g1346" />
    <g
       id="g1348" />
    <g
       id="g1350" />
    <g
       id="g1352" />
    <g
       id="g1354" />
    <g
       id="g1356" />
    <g
       id="g1358" />
    <g
       id="g1360" />
    <g
       id="g1362" />
    <g
       id="g1364" />
    <g
       id="g1366" />
    <g
       id="g1368" />
    <g
       id="g1370" />
    <g
       id="g1372" />
    <g
       id="g1374" />
    <g
       id="g1376" />
    <g
       id="g1378" />
    <g
       id="g1380" />
    <g
       id="g1382" />
    <g
       id="g1384" />
    <g
       id="g1386" />
    <g
       id="g1388" />
    <g
       id="g1390" />
  </g>
  <g
     style="fill:#000000; fill-opacity:0.0;  stroke:#000000; stroke-width:50000.000000; stroke-opacity:1;  stroke-linecap:round; stroke-linejoin:round;"
     id="g1394" />
  <g
     style="fill:#848484; fill-opacity:0.0;  stroke:#848484; stroke-width:50000.000000; stroke-opacity:1;  stroke-linecap:round; stroke-linejoin:round;"
     id="g1396" />
  <g
     style="fill:#848484; fill-opacity:0.0;  stroke:#848484; stroke-width:150000.000000; stroke-opacity:1;  stroke-linecap:round; stroke-linejoin:round;"
     id="g2838">
    <path
       d="M27446080 37345706 L41934968 41227992 "
       id="path2416" />
    <path
       d="M23563794 51834594 L27446080 37345706 "
       id="path2418" />
    <path
       d="M38052682 55716880 L23563794 51834594 "
       id="path2420" />
    <path
       d="M41934968 41227992 L38052682 55716880 "
       id="path2422" />
    <path
       d="M57939605 70363039 L72428493 74245325 "
       id="path2424" />
    <path
       d="M72428493 74245325 L68546207 88734213 "
       id="path2426" />
    <path
       d="M68546207 88734213 L54057319 84851927 "
       id="path2428" />
    <path
       d="M54057319 84851927 L57939605 70363039 "
       id="path2430" />
    <path
       d="M57699360 55804802 L43210472 51922516 "
       id="path2432" />
    <path
       d="M61581646 41315914 L57699360 55804802 "
       id="path2434" />
    <path
       d="M43210472 51922516 L47092758 37433628 "
       id="path2436" />
    <path
       d="M47092758 37433628 L61581646 41315914 "
       id="path2438" />
    <path
       d="M90717519 99072873 L99321166 86785592 "
       id="path2440" />
    <path
       d="M99321166 86785592 L111608447 95389239 "
       id="path2442" />
    <path
       d="M103004800 107676520 L90717519 99072873 "
       id="path2444" />
    <path
       d="M111608447 95389239 L103004800 107676520 "
       id="path2446" />
    <path
       d="M96345694 58395484 L92463408 72884372 "
       id="path2448" />
    <path
       d="M81856806 54513198 L96345694 58395484 "
       id="path2450" />
    <path
       d="M77974520 69002086 L81856806 54513198 "
       id="path2452" />
    <path
       d="M92463408 72884372 L77974520 69002086 "
       id="path2454" />
    <path
       d="M5858251 44502210 L20347139 48384496 "
       id="path2456" />
    <path
       d="M1975965 58991098 L5858251 44502210 "
       id="path2458" />
    <path
       d="M16464853 62873384 L1975965 58991098 "
       id="path2460" />
    <path
       d="M20347139 48384496 L16464853 62873384 "
       id="path2462" />
    <path
       d="M69068825 28828235 L83557713 32710521 "
       id="path2464" />
    <path
       d="M65186539 43317123 L69068825 28828235 "
       id="path2466" />
    <path
       d="M83557713 32710521 L79675427 47199409 "
       id="path2468" />
    <path
       d="M79675427 47199409 L65186539 43317123 "
       id="path2470" />
    <path
       d="M79348775 76764111 L92943391 83103385 "
       id="path2472" />
    <path
       d="M86604117 96698001 L73009501 90358727 "
       id="path2474" />
    <path
       d="M92943391 83103385 L86604117 96698001 "
       id="path2476" />
    <path
       d="M73009501 90358727 L79348775 76764111 "
       id="path2478" />
    <path
       d="M78640146 51063107 L74757860 65551995 "
       id="path2480" />
    <path
       d="M74757860 65551995 L60268972 61669709 "
       id="path2482" />
    <path
       d="M60268972 61669709 L64151258 47180821 "
       id="path2484" />
    <path
       d="M64151258 47180821 L78640146 51063107 "
       id="path2486" />
    <path
       d="M46852529 22875396 L42970243 37364284 "
       id="path2488" />
    <path
       d="M42970243 37364284 L28481355 33481998 "
       id="path2490" />
    <path
       d="M28481355 33481998 L32363641 18993110 "
       id="path2492" />
    <path
       d="M32363641 18993110 L46852529 22875396 "
       id="path2494" />
    <path
       d="M53045601 15217335 L56927887 728447 "
       id="path2496" />
    <path
       d="M56927887 728447 L71416775 4610733 "
       id="path2498" />
    <path
       d="M67534489 19099621 L53045601 15217335 "
       id="path2500" />
    <path
       d="M71416775 4610733 L67534489 19099621 "
       id="path2502" />
    <path
       d="M86774368 36160611 L101263256 40042897 "
       id="path2504" />
    <path
       d="M97380970 54531785 L82892082 50649499 "
       id="path2506" />
    <path
       d="M101263256 40042897 L97380970 54531785 "
       id="path2508" />
    <path
       d="M82892082 50649499 L86774368 36160611 "
       id="path2510" />
    <path
       d="M52010323 19081036 L66499211 22963322 "
       id="path2512" />
    <path
       d="M48128037 33569924 L52010323 19081036 "
       id="path2514" />
    <path
       d="M62616925 37452210 L48128037 33569924 "
       id="path2516" />
    <path
       d="M66499211 22963322 L62616925 37452210 "
       id="path2518" />
    <path
       d="M33398917 15129415 L37281203 640527 "
       id="path2520" />
    <path
       d="M37281203 640527 L51770091 4522813 "
       id="path2522" />
    <path
       d="M51770091 4522813 L47887805 19011701 "
       id="path2524" />
    <path
       d="M47887805 19011701 L33398917 15129415 "
       id="path2526" />
    <path
       d="M25264704 30031904 L21382418 44520792 "
       id="path2528" />
    <path
       d="M10775816 26149618 L25264704 30031904 "
       id="path2530" />
    <path
       d="M6893530 40638506 L10775816 26149618 "
       id="path2532" />
    <path
       d="M21382418 44520792 L6893530 40638506 "
       id="path2534" />
    <path
       d="M146739497 86787862 L155343144 99075143 "
       id="path2536" />
    <path
       d="M155343144 99075143 L143055863 107678790 "
       id="path2538" />
    <path
       d="M134452216 95391509 L146739497 86787862 "
       id="path2540" />
    <path
       d="M143055863 107678790 L134452216 95391509 "
       id="path2542" />
    <path
       d="M208007977 55719151 L204125691 41230263 "
       id="path2544" />
    <path
       d="M204125691 41230263 L218614579 37347977 "
       id="path2546" />
    <path
       d="M222496865 51836865 L208007977 55719151 "
       id="path2548" />
    <path
       d="M218614579 37347977 L222496865 51836865 "
       id="path2550" />
    <path
       d="M159456542 96700272 L153117268 83105656 "
       id="path2552" />
    <path
       d="M166711884 76766382 L173051158 90360998 "
       id="path2554" />
    <path
       d="M153117268 83105656 L166711884 76766382 "
       id="path2556" />
    <path
       d="M173051158 90360998 L159456542 96700272 "
       id="path2558" />
    <path
       d="M188121054 70365320 L192003340 84854208 "
       id="path2560" />
    <path
       d="M173632166 74247606 L188121054 70365320 "
       id="path2562" />
    <path
       d="M192003340 84854208 L177514452 88736494 "
       id="path2564" />
    <path
       d="M177514452 88736494 L173632166 74247606 "
       id="path2566" />
    <path
       d="M240202411 44504490 L244084697 58993378 "
       id="path2568" />
    <path
       d="M244084697 58993378 L229595809 62875664 "
       id="path2570" />
    <path
       d="M229595809 62875664 L225713523 48386776 "
       id="path2572" />
    <path
       d="M225713523 48386776 L240202411 44504490 "
       id="path2574" />
    <path
       d="M153597255 72886651 L149714969 58397763 "
       id="path2576" />
    <path
       d="M168086143 69004365 L153597255 72886651 "
       id="path2578" />
    <path
       d="M149714969 58397763 L164203857 54515477 "
       id="path2580" />
    <path
       d="M164203857 54515477 L168086143 69004365 "
       id="path2582" />
    <path
       d="M181909403 47183101 L185791689 61671989 "
       id="path2584" />
    <path
       d="M185791689 61671989 L171302801 65554275 "
       id="path2586" />
    <path
       d="M167420515 51065387 L181909403 47183101 "
       id="path2588" />
    <path
       d="M171302801 65554275 L167420515 51065387 "
       id="path2590" />
    <path
       d="M198967895 37435905 L202850181 51924793 "
       id="path2592" />
    <path
       d="M184479007 41318191 L198967895 37435905 "
       id="path2594" />
    <path
       d="M202850181 51924793 L188361293 55807079 "
       id="path2596" />
    <path
       d="M188361293 55807079 L184479007 41318191 "
       id="path2598" />
    <path
       d="M220795954 30034182 L235284842 26151896 "
       id="path2600" />
    <path
       d="M224678240 44523070 L220795954 30034182 "
       id="path2602" />
    <path
       d="M239167128 40640784 L224678240 44523070 "
       id="path2604" />
    <path
       d="M235284842 26151896 L239167128 40640784 "
       id="path2606" />
    <path
       d="M212661743 15131685 L198172855 19013971 "
       id="path2608" />
    <path
       d="M198172855 19013971 L194290569 4525083 "
       id="path2610" />
    <path
       d="M208779457 642797 L212661743 15131685 "
       id="path2612" />
    <path
       d="M194290569 4525083 L208779457 642797 "
       id="path2614" />
    <path
       d="M193015055 15219619 L178526167 19101905 "
       id="path2616" />
    <path
       d="M174643881 4613017 L189132769 730731 "
       id="path2618" />
    <path
       d="M178526167 19101905 L174643881 4613017 "
       id="path2620" />
    <path
       d="M189132769 730731 L193015055 15219619 "
       id="path2622" />
    <path
       d="M163168585 50651775 L148679697 54534061 "
       id="path2624" />
    <path
       d="M144797411 40045173 L159286299 36162887 "
       id="path2626" />
    <path
       d="M159286299 36162887 L163168585 50651775 "
       id="path2628" />
    <path
       d="M148679697 54534061 L144797411 40045173 "
       id="path2630" />
    <path
       d="M199208131 22877675 L213697019 18995389 "
       id="path2632" />
    <path
       d="M203090417 37366563 L199208131 22877675 "
       id="path2634" />
    <path
       d="M217579305 33484277 L203090417 37366563 "
       id="path2636" />
    <path
       d="M213697019 18995389 L217579305 33484277 "
       id="path2638" />
    <path
       d="M180874121 43319404 L166385233 47201690 "
       id="path2640" />
    <path
       d="M162502947 32712802 L176991835 28830516 "
       id="path2642" />
    <path
       d="M176991835 28830516 L180874121 43319404 "
       id="path2644" />
    <path
       d="M166385233 47201690 L162502947 32712802 "
       id="path2646" />
    <path
       d="M194050333 19083319 L197932619 33572207 "
       id="path2648" />
    <path
       d="M179561445 22965605 L194050333 19083319 "
       id="path2650" />
    <path
       d="M183443731 37454493 L179561445 22965605 "
       id="path2652" />
    <path
       d="M197932619 33572207 L183443731 37454493 "
       id="path2654" />
    <path
       d="M120666940 66933869 L120666940 64733869 "
       id="path2656" />
    <path
       d="M119066940 68433869 L119066940 67033869 "
       id="path2658" />
    <path
       d="M125866940 64733869 L124366940 63233869 "
       id="path2660" />
    <path
       d="M119066940 66933869 L120666940 66933869 "
       id="path2662" />
    <path
       d="M125866940 66933869 L127466940 66933869 "
       id="path2664" />
    <path
       d="M125866940 64733869 L125866940 66933869 "
       id="path2666" />
    <path
       d="M127466940 68433869 L119066940 68433869 "
       id="path2668" />
    <path
       d="M127466940 66933869 L127466940 68433869 "
       id="path2670" />
    <path
       d="M119066940 64733869 L119066940 63233869 "
       id="path2672" />
    <path
       d="M127466940 63233869 L127466940 64733869 "
       id="path2674" />
    <path
       d="M120666940 66933869 L122166940 68433869 "
       id="path2676" />
    <path
       d="M120666940 64733869 L122166940 63233869 "
       id="path2678" />
    <path
       d="M125866940 66933869 L124366940 68433869 "
       id="path2680" />
    <path
       d="M119066940 63233869 L127466940 63233869 "
       id="path2682" />
    <path
       d="M120666940 64733869 L119066940 64733869 "
       id="path2684" />
    <path
       d="M127466940 64733869 L125866940 64733869 "
       id="path2686" />
    <circle
       cx="123266940.000000"
       cy="65833869.000000"
       r="1000000.000000"
       id="circle2688" />
    <g
       id="g2690" />
    <g
       id="g2692" />
    <g
       id="g2694" />
    <g
       id="g2696" />
    <g
       id="g2698" />
    <g
       id="g2700" />
    <g
       id="g2702" />
    <g
       id="g2704" />
    <g
       id="g2706" />
    <g
       id="g2708" />
    <g
       id="g2710" />
    <g
       id="g2712" />
    <g
       id="g2714" />
    <g
       id="g2716" />
    <g
       id="g2718" />
    <g
       id="g2720" />
    <g
       id="g2722" />
    <g
       id="g2724" />
    <g
       id="g2726" />
    <g
       id="g2728" />
    <g
       id="g2730" />
    <g
       id="g2732" />
    <g
       id="g2734" />
    <g
       id="g2736" />
    <g
       id="g2738" />
    <g
       id="g2740" />
    <g
       id="g2742" />
    <g
       id="g2744" />
    <g
       id="g2746" />
    <g
       id="g2748" />
    <g
       id="g2750" />
    <g
       id="g2752" />
    <g
       id="g2754" />
    <g
       id="g2756" />
    <g
       id="g2758" />
    <g
       id="g2760" />
    <g
       id="g2762" />
    <g
       id="g2764" />
    <g
       id="g2766" />
    <g
       id="g2768" />
    <g
       id="g2770" />
    <g
       id="g2772" />
    <g
       id="g2774" />
    <g
       id="g2776" />
    <g
       id="g2778" />
    <g
       id="g2780" />
    <g
       id="g2782" />
    <g
       id="g2784" />
    <g
       id="g2786" />
    <g
       id="g2788" />
    <g
       id="g2790" />
    <g
       id="g2792" />
    <g
       id="g2794" />
    <g
       id="g2796" />
    <g
       id="g2798" />
    <g
       id="g2800" />
    <g
       id="g2802" />
    <g
       id="g2804" />
    <g
       id="g2806" />
    <g
       id="g2808" />
    <g
       id="g2810" />
    <g
       id="g2812" />
    <g
       id="g2814" />
    <g
       id="g2816" />
    <g
       id="g2818" />
    <g
       id="g2820" />
    <g
       id="g2822" />
    <g
       id="g2824" />
    <g
       id="g2826" />
    <g
       id="g2828" />
    <g
       id="g2830" />
    <g
       id="g2832" />
    <g
       id="g2834" />
    <g
       id="g2836" />
  </g>
  <metadata
     id="metadata3661">
    <rdf:RDF>
      <cc:Work
         rdf:about="">
        <dc:title>SVG Picture created as greenthumb-brd.svg date 2022/06/11 01:57:13 </dc:title>
      </cc:Work>
    </rdf:RDF>
  </metadata>
</svg>
