999
"DXF R12 Output" (www.mydxf.blogspot.com)
 0 
SECTION
 2 
HEADER
 9 
$ACADVER
 1 
AC1009
 9 
$EXTMIN
 10 
 0 
 20 
 0 
 9 
$EXTMAX
 10 
 8.5 
 20 
 11 
 0 
ENDSEC
 0 
SECTION
 2 
ENTITIES
0
LINE
8
Layer 1
10
0.846666
20
317.647000
11
-0.846666
21
315.953000
0
LINE
8
Layer 1
10
0.000000
20
318.211000
11
0.000000
21
315.389000
0
LINE
8
Layer 1
10
2.257780
20
315.671000
11
1.128890
21
314.542110
0
LINE
8
Layer 1
10
1.693330
20
316.236000
11
0.564440
21
315.107110
0
LINE
8
Layer 1
10
1.128890
20
316.800000
11
0.000000
21
315.671110
0
LINE
8
Layer 1
10
29.275700
20
-39.834600
11
44.730500
21
-43.975700
0
LINE
8
Layer 1
10
25.134600
20
-55.289400
11
29.275700
21
-39.834600
0
LINE
8
Layer 1
10
40.589400
20
-59.430500
11
25.134600
21
-55.289400
0
LINE
8
Layer 1
10
44.730500
20
-43.975700
11
40.589410
21
-59.430500
0
LINE
8
Layer 1
10
61.802100
20
-75.053000
11
77.256900
21
-79.194100
0
LINE
8
Layer 1
10
77.256900
20
-79.194100
11
73.115810
21
-94.648900
0
LINE
8
Layer 1
10
73.115810
20
-94.648900
11
57.661010
21
-90.507800
0
LINE
8
Layer 1
10
57.661010
20
-90.507800
11
61.802100
21
-75.053000
0
LINE
8
Layer 1
10
61.545800
20
-59.524300
11
46.091000
21
-55.383230
0
LINE
8
Layer 1
10
65.686900
20
-44.069500
11
61.545810
21
-59.524300
0
LINE
8
Layer 1
10
46.091000
20
-55.383200
11
50.232090
21
-39.928400
0
LINE
8
Layer 1
10
50.232090
20
-39.928400
11
65.686890
21
-44.069500
0
LINE
8
Layer 1
10
96.765100
20
-105.677000
11
105.942300
21
-92.570600
0
LINE
8
Layer 1
10
105.942300
20
-92.570600
11
119.048700
21
-101.747780
0
LINE
8
Layer 1
10
109.871000
20
-114.854000
11
96.764600
21
-105.676790
0
LINE
8
Layer 1
10
119.049000
20
-101.748000
11
109.871800
21
-114.854400
0
LINE
8
Layer 1
10
102.768000
20
-62.287700
11
98.626910
21
-77.742500
0
LINE
8
Layer 1
10
87.313700
20
-58.146600
11
102.768500
21
-62.287700
0
LINE
8
Layer 1
10
83.172600
20
-73.601300
11
87.313690
21
-58.146500
0
LINE
8
Layer 1
10
98.627400
20
-77.742400
11
83.172600
21
-73.601300
0
LINE
8
Layer 1
10
6.248780
20
-47.468200
11
21.703580
21
-51.609270
0
LINE
8
Layer 1
10
2.107690
20
-62.923000
11
6.248780
21
-47.468200
0
LINE
8
Layer 1
10
17.562500
20
-67.064100
11
2.107690
21
-62.923000
0
LINE
8
Layer 1
10
21.703600
20
-51.609300
11
17.562510
21
-67.064100
0
LINE
8
Layer 1
10
73.673200
20
-30.749400
11
89.128000
21
-34.890470
0
LINE
8
Layer 1
10
69.532100
20
-46.204100
11
73.673190
21
-30.749300
0
LINE
8
Layer 1
10
89.128000
20
-34.890400
11
84.986910
21
-50.345200
0
LINE
8
Layer 1
10
84.986910
20
-50.345200
11
69.532110
21
-46.204100
0
LINE
8
Layer 1
10
84.638500
20
-81.880800
11
99.139400
21
-88.642670
0
LINE
8
Layer 1
10
92.377500
20
-103.144000
11
77.876600
21
-96.382130
0
LINE
8
Layer 1
10
99.139400
20
-88.642700
11
92.377530
21
-103.143600
0
LINE
8
Layer 1
10
77.876600
20
-96.381700
11
84.638480
21
-81.880800
0
LINE
8
Layer 1
10
83.882600
20
-54.466500
11
79.741510
21
-69.921300
0
LINE
8
Layer 1
10
79.741510
20
-69.921300
11
64.286710
21
-65.780200
0
LINE
8
Layer 1
10
64.286710
20
-65.780200
11
68.427800
21
-50.325400
0
LINE
8
Layer 1
10
68.427800
20
-50.325400
11
83.882600
21
-54.466500
0
LINE
8
Layer 1
10
49.975900
20
-24.399700
11
45.834800
21
-39.854500
0
LINE
8
Layer 1
10
45.834800
20
-39.854500
11
30.380000
21
-35.713400
0
LINE
8
Layer 1
10
30.380000
20
-35.713400
11
34.521090
21
-20.258600
0
LINE
8
Layer 1
10
34.521090
20
-20.258600
11
49.975900
21
-24.399700
0
LINE
8
Layer 1
10
56.581800
20
-16.231100
11
60.722890
21
-0.776300
0
LINE
8
Layer 1
10
60.722890
20
-0.776300
11
76.177690
21
-4.917400
0
LINE
8
Layer 1
10
72.036600
20
-20.372200
11
56.581800
21
-16.231100
0
LINE
8
Layer 1
10
76.177700
20
-4.917420
11
72.036610
21
-20.372220
0
LINE
8
Layer 1
10
92.559100
20
-38.570500
11
108.013900
21
-42.711600
0
LINE
8
Layer 1
10
103.873000
20
-58.166400
11
88.418000
21
-54.025300
0
LINE
8
Layer 1
10
108.014000
20
-42.711600
11
103.872910
21
-58.166400
0
LINE
8
Layer 1
10
88.418000
20
-54.025300
11
92.559090
21
-38.570500
0
LINE
8
Layer 1
10
55.477500
20
-20.352400
11
70.932300
21
-24.493500
0
LINE
8
Layer 1
10
51.336400
20
-35.807200
11
55.477490
21
-20.352400
0
LINE
8
Layer 1
10
66.791200
20
-39.948200
11
51.336400
21
-35.807130
0
LINE
8
Layer 1
10
70.932300
20
-24.493500
11
66.791200
21
-39.948300
0
LINE
8
Layer 1
10
35.625400
20
-16.137300
11
39.766490
21
-0.682500
0
LINE
8
Layer 1
10
39.766490
20
-0.682500
11
55.221290
21
-4.823600
0
LINE
8
Layer 1
10
55.221290
20
-4.823600
11
51.080200
21
-20.278400
0
LINE
8
Layer 1
10
51.080200
20
-20.278400
11
35.625400
21
-16.137300
0
LINE
8
Layer 1
10
26.948900
20
-32.033200
11
22.807810
21
-47.488000
0
LINE
8
Layer 1
10
11.494200
20
-27.892200
11
26.949000
21
-32.033270
0
LINE
8
Layer 1
10
7.353080
20
-43.346900
11
11.494170
21
-27.892100
0
LINE
8
Layer 1
10
22.807900
20
-47.488000
11
7.353100
21
-43.346900
0
LINE
8
Layer 1
10
156.522000
20
-92.572800
11
165.699200
21
-105.679200
0
LINE
8
Layer 1
10
165.699200
20
-105.679200
11
152.592800
21
-114.856380
0
LINE
8
Layer 1
10
143.415000
20
-101.750000
11
156.521400
21
-92.572820
0
LINE
8
Layer 1
10
152.593000
20
-114.856000
11
143.415800
21
-101.749600
0
LINE
8
Layer 1
10
221.875000
20
-59.432900
11
217.733910
21
-43.978100
0
LINE
8
Layer 1
10
217.733910
20
-43.978100
11
233.188710
21
-39.837000
0
LINE
8
Layer 1
10
237.329000
20
-55.291800
11
221.874200
21
-59.432900
0
LINE
8
Layer 1
10
233.188000
20
-39.837100
11
237.329090
21
-55.291900
0
LINE
8
Layer 1
10
170.087000
20
-103.146000
11
163.325120
21
-88.645100
0
LINE
8
Layer 1
10
177.826000
20
-81.883300
11
184.587880
21
-96.384200
0
LINE
8
Layer 1
10
163.325000
20
-88.645100
11
177.825900
21
-81.883230
0
LINE
8
Layer 1
10
184.587000
20
-96.384100
11
170.086100
21
-103.145970
0
LINE
8
Layer 1
10
200.662000
20
-75.055500
11
204.803090
21
-90.510300
0
LINE
8
Layer 1
10
185.207000
20
-79.196600
11
200.661800
21
-75.055500
0
LINE
8
Layer 1
10
204.803000
20
-90.510200
11
189.348200
21
-94.651270
0
LINE
8
Layer 1
10
189.348200
20
-94.651270
11
185.207110
21
-79.196470
0
LINE
8
Layer 1
10
256.215000
20
-47.470700
11
260.356090
21
-62.925500
0
LINE
8
Layer 1
10
260.356090
20
-62.925500
11
244.901290
21
-67.066600
0
LINE
8
Layer 1
10
244.901290
20
-67.066600
11
240.760200
21
-51.611800
0
LINE
8
Layer 1
10
240.760200
20
-51.611800
11
256.215000
21
-47.470700
0
LINE
8
Layer 1
10
163.837000
20
-77.744900
11
159.695910
21
-62.290100
0
LINE
8
Layer 1
10
179.291000
20
-73.603800
11
163.836200
21
-77.744870
0
LINE
8
Layer 1
10
159.696000
20
-62.290100
11
175.150800
21
-58.149000
0
LINE
8
Layer 1
10
175.150800
20
-58.149000
11
179.291890
21
-73.603800
0
LINE
8
Layer 1
10
194.036000
20
-50.327800
11
198.177090
21
-65.782600
0
LINE
8
Layer 1
10
198.177090
20
-65.782600
11
182.722290
21
-69.923700
0
LINE
8
Layer 1
10
178.581000
20
-54.468900
11
194.035800
21
-50.327800
0
LINE
8
Layer 1
10
182.723000
20
-69.923700
11
178.581910
21
-54.468900
0
LINE
8
Layer 1
10
212.232000
20
-39.930800
11
216.373090
21
-55.385600
0
LINE
8
Layer 1
10
196.777000
20
-44.071900
11
212.231800
21
-39.930800
0
LINE
8
Layer 1
10
216.373000
20
-55.385600
11
200.918200
21
-59.526670
0
LINE
8
Layer 1
10
200.918200
20
-59.526670
11
196.777110
21
-44.071870
0
LINE
8
Layer 1
10
235.515000
20
-32.035700
11
250.969800
21
-27.894600
0
LINE
8
Layer 1
10
239.656000
20
-47.490500
11
235.514910
21
-32.035700
0
LINE
8
Layer 1
10
255.111000
20
-43.349400
11
239.656200
21
-47.490500
0
LINE
8
Layer 1
10
250.970000
20
-27.894600
11
255.111090
21
-43.349400
0
LINE
8
Layer 1
10
226.839000
20
-16.139700
11
211.384200
21
-20.280770
0
LINE
8
Layer 1
10
211.384200
20
-20.280770
11
207.243110
21
-4.825970
0
LINE
8
Layer 1
10
222.697000
20
-0.684962
11
226.838100
21
-16.139762
0
LINE
8
Layer 1
10
207.243000
20
-4.826060
11
222.697800
21
-0.684960
0
LINE
8
Layer 1
10
205.882000
20
-16.233500
11
190.427200
21
-20.374600
0
LINE
8
Layer 1
10
186.286000
20
-4.919840
11
201.741000
21
-0.778772
0
LINE
8
Layer 1
10
190.427000
20
-20.374600
11
186.285910
21
-4.919800
0
LINE
8
Layer 1
10
201.741000
20
-0.778772
11
205.882090
21
-16.233572
0
LINE
8
Layer 1
10
174.046000
20
-54.027700
11
158.591200
21
-58.168800
0
LINE
8
Layer 1
10
154.450000
20
-42.714100
11
169.904800
21
-38.573000
0
LINE
8
Layer 1
10
169.904800
20
-38.573000
11
174.045890
21
-54.027800
0
LINE
8
Layer 1
10
158.591000
20
-58.168800
11
154.449910
21
-42.714000
0
LINE
8
Layer 1
10
212.488000
20
-24.402100
11
227.942800
21
-20.261000
0
LINE
8
Layer 1
10
216.629000
20
-39.856900
11
212.487910
21
-24.402100
0
LINE
8
Layer 1
10
232.084000
20
-35.715800
11
216.629200
21
-39.856870
0
LINE
8
Layer 1
10
227.943000
20
-20.261000
11
232.084090
21
-35.715800
0
LINE
8
Layer 1
10
192.932000
20
-46.206600
11
177.477200
21
-50.347700
0
LINE
8
Layer 1
10
173.336000
20
-34.892900
11
188.790800
21
-30.751800
0
LINE
8
Layer 1
10
188.790800
20
-30.751800
11
192.931890
21
-46.206600
0
LINE
8
Layer 1
10
177.477000
20
-50.347700
11
173.335900
21
-34.892900
0
LINE
8
Layer 1
10
206.986000
20
-20.354800
11
211.127090
21
-35.809600
0
LINE
8
Layer 1
10
191.532000
20
-24.495900
11
206.986800
21
-20.354800
0
LINE
8
Layer 1
10
195.673000
20
-39.950700
11
191.531910
21
-24.495900
0
LINE
8
Layer 1
10
211.128000
20
-35.809600
11
195.673200
21
-39.950700
 0 
ENDSEC
 0 
EOF