  0
SECTION
  2
HEADER
  9
$ACADVER
  1
AC1014
  9
$HANDSEED
  5
FFFF
  9
$MEASUREMENT
 70
     1
  0
ENDSEC
  0
SECTION
  2
TABLES
  0
TABLE
  2
VPORT
  5
8
330
0
100
AcDbSymbolTable
 70
     4
  0
VPORT
  5
2E
330
8
100
AcDbSymbolTableRecord
100
AcDbViewportTableRecord
  2
*ACTIVE
 70
     0
 10
0.0
 20
0.0
 11
1.0
 21
1.0
 12
210.0
 22
148.5
 13
0.0
 23
0.0
 14
10.0
 24
10.0
 15
10.0
 25
10.0
 16
0.0
 26
0.0
 36
1.0
 17
0.0
 27
0.0
 37
0.0
 40
341.0
 41
1.24
 42
50.0
 43
0.0
 44
0.0
 50
0.0
 51
0.0
 71
     0
 72
   100
 73
     1
 74
     3
 75
     0
 76
     0
 77
     0
 78
     0
  0
ENDTAB
  0
TABLE
  2
LTYPE
  5
5
330
0
100
AcDbSymbolTable
 70
     1
  0
LTYPE
  5
14
330
5
100
AcDbSymbolTableRecord
100
AcDbLinetypeTableRecord
  2
BYBLOCK
 70
     0
  3

 72
    65
 73
     0
 40
0.0
  0
LTYPE
  5
15
330
5
100
AcDbSymbolTableRecord
100
AcDbLinetypeTableRecord
  2
BYLAYER
 70
     0
  3

 72
    65
 73
     0
 40
0.0
  0
LTYPE
  5
16
330
5
100
AcDbSymbolTableRecord
100
AcDbLinetypeTableRecord
  2
CONTINUOUS
 70
     0
  3
Solid line
 72
    65
 73
     0
 40
0.0
  0
ENDTAB
  0
TABLE
  2
LAYER
  5
2
100
AcDbSymbolTable
 70
1
  0
LAYER
  5
50
100
AcDbSymbolTableRecord
100
AcDbLayerTableRecord
  2
0
 70
0
  6
CONTINUOUS
  0
ENDTAB
  0
TABLE
  2
STYLE
  5
3
330
0
100
AcDbSymbolTable
 70
     1
  0
STYLE
  5
11
330
3
100
AcDbSymbolTableRecord
100
AcDbTextStyleTableRecord
  2
STANDARD
 70
     0
 40
0.0
 41
1.0
 50
0.0
 71
     0
 42
2.5
  3
txt
  4

  0
ENDTAB
  0
TABLE
  2
VIEW
  5
6
330
0
100
AcDbSymbolTable
 70
     0
  0
ENDTAB
  0
TABLE
  2
UCS
  5
7
330
0
100
AcDbSymbolTable
 70
     0
  0
ENDTAB
  0
TABLE
  2
APPID
  5
9
330
0
100
AcDbSymbolTable
 70
     2
  0
APPID
  5
12
330
9
100
AcDbSymbolTableRecord
100
AcDbRegAppTableRecord
  2
ACAD
 70
     0
  0
ENDTAB
  0
TABLE
  2
DIMSTYLE
  5
A
330
0
100
AcDbSymbolTable
 70
     1
  0
DIMSTYLE
105
27
330
A
100
AcDbSymbolTableRecord
100
AcDbDimStyleTableRecord
  2
ISO-25
 70
     0
  3

  4

  5

  6

  7

 40
1.0
 41
2.5
 42
0.625
 43
3.75
 44
1.25
 45
0.0
 46
0.0
 47
0.0
 48
0.0
140
2.5
141
2.5
142
0.0
143
0.03937007874016
144
1.0
145
0.0
146
1.0
147
0.625
 71
     0
 72
     0
 73
     0
 74
     0
 75
     0
 76
     0
 77
     1
 78
     8
170
     0
171
     3
172
     1
173
     0
174
     0
175
     0
176
     0
177
     0
178
     0
270
     2
271
     2
272
     2
273
     2
274
     3
340
11
275
     0
280
     0
281
     0
282
     0
283
     0
284
     8
285
     0
286
     0
287
     3
288
     0
  0
ENDTAB
  0
TABLE
  2
BLOCK_RECORD
  5
1
330
0
100
AcDbSymbolTable
 70
     1
  0
BLOCK_RECORD
  5
1F
330
1
100
AcDbSymbolTableRecord
100
AcDbBlockTableRecord
  2
*MODEL_SPACE
  0
BLOCK_RECORD
  5
1B
330
1
100
AcDbSymbolTableRecord
100
AcDbBlockTableRecord
  2
*PAPER_SPACE
  0
ENDTAB
  0
ENDSEC
  0
SECTION
  2
BLOCKS
  0
BLOCK
  5
20
330
1F
100
AcDbEntity
  8
0
100
AcDbBlockBegin
  2
*MODEL_SPACE
 70
     0
 10
0.0
 20
0.0
 30
0.0
  3
*MODEL_SPACE
  1

  0
ENDBLK
  5
21
330
1F
100
AcDbEntity
  8
0
100
AcDbBlockEnd
  0
BLOCK
  5
1C
330
1B
100
AcDbEntity
 67
     1
  8
0
100
AcDbBlockBegin
  2
*PAPER_SPACE
  1

  0
ENDBLK
  5
1D
330
1B
100
AcDbEntity
 67
     1
  8
0
100
AcDbBlockEnd
  0
ENDSEC
  0
SECTION
  2
ENTITIES
  0
LWPOLYLINE
  5
100
100
AcDbEntity
  8
0
 62
7
100
AcDbPolyline
 90
2
 70
0
 10
131.926695
 20
-41.829384
 30
0.0
 10
131.926695
 20
-60.371350
 30
0.0
  0
LWPOLYLINE
  5
101
100
AcDbEntity
  8
0
 62
7
100
AcDbPolyline
 90
2
 70
0
 10
130.656697
 20
-61.641347
 30
0.0
 10
115.416726
 20
-61.641347
 30
0.0
  0
LWPOLYLINE
  5
102
100
AcDbEntity
  8
0
 62
7
100
AcDbPolyline
 90
2
 70
0
 10
115.416726
 20
-40.559386
 30
0.0
 10
130.656697
 20
-40.559386
 30
0.0
  0
LWPOLYLINE
  5
103
100
AcDbEntity
  8
0
 62
7
100
AcDbPolyline
 90
2
 70
0
 10
114.146728
 20
-60.371350
 30
0.0
 10
114.146728
 20
-41.829384
 30
0.0
  0
SPLINE
  5
104
100
AcDbEntity
  8
0
 62
7
100
AcDbSpline
 70
8
 71
3
 72
8
 73
4
 74
0
 40
0
 40
0
 40
0
 40
0
 40
1
 40
1
 40
1
 40
1
 10
114.146728
 20
-60.371350
 30
0.0
 10
114.146728
 20
-60.708174
 30
0.0
 10
114.280531
 20
-61.031203
 30
0.0
 10
114.518702
 20
-61.269374
 30
0.0
  0
SPLINE
  5
105
100
AcDbEntity
  8
0
 62
7
100
AcDbSpline
 70
8
 71
3
 72
8
 73
4
 74
0
 40
0
 40
0
 40
0
 40
0
 40
1
 40
1
 40
1
 40
1
 10
114.518702
 20
-61.269374
 30
0.0
 10
114.756872
 20
-61.507545
 30
0.0
 10
115.079901
 20
-61.641348
 30
0.0
 10
115.416726
 20
-61.641347
 30
0.0
  0
SPLINE
  5
106
100
AcDbEntity
  8
0
 62
7
100
AcDbSpline
 70
8
 71
3
 72
8
 73
4
 74
0
 40
0
 40
0
 40
0
 40
0
 40
1
 40
1
 40
1
 40
1
 10
130.656697
 20
-61.641347
 30
0.0
 10
130.993522
 20
-61.641348
 30
0.0
 10
131.316551
 20
-61.507545
 30
0.0
 10
131.554722
 20
-61.269374
 30
0.0
  0
SPLINE
  5
107
100
AcDbEntity
  8
0
 62
7
100
AcDbSpline
 70
8
 71
3
 72
8
 73
4
 74
0
 40
0
 40
0
 40
0
 40
0
 40
1
 40
1
 40
1
 40
1
 10
131.554722
 20
-61.269374
 30
0.0
 10
131.792893
 20
-61.031203
 30
0.0
 10
131.926695
 20
-60.708174
 30
0.0
 10
131.926695
 20
-60.371350
 30
0.0
  0
SPLINE
  5
108
100
AcDbEntity
  8
0
 62
7
100
AcDbSpline
 70
8
 71
3
 72
8
 73
4
 74
0
 40
0
 40
0
 40
0
 40
0
 40
1
 40
1
 40
1
 40
1
 10
131.926695
 20
-41.829384
 30
0.0
 10
131.926695
 20
-41.492560
 30
0.0
 10
131.792893
 20
-41.169531
 30
0.0
 10
131.554722
 20
-40.931360
 30
0.0
  0
SPLINE
  5
109
100
AcDbEntity
  8
0
 62
7
100
AcDbSpline
 70
8
 71
3
 72
8
 73
4
 74
0
 40
0
 40
0
 40
0
 40
0
 40
1
 40
1
 40
1
 40
1
 10
131.554722
 20
-40.931360
 30
0.0
 10
131.316551
 20
-40.693189
 30
0.0
 10
130.993522
 20
-40.559386
 30
0.0
 10
130.656697
 20
-40.559386
 30
0.0
  0
SPLINE
  5
10a
100
AcDbEntity
  8
0
 62
7
100
AcDbSpline
 70
8
 71
3
 72
8
 73
4
 74
0
 40
0
 40
0
 40
0
 40
0
 40
1
 40
1
 40
1
 40
1
 10
115.416726
 20
-40.559386
 30
0.0
 10
115.079901
 20
-40.559386
 30
0.0
 10
114.756872
 20
-40.693189
 30
0.0
 10
114.518702
 20
-40.931360
 30
0.0
  0
SPLINE
  5
10b
100
AcDbEntity
  8
0
 62
7
100
AcDbSpline
 70
8
 71
3
 72
8
 73
4
 74
0
 40
0
 40
0
 40
0
 40
0
 40
1
 40
1
 40
1
 40
1
 10
114.518702
 20
-40.931360
 30
0.0
 10
114.280531
 20
-41.169531
 30
0.0
 10
114.146728
 20
-41.492560
 30
0.0
 10
114.146728
 20
-41.829384
 30
0.0
  0
SPLINE
  5
10c
100
AcDbEntity
  8
0
 62
7
100
AcDbSpline
 70
8
 71
3
 72
8
 73
4
 74
0
 40
0
 40
0
 40
0
 40
0
 40
1
 40
1
 40
1
 40
1
 10
52.966842
 20
-13.783436
 30
0.0
 10
51.061463
 20
-13.783436
 30
0.0
 10
49.516848
 20
-15.328051
 30
0.0
 10
49.516848
 20
-17.233430
 30
0.0
  0
SPLINE
  5
10d
100
AcDbEntity
  8
0
 62
7
100
AcDbSpline
 70
8
 71
3
 72
8
 73
4
 74
0
 40
0
 40
0
 40
0
 40
0
 40
1
 40
1
 40
1
 40
1
 10
49.516848
 20
-17.233430
 30
0.0
 10
49.516848
 20
-19.138809
 30
0.0
 10
51.061463
 20
-20.683423
 30
0.0
 10
52.966842
 20
-20.683423
 30
0.0
  0
SPLINE
  5
10e
100
AcDbEntity
  8
0
 62
7
100
AcDbSpline
 70
8
 71
3
 72
8
 73
4
 74
0
 40
0
 40
0
 40
0
 40
0
 40
1
 40
1
 40
1
 40
1
 10
52.966842
 20
-20.683423
 30
0.0
 10
54.872221
 20
-20.683423
 30
0.0
 10
56.416835
 20
-19.138809
 30
0.0
 10
56.416835
 20
-17.233430
 30
0.0
  0
SPLINE
  5
10f
100
AcDbEntity
  8
0
 62
7
100
AcDbSpline
 70
8
 71
3
 72
8
 73
4
 74
0
 40
0
 40
0
 40
0
 40
0
 40
1
 40
1
 40
1
 40
1
 10
56.416835
 20
-17.233430
 30
0.0
 10
56.416835
 20
-16.318435
 30
0.0
 10
56.053355
 20
-15.440915
 30
0.0
 10
55.406356
 20
-14.793916
 30
0.0
  0
SPLINE
  5
110
100
AcDbEntity
  8
0
 62
7
100
AcDbSpline
 70
8
 71
3
 72
8
 73
4
 74
0
 40
0
 40
0
 40
0
 40
0
 40
1
 40
1
 40
1
 40
1
 10
55.406356
 20
-14.793916
 30
0.0
 10
54.759356
 20
-14.146917
 30
0.0
 10
53.881837
 20
-13.783436
 30
0.0
 10
52.966842
 20
-13.783436
 30
0.0
  0
LWPOLYLINE
  5
111
100
AcDbEntity
  8
0
 62
7
100
AcDbPolyline
 90
4
 70
1
 10
118.536720
 20
-40.559386
 30
0.0
 10
127.536703
 20
-40.559386
 30
0.0
 10
127.536703
 20
-39.035389
 30
0.0
 10
118.536720
 20
-39.035389
 30
0.0
  0
SPLINE
  5
112
100
AcDbEntity
  8
0
 62
7
100
AcDbSpline
 70
8
 71
3
 72
8
 73
4
 74
0
 40
0
 40
0
 40
0
 40
0
 40
1
 40
1
 40
1
 40
1
 10
161.524900
 20
-33.698484
 30
0.0
 10
160.129508
 20
-33.698484
 30
0.0
 10
158.871515
 20
-34.539048
 30
0.0
 10
158.337522
 20
-35.828222
 30
0.0
  0
SPLINE
  5
113
100
AcDbEntity
  8
0
 62
7
100
AcDbSpline
 70
8
 71
3
 72
8
 73
4
 74
0
 40
0
 40
0
 40
0
 40
0
 40
1
 40
1
 40
1
 40
1
 10
158.337522
 20
-35.828222
 30
0.0
 10
157.803528
 20
-37.117397
 30
0.0
 10
158.098695
 20
-38.601300
 30
0.0
 10
159.085386
 20
-39.587992
 30
0.0
  0
SPLINE
  5
114
100
AcDbEntity
  8
0
 62
7
100
AcDbSpline
 70
8
 71
3
 72
8
 73
4
 74
0
 40
0
 40
0
 40
0
 40
0
 40
1
 40
1
 40
1
 40
1
 10
159.085386
 20
-39.587992
 30
0.0
 10
160.072078
 20
-40.574683
 30
0.0
 10
161.555981
 20
-40.869850
 30
0.0
 10
162.845156
 20
-40.335856
 30
0.0
  0
SPLINE
  5
115
100
AcDbEntity
  8
0
 62
7
100
AcDbSpline
 70
8
 71
3
 72
8
 73
4
 74
0
 40
0
 40
0
 40
0
 40
0
 40
1
 40
1
 40
1
 40
1
 10
162.845156
 20
-40.335856
 30
0.0
 10
164.134330
 20
-39.801863
 30
0.0
 10
164.974894
 20
-38.543870
 30
0.0
 10
164.974894
 20
-37.148478
 30
0.0
  0
SPLINE
  5
116
100
AcDbEntity
  8
0
 62
7
100
AcDbSpline
 70
8
 71
3
 72
8
 73
4
 74
0
 40
0
 40
0
 40
0
 40
0
 40
1
 40
1
 40
1
 40
1
 10
164.974894
 20
-37.148478
 30
0.0
 10
164.974894
 20
-35.243099
 30
0.0
 10
163.430279
 20
-33.698484
 30
0.0
 10
161.524900
 20
-33.698484
 30
0.0
  0
LWPOLYLINE
  5
117
100
AcDbEntity
  8
0
 62
7
100
AcDbPolyline
 90
1
 70
1
 10
52.966842
 20
-13.783436
 30
0.0
  0
SPLINE
  5
118
100
AcDbEntity
  8
0
 62
7
100
AcDbSpline
 70
8
 71
3
 72
8
 73
4
 74
0
 40
0
 40
0
 40
0
 40
0
 40
1
 40
1
 40
1
 40
1
 10
84.265042
 20
-34.308481
 30
0.0
 10
82.869649
 20
-34.308481
 30
0.0
 10
81.611657
 20
-35.149045
 30
0.0
 10
81.077663
 20
-36.438219
 30
0.0
  0
SPLINE
  5
119
100
AcDbEntity
  8
0
 62
7
100
AcDbSpline
 70
8
 71
3
 72
8
 73
4
 74
0
 40
0
 40
0
 40
0
 40
0
 40
1
 40
1
 40
1
 40
1
 10
81.077663
 20
-36.438219
 30
0.0
 10
80.543670
 20
-37.727394
 30
0.0
 10
80.838836
 20
-39.211297
 30
0.0
 10
81.825528
 20
-40.197989
 30
0.0
  0
SPLINE
  5
11a
100
AcDbEntity
  8
0
 62
7
100
AcDbSpline
 70
8
 71
3
 72
8
 73
4
 74
0
 40
0
 40
0
 40
0
 40
0
 40
1
 40
1
 40
1
 40
1
 10
81.825528
 20
-40.197989
 30
0.0
 10
82.812219
 20
-41.184680
 30
0.0
 10
84.296123
 20
-41.479847
 30
0.0
 10
85.585297
 20
-40.945853
 30
0.0
  0
SPLINE
  5
11b
100
AcDbEntity
  8
0
 62
7
100
AcDbSpline
 70
8
 71
3
 72
8
 73
4
 74
0
 40
0
 40
0
 40
0
 40
0
 40
1
 40
1
 40
1
 40
1
 10
85.585297
 20
-40.945853
 30
0.0
 10
86.874471
 20
-40.411860
 30
0.0
 10
87.715035
 20
-39.153867
 30
0.0
 10
87.715035
 20
-37.758475
 30
0.0
  0
SPLINE
  5
11c
100
AcDbEntity
  8
0
 62
7
100
AcDbSpline
 70
8
 71
3
 72
8
 73
4
 74
0
 40
0
 40
0
 40
0
 40
0
 40
1
 40
1
 40
1
 40
1
 10
87.715035
 20
-37.758475
 30
0.0
 10
87.715035
 20
-36.843479
 30
0.0
 10
87.351555
 20
-35.965960
 30
0.0
 10
86.704555
 20
-35.318961
 30
0.0
  0
SPLINE
  5
11d
100
AcDbEntity
  8
0
 62
7
100
AcDbSpline
 70
8
 71
3
 72
8
 73
4
 74
0
 40
0
 40
0
 40
0
 40
0
 40
1
 40
1
 40
1
 40
1
 10
86.704555
 20
-35.318961
 30
0.0
 10
86.057556
 20
-34.671962
 30
0.0
 10
85.180037
 20
-34.308481
 30
0.0
 10
84.265042
 20
-34.308481
 30
0.0
  0
LWPOLYLINE
  5
11e
100
AcDbEntity
  8
0
 62
7
100
AcDbPolyline
 90
1
 70
1
 10
161.524900
 20
-33.698484
 30
0.0
  0
SPLINE
  5
11f
100
AcDbEntity
  8
0
 62
7
100
AcDbSpline
 70
8
 71
3
 72
8
 73
4
 74
0
 40
0
 40
0
 40
0
 40
0
 40
1
 40
1
 40
1
 40
1
 10
170.044882
 20
-71.758413
 30
0.0
 10
168.649490
 20
-71.758413
 30
0.0
 10
167.391497
 20
-72.598977
 30
0.0
 10
166.857504
 20
-73.888151
 30
0.0
  0
SPLINE
  5
120
100
AcDbEntity
  8
0
 62
7
100
AcDbSpline
 70
8
 71
3
 72
8
 73
4
 74
0
 40
0
 40
0
 40
0
 40
0
 40
1
 40
1
 40
1
 40
1
 10
166.857504
 20
-73.888151
 30
0.0
 10
166.323510
 20
-75.177325
 30
0.0
 10
166.618677
 20
-76.661229
 30
0.0
 10
167.605368
 20
-77.647920
 30
0.0
  0
SPLINE
  5
121
100
AcDbEntity
  8
0
 62
7
100
AcDbSpline
 70
8
 71
3
 72
8
 73
4
 74
0
 40
0
 40
0
 40
0
 40
0
 40
1
 40
1
 40
1
 40
1
 10
167.605368
 20
-77.647920
 30
0.0
 10
168.592060
 20
-78.634611
 30
0.0
 10
170.075964
 20
-78.929778
 30
0.0
 10
171.365138
 20
-78.395785
 30
0.0
  0
SPLINE
  5
122
100
AcDbEntity
  8
0
 62
7
100
AcDbSpline
 70
8
 71
3
 72
8
 73
4
 74
0
 40
0
 40
0
 40
0
 40
0
 40
1
 40
1
 40
1
 40
1
 10
171.365138
 20
-78.395785
 30
0.0
 10
172.654312
 20
-77.861791
 30
0.0
 10
173.494876
 20
-76.603798
 30
0.0
 10
173.494876
 20
-75.208406
 30
0.0
  0
SPLINE
  5
123
100
AcDbEntity
  8
0
 62
7
100
AcDbSpline
 70
8
 71
3
 72
8
 73
4
 74
0
 40
0
 40
0
 40
0
 40
0
 40
1
 40
1
 40
1
 40
1
 10
173.494876
 20
-75.208406
 30
0.0
 10
173.494876
 20
-73.303027
 30
0.0
 10
171.950261
 20
-71.758413
 30
0.0
 10
170.044882
 20
-71.758413
 30
0.0
  0
LWPOLYLINE
  5
124
100
AcDbEntity
  8
0
 62
7
100
AcDbPolyline
 90
1
 70
1
 10
84.265042
 20
-34.308481
 30
0.0
  0
SPLINE
  5
125
100
AcDbEntity
  8
0
 62
7
100
AcDbSpline
 70
8
 71
3
 72
8
 73
4
 74
0
 40
0
 40
0
 40
0
 40
0
 40
1
 40
1
 40
1
 40
1
 10
7.166927
 20
-39.283389
 30
0.0
 10
5.771535
 20
-39.283389
 30
0.0
 10
4.513542
 20
-40.123953
 30
0.0
 10
3.979548
 20
-41.413127
 30
0.0
  0
SPLINE
  5
126
100
AcDbEntity
  8
0
 62
7
100
AcDbSpline
 70
8
 71
3
 72
8
 73
4
 74
0
 40
0
 40
0
 40
0
 40
0
 40
1
 40
1
 40
1
 40
1
 10
3.979548
 20
-41.413127
 30
0.0
 10
3.445555
 20
-42.702301
 30
0.0
 10
3.740722
 20
-44.186205
 30
0.0
 10
4.727413
 20
-45.172896
 30
0.0
  0
SPLINE
  5
127
100
AcDbEntity
  8
0
 62
7
100
AcDbSpline
 70
8
 71
3
 72
8
 73
4
 74
0
 40
0
 40
0
 40
0
 40
0
 40
1
 40
1
 40
1
 40
1
 10
4.727413
 20
-45.172896
 30
0.0
 10
5.714104
 20
-46.159588
 30
0.0
 10
7.198008
 20
-46.454754
 30
0.0
 10
8.487182
 20
-45.920761
 30
0.0
  0
SPLINE
  5
128
100
AcDbEntity
  8
0
 62
7
100
AcDbSpline
 70
8
 71
3
 72
8
 73
4
 74
0
 40
0
 40
0
 40
0
 40
0
 40
1
 40
1
 40
1
 40
1
 10
8.487182
 20
-45.920761
 30
0.0
 10
9.776356
 20
-45.386767
 30
0.0
 10
10.616920
 20
-44.128775
 30
0.0
 10
10.616920
 20
-42.733382
 30
0.0
  0
SPLINE
  5
129
100
AcDbEntity
  8
0
 62
7
100
AcDbSpline
 70
8
 71
3
 72
8
 73
4
 74
0
 40
0
 40
0
 40
0
 40
0
 40
1
 40
1
 40
1
 40
1
 10
10.616920
 20
-42.733382
 30
0.0
 10
10.616920
 20
-41.818387
 30
0.0
 10
10.253440
 20
-40.940868
 30
0.0
 10
9.606441
 20
-40.293869
 30
0.0
  0
SPLINE
  5
12a
100
AcDbEntity
  8
0
 62
7
100
AcDbSpline
 70
8
 71
3
 72
8
 73
4
 74
0
 40
0
 40
0
 40
0
 40
0
 40
1
 40
1
 40
1
 40
1
 10
9.606441
 20
-40.293869
 30
0.0
 10
8.959441
 20
-39.646869
 30
0.0
 10
8.081922
 20
-39.283389
 30
0.0
 10
7.166927
 20
-39.283389
 30
0.0
  0
LWPOLYLINE
  5
12b
100
AcDbEntity
  8
0
 62
7
100
AcDbPolyline
 90
1
 70
1
 10
170.044882
 20
-71.758413
 30
0.0
  0
SPLINE
  5
12c
100
AcDbEntity
  8
0
 62
7
100
AcDbSpline
 70
8
 71
3
 72
8
 73
4
 74
0
 40
0
 40
0
 40
0
 40
0
 40
1
 40
1
 40
1
 40
1
 10
238.666497
 20
-39.283389
 30
0.0
 10
237.271105
 20
-39.283389
 30
0.0
 10
236.013112
 20
-40.123953
 30
0.0
 10
235.479119
 20
-41.413127
 30
0.0
  0
SPLINE
  5
12d
100
AcDbEntity
  8
0
 62
7
100
AcDbSpline
 70
8
 71
3
 72
8
 73
4
 74
0
 40
0
 40
0
 40
0
 40
0
 40
1
 40
1
 40
1
 40
1
 10
235.479119
 20
-41.413127
 30
0.0
 10
234.945125
 20
-42.702301
 30
0.0
 10
235.240292
 20
-44.186205
 30
0.0
 10
236.226983
 20
-45.172896
 30
0.0
  0
SPLINE
  5
12e
100
AcDbEntity
  8
0
 62
7
100
AcDbSpline
 70
8
 71
3
 72
8
 73
4
 74
0
 40
0
 40
0
 40
0
 40
0
 40
1
 40
1
 40
1
 40
1
 10
236.226983
 20
-45.172896
 30
0.0
 10
237.213674
 20
-46.159588
 30
0.0
 10
238.697578
 20
-46.454754
 30
0.0
 10
239.986752
 20
-45.920761
 30
0.0
  0
SPLINE
  5
12f
100
AcDbEntity
  8
0
 62
7
100
AcDbSpline
 70
8
 71
3
 72
8
 73
4
 74
0
 40
0
 40
0
 40
0
 40
0
 40
1
 40
1
 40
1
 40
1
 10
239.986752
 20
-45.920761
 30
0.0
 10
241.275927
 20
-45.386767
 30
0.0
 10
242.116491
 20
-44.128775
 30
0.0
 10
242.116491
 20
-42.733382
 30
0.0
  0
SPLINE
  5
130
100
AcDbEntity
  8
0
 62
7
100
AcDbSpline
 70
8
 71
3
 72
8
 73
4
 74
0
 40
0
 40
0
 40
0
 40
0
 40
1
 40
1
 40
1
 40
1
 10
242.116491
 20
-42.733382
 30
0.0
 10
242.116491
 20
-41.818387
 30
0.0
 10
241.753010
 20
-40.940868
 30
0.0
 10
241.106011
 20
-40.293869
 30
0.0
  0
SPLINE
  5
131
100
AcDbEntity
  8
0
 62
7
100
AcDbSpline
 70
8
 71
3
 72
8
 73
4
 74
0
 40
0
 40
0
 40
0
 40
0
 40
1
 40
1
 40
1
 40
1
 10
241.106011
 20
-40.293869
 30
0.0
 10
240.459012
 20
-39.646869
 30
0.0
 10
239.581492
 20
-39.283389
 30
0.0
 10
238.666497
 20
-39.283389
 30
0.0
  0
LWPOLYLINE
  5
132
100
AcDbEntity
  8
0
 62
7
100
AcDbPolyline
 90
1
 70
1
 10
7.166927
 20
-39.283389
 30
0.0
  0
SPLINE
  5
133
100
AcDbEntity
  8
0
 62
7
100
AcDbSpline
 70
8
 71
3
 72
8
 73
4
 74
0
 40
0
 40
0
 40
0
 40
0
 40
1
 40
1
 40
1
 40
1
 10
193.166581
 20
-13.783436
 30
0.0
 10
191.771189
 20
-13.783436
 30
0.0
 10
190.513196
 20
-14.624000
 30
0.0
 10
189.979203
 20
-15.913174
 30
0.0
  0
SPLINE
  5
134
100
AcDbEntity
  8
0
 62
7
100
AcDbSpline
 70
8
 71
3
 72
8
 73
4
 74
0
 40
0
 40
0
 40
0
 40
0
 40
1
 40
1
 40
1
 40
1
 10
189.979203
 20
-15.913174
 30
0.0
 10
189.445210
 20
-17.202349
 30
0.0
 10
189.740376
 20
-18.686252
 30
0.0
 10
190.727068
 20
-19.672944
 30
0.0
  0
SPLINE
  5
135
100
AcDbEntity
  8
0
 62
7
100
AcDbSpline
 70
8
 71
3
 72
8
 73
4
 74
0
 40
0
 40
0
 40
0
 40
0
 40
1
 40
1
 40
1
 40
1
 10
190.727068
 20
-19.672944
 30
0.0
 10
191.713759
 20
-20.659635
 30
0.0
 10
193.197663
 20
-20.954802
 30
0.0
 10
194.486837
 20
-20.420808
 30
0.0
  0
SPLINE
  5
136
100
AcDbEntity
  8
0
 62
7
100
AcDbSpline
 70
8
 71
3
 72
8
 73
4
 74
0
 40
0
 40
0
 40
0
 40
0
 40
1
 40
1
 40
1
 40
1
 10
194.486837
 20
-20.420808
 30
0.0
 10
195.776011
 20
-19.886815
 30
0.0
 10
196.616575
 20
-18.628822
 30
0.0
 10
196.616575
 20
-17.233430
 30
0.0
  0
SPLINE
  5
137
100
AcDbEntity
  8
0
 62
7
100
AcDbSpline
 70
8
 71
3
 72
8
 73
4
 74
0
 40
0
 40
0
 40
0
 40
0
 40
1
 40
1
 40
1
 40
1
 10
196.616575
 20
-17.233430
 30
0.0
 10
196.616575
 20
-16.318435
 30
0.0
 10
196.253095
 20
-15.440915
 30
0.0
 10
195.606095
 20
-14.793916
 30
0.0
  0
SPLINE
  5
138
100
AcDbEntity
  8
0
 62
7
100
AcDbSpline
 70
8
 71
3
 72
8
 73
4
 74
0
 40
0
 40
0
 40
0
 40
0
 40
1
 40
1
 40
1
 40
1
 10
195.606095
 20
-14.793916
 30
0.0
 10
194.959096
 20
-14.146917
 30
0.0
 10
194.081577
 20
-13.783436
 30
0.0
 10
193.166581
 20
-13.783436
 30
0.0
  0
LWPOLYLINE
  5
139
100
AcDbEntity
  8
0
 62
7
100
AcDbPolyline
 90
1
 70
1
 10
238.666497
 20
-39.283389
 30
0.0
  0
SPLINE
  5
13a
100
AcDbEntity
  8
0
 62
7
100
AcDbSpline
 70
8
 71
3
 72
8
 73
4
 74
0
 40
0
 40
0
 40
0
 40
0
 40
1
 40
1
 40
1
 40
1
 10
76.005056
 20
-71.708410
 30
0.0
 10
74.609664
 20
-71.708410
 30
0.0
 10
73.351671
 20
-72.548974
 30
0.0
 10
72.817677
 20
-73.838148
 30
0.0
  0
SPLINE
  5
13b
100
AcDbEntity
  8
0
 62
7
100
AcDbSpline
 70
8
 71
3
 72
8
 73
4
 74
0
 40
0
 40
0
 40
0
 40
0
 40
1
 40
1
 40
1
 40
1
 10
72.817677
 20
-73.838148
 30
0.0
 10
72.283684
 20
-75.127322
 30
0.0
 10
72.578851
 20
-76.611226
 30
0.0
 10
73.565542
 20
-77.597917
 30
0.0
  0
SPLINE
  5
13c
100
AcDbEntity
  8
0
 62
7
100
AcDbSpline
 70
8
 71
3
 72
8
 73
4
 74
0
 40
0
 40
0
 40
0
 40
0
 40
1
 40
1
 40
1
 40
1
 10
73.565542
 20
-77.597917
 30
0.0
 10
74.552233
 20
-78.584608
 30
0.0
 10
76.036137
 20
-78.879775
 30
0.0
 10
77.325311
 20
-78.345782
 30
0.0
  0
SPLINE
  5
13d
100
AcDbEntity
  8
0
 62
7
100
AcDbSpline
 70
8
 71
3
 72
8
 73
4
 74
0
 40
0
 40
0
 40
0
 40
0
 40
1
 40
1
 40
1
 40
1
 10
77.325311
 20
-78.345782
 30
0.0
 10
78.614486
 20
-77.811788
 30
0.0
 10
79.455050
 20
-76.553795
 30
0.0
 10
79.455050
 20
-75.158403
 30
0.0
  0
SPLINE
  5
13e
100
AcDbEntity
  8
0
 62
7
100
AcDbSpline
 70
8
 71
3
 72
8
 73
4
 74
0
 40
0
 40
0
 40
0
 40
0
 40
1
 40
1
 40
1
 40
1
 10
79.455050
 20
-75.158403
 30
0.0
 10
79.455050
 20
-74.243408
 30
0.0
 10
79.091569
 20
-73.365889
 30
0.0
 10
78.444570
 20
-72.718889
 30
0.0
  0
SPLINE
  5
13f
100
AcDbEntity
  8
0
 62
7
100
AcDbSpline
 70
8
 71
3
 72
8
 73
4
 74
0
 40
0
 40
0
 40
0
 40
0
 40
1
 40
1
 40
1
 40
1
 10
78.444570
 20
-72.718889
 30
0.0
 10
77.797570
 20
-72.071890
 30
0.0
 10
76.920051
 20
-71.708410
 30
0.0
 10
76.005056
 20
-71.708410
 30
0.0
  0
LWPOLYLINE
  5
140
100
AcDbEntity
  8
0
 62
7
100
AcDbPolyline
 90
1
 70
1
 10
193.166581
 20
-13.783436
 30
0.0
  0
LWPOLYLINE
  5
141
100
AcDbEntity
  8
0
 62
7
100
AcDbPolyline
 90
1
 70
1
 10
76.005056
 20
-71.708410
 30
0.0
  0
LWPOLYLINE
  5
142
100
AcDbEntity
  8
0
 62
7
100
AcDbPolyline
 90
2
 70
0
 10
27.446029
 20
-37.345229
 30
0.0
 10
41.934890
 20
-41.227508
 30
0.0
  0
LWPOLYLINE
  5
143
100
AcDbEntity
  8
0
 62
7
100
AcDbPolyline
 90
2
 70
0
 10
23.563750
 20
-51.834091
 30
0.0
 10
27.446029
 20
-37.345229
 30
0.0
  0
LWPOLYLINE
  5
144
100
AcDbEntity
  8
0
 62
7
100
AcDbPolyline
 90
2
 70
0
 10
38.052611
 20
-55.716369
 30
0.0
 10
23.563750
 20
-51.834091
 30
0.0
  0
LWPOLYLINE
  5
145
100
AcDbEntity
  8
0
 62
7
100
AcDbPolyline
 90
2
 70
0
 10
41.934890
 20
-41.227508
 30
0.0
 10
38.052611
 20
-55.716369
 30
0.0
  0
LWPOLYLINE
  5
146
100
AcDbEntity
  8
0
 62
7
100
AcDbPolyline
 90
4
 70
1
 10
57.939497
 20
-70.362501
 30
0.0
 10
72.428359
 20
-74.244780
 30
0.0
 10
68.546080
 20
-88.733641
 30
0.0
 10
54.057219
 20
-84.851362
 30
0.0
  0
LWPOLYLINE
  5
147
100
AcDbEntity
  8
0
 62
7
100
AcDbPolyline
 90
2
 70
0
 10
57.699253
 20
-55.804291
 30
0.0
 10
43.210392
 20
-51.922012
 30
0.0
  0
LWPOLYLINE
  5
148
100
AcDbEntity
  8
0
 62
7
100
AcDbPolyline
 90
2
 70
0
 10
61.581532
 20
-41.315430
 30
0.0
 10
57.699253
 20
-55.804291
 30
0.0
  0
LWPOLYLINE
  5
149
100
AcDbEntity
  8
0
 62
7
100
AcDbPolyline
 90
3
 70
0
 10
43.210392
 20
-51.922012
 30
0.0
 10
47.092671
 20
-37.433151
 30
0.0
 10
61.581532
 20
-41.315430
 30
0.0
  0
LWPOLYLINE
  5
14a
100
AcDbEntity
  8
0
 62
7
100
AcDbPolyline
 90
3
 70
0
 10
90.717351
 20
-99.072282
 30
0.0
 10
99.320982
 20
-86.785024
 30
0.0
 10
111.608240
 20
-95.388655
 30
0.0
  0
LWPOLYLINE
  5
14b
100
AcDbEntity
  8
0
 62
7
100
AcDbPolyline
 90
2
 70
0
 10
103.004609
 20
-107.675913
 30
0.0
 10
90.717351
 20
-99.072282
 30
0.0
  0
LWPOLYLINE
  5
14c
100
AcDbEntity
  8
0
 62
7
100
AcDbPolyline
 90
2
 70
0
 10
111.608240
 20
-95.388655
 30
0.0
 10
103.004609
 20
-107.675913
 30
0.0
  0
LWPOLYLINE
  5
14d
100
AcDbEntity
  8
0
 62
7
100
AcDbPolyline
 90
2
 70
0
 10
96.345515
 20
-58.394968
 30
0.0
 10
92.463236
 20
-72.883829
 30
0.0
  0
LWPOLYLINE
  5
14e
100
AcDbEntity
  8
0
 62
7
100
AcDbPolyline
 90
2
 70
0
 10
81.856654
 20
-54.512690
 30
0.0
 10
96.345515
 20
-58.394968
 30
0.0
  0
LWPOLYLINE
  5
14f
100
AcDbEntity
  8
0
 62
7
100
AcDbPolyline
 90
2
 70
0
 10
77.974375
 20
-69.001551
 30
0.0
 10
81.856654
 20
-54.512690
 30
0.0
  0
LWPOLYLINE
  5
150
100
AcDbEntity
  8
0
 62
7
100
AcDbPolyline
 90
2
 70
0
 10
92.463236
 20
-72.883829
 30
0.0
 10
77.974375
 20
-69.001551
 30
0.0
  0
LWPOLYLINE
  5
151
100
AcDbEntity
  8
0
 62
7
100
AcDbPolyline
 90
2
 70
0
 10
5.858240
 20
-44.501720
 30
0.0
 10
20.347101
 20
-48.383999
 30
0.0
  0
LWPOLYLINE
  5
152
100
AcDbEntity
  8
0
 62
7
100
AcDbPolyline
 90
2
 70
0
 10
1.975961
 20
-58.990581
 30
0.0
 10
5.858240
 20
-44.501720
 30
0.0
  0
LWPOLYLINE
  5
153
100
AcDbEntity
  8
0
 62
7
100
AcDbPolyline
 90
2
 70
0
 10
16.464822
 20
-62.872860
 30
0.0
 10
1.975961
 20
-58.990581
 30
0.0
  0
LWPOLYLINE
  5
154
100
AcDbEntity
  8
0
 62
7
100
AcDbPolyline
 90
2
 70
0
 10
20.347101
 20
-48.383999
 30
0.0
 10
16.464822
 20
-62.872860
 30
0.0
  0
LWPOLYLINE
  5
155
100
AcDbEntity
  8
0
 62
7
100
AcDbPolyline
 90
2
 70
0
 10
69.068697
 20
-28.827774
 30
0.0
 10
83.557558
 20
-32.710053
 30
0.0
  0
LWPOLYLINE
  5
156
100
AcDbEntity
  8
0
 62
7
100
AcDbPolyline
 90
2
 70
0
 10
65.186418
 20
-43.316635
 30
0.0
 10
69.068697
 20
-28.827774
 30
0.0
  0
LWPOLYLINE
  5
157
100
AcDbEntity
  8
0
 62
7
100
AcDbPolyline
 90
3
 70
0
 10
83.557558
 20
-32.710053
 30
0.0
 10
79.675279
 20
-47.198914
 30
0.0
 10
65.186418
 20
-43.316635
 30
0.0
  0
LWPOLYLINE
  5
158
100
AcDbEntity
  8
0
 62
7
100
AcDbPolyline
 90
2
 70
0
 10
79.348628
 20
-76.763561
 30
0.0
 10
92.943218
 20
-83.102824
 30
0.0
  0
LWPOLYLINE
  5
159
100
AcDbEntity
  8
0
 62
7
100
AcDbPolyline
 90
2
 70
0
 10
86.603956
 20
-96.697414
 30
0.0
 10
73.009365
 20
-90.358152
 30
0.0
  0
LWPOLYLINE
  5
15a
100
AcDbEntity
  8
0
 62
7
100
AcDbPolyline
 90
2
 70
0
 10
92.943218
 20
-83.102824
 30
0.0
 10
86.603956
 20
-96.697414
 30
0.0
  0
LWPOLYLINE
  5
15b
100
AcDbEntity
  8
0
 62
7
100
AcDbPolyline
 90
2
 70
0
 10
73.009365
 20
-90.358152
 30
0.0
 10
79.348628
 20
-76.763561
 30
0.0
  0
LWPOLYLINE
  5
15c
100
AcDbEntity
  8
0
 62
7
100
AcDbPolyline
 90
4
 70
1
 10
78.640000
 20
-51.062605
 30
0.0
 10
74.757721
 20
-65.551466
 30
0.0
 10
60.268860
 20
-61.669187
 30
0.0
 10
64.151139
 20
-47.180326
 30
0.0
  0
LWPOLYLINE
  5
15d
100
AcDbEntity
  8
0
 62
7
100
AcDbPolyline
 90
4
 70
1
 10
46.852442
 20
-22.874946
 30
0.0
 10
42.970163
 20
-37.363807
 30
0.0
 10
28.481302
 20
-33.481529
 30
0.0
 10
32.363581
 20
-18.992668
 30
0.0
  0
LWPOLYLINE
  5
15e
100
AcDbEntity
  8
0
 62
7
100
AcDbPolyline
 90
3
 70
0
 10
53.045503
 20
-15.216900
 30
0.0
 10
56.927781
 20
-0.728038
 30
0.0
 10
71.416642
 20
-4.610317
 30
0.0
  0
LWPOLYLINE
  5
15f
100
AcDbEntity
  8
0
 62
7
100
AcDbPolyline
 90
2
 70
0
 10
67.534364
 20
-19.099178
 30
0.0
 10
53.045503
 20
-15.216900
 30
0.0
  0
LWPOLYLINE
  5
160
100
AcDbEntity
  8
0
 62
7
100
AcDbPolyline
 90
2
 70
0
 10
71.416642
 20
-4.610317
 30
0.0
 10
67.534364
 20
-19.099178
 30
0.0
  0
LWPOLYLINE
  5
161
100
AcDbEntity
  8
0
 62
7
100
AcDbPolyline
 90
2
 70
0
 10
86.774207
 20
-36.160137
 30
0.0
 10
101.263068
 20
-40.042415
 30
0.0
  0
LWPOLYLINE
  5
162
100
AcDbEntity
  8
0
 62
7
100
AcDbPolyline
 90
2
 70
0
 10
97.380789
 20
-54.531277
 30
0.0
 10
82.891928
 20
-50.648998
 30
0.0
  0
LWPOLYLINE
  5
163
100
AcDbEntity
  8
0
 62
7
100
AcDbPolyline
 90
2
 70
0
 10
101.263068
 20
-40.042415
 30
0.0
 10
97.380789
 20
-54.531277
 30
0.0
  0
LWPOLYLINE
  5
164
100
AcDbEntity
  8
0
 62
7
100
AcDbPolyline
 90
2
 70
0
 10
82.891928
 20
-50.648998
 30
0.0
 10
86.774207
 20
-36.160137
 30
0.0
  0
LWPOLYLINE
  5
165
100
AcDbEntity
  8
0
 62
7
100
AcDbPolyline
 90
2
 70
0
 10
52.010226
 20
-19.080593
 30
0.0
 10
66.499088
 20
-22.962872
 30
0.0
  0
LWPOLYLINE
  5
166
100
AcDbEntity
  8
0
 62
7
100
AcDbPolyline
 90
2
 70
0
 10
48.127948
 20
-33.569454
 30
0.0
 10
52.010226
 20
-19.080593
 30
0.0
  0
LWPOLYLINE
  5
167
100
AcDbEntity
  8
0
 62
7
100
AcDbPolyline
 90
2
 70
0
 10
62.616809
 20
-37.451733
 30
0.0
 10
48.127948
 20
-33.569454
 30
0.0
  0
LWPOLYLINE
  5
168
100
AcDbEntity
  8
0
 62
7
100
AcDbPolyline
 90
2
 70
0
 10
66.499088
 20
-22.962872
 30
0.0
 10
62.616809
 20
-37.451733
 30
0.0
  0
LWPOLYLINE
  5
169
100
AcDbEntity
  8
0
 62
7
100
AcDbPolyline
 90
4
 70
1
 10
33.398855
 20
-15.128980
 30
0.0
 10
37.281134
 20
-0.640119
 30
0.0
 10
51.769995
 20
-4.522397
 30
0.0
 10
47.887716
 20
-19.011258
 30
0.0
  0
LWPOLYLINE
  5
16a
100
AcDbEntity
  8
0
 62
7
100
AcDbPolyline
 90
2
 70
0
 10
25.264657
 20
-30.031441
 30
0.0
 10
21.382378
 20
-44.520302
 30
0.0
  0
LWPOLYLINE
  5
16b
100
AcDbEntity
  8
0
 62
7
100
AcDbPolyline
 90
2
 70
0
 10
10.775796
 20
-26.149162
 30
0.0
 10
25.264657
 20
-30.031441
 30
0.0
  0
LWPOLYLINE
  5
16c
100
AcDbEntity
  8
0
 62
7
100
AcDbPolyline
 90
2
 70
0
 10
6.893517
 20
-40.638023
 30
0.0
 10
10.775796
 20
-26.149162
 30
0.0
  0
LWPOLYLINE
  5
16d
100
AcDbEntity
  8
0
 62
7
100
AcDbPolyline
 90
2
 70
0
 10
21.382378
 20
-44.520302
 30
0.0
 10
6.893517
 20
-40.638023
 30
0.0
  0
LWPOLYLINE
  5
16e
100
AcDbEntity
  8
0
 62
7
100
AcDbPolyline
 90
3
 70
0
 10
146.739225
 20
-86.787294
 30
0.0
 10
155.342856
 20
-99.074552
 30
0.0
 10
143.055597
 20
-107.678183
 30
0.0
  0
LWPOLYLINE
  5
16f
100
AcDbEntity
  8
0
 62
7
100
AcDbPolyline
 90
2
 70
0
 10
134.451966
 20
-95.390925
 30
0.0
 10
146.739225
 20
-86.787294
 30
0.0
  0
LWPOLYLINE
  5
170
100
AcDbEntity
  8
0
 62
7
100
AcDbPolyline
 90
2
 70
0
 10
143.055597
 20
-107.678183
 30
0.0
 10
134.451966
 20
-95.390925
 30
0.0
  0
LWPOLYLINE
  5
171
100
AcDbEntity
  8
0
 62
7
100
AcDbPolyline
 90
3
 70
0
 10
208.007591
 20
-55.718640
 30
0.0
 10
204.125312
 20
-41.229779
 30
0.0
 10
218.614173
 20
-37.347500
 30
0.0
  0
LWPOLYLINE
  5
172
100
AcDbEntity
  8
0
 62
7
100
AcDbPolyline
 90
2
 70
0
 10
222.496452
 20
-51.836362
 30
0.0
 10
208.007591
 20
-55.718640
 30
0.0
  0
LWPOLYLINE
  5
173
100
AcDbEntity
  8
0
 62
7
100
AcDbPolyline
 90
2
 70
0
 10
218.614173
 20
-37.347500
 30
0.0
 10
222.496452
 20
-51.836362
 30
0.0
  0
LWPOLYLINE
  5
174
100
AcDbEntity
  8
0
 62
7
100
AcDbPolyline
 90
2
 70
0
 10
159.456246
 20
-96.699685
 30
0.0
 10
153.116984
 20
-83.105095
 30
0.0
  0
LWPOLYLINE
  5
175
100
AcDbEntity
  8
0
 62
7
100
AcDbPolyline
 90
2
 70
0
 10
166.711575
 20
-76.765832
 30
0.0
 10
173.050837
 20
-90.360423
 30
0.0
  0
LWPOLYLINE
  5
176
100
AcDbEntity
  8
0
 62
7
100
AcDbPolyline
 90
2
 70
0
 10
153.116984
 20
-83.105095
 30
0.0
 10
166.711575
 20
-76.765832
 30
0.0
  0
LWPOLYLINE
  5
177
100
AcDbEntity
  8
0
 62
7
100
AcDbPolyline
 90
2
 70
0
 10
173.050837
 20
-90.360423
 30
0.0
 10
159.456246
 20
-96.699685
 30
0.0
  0
LWPOLYLINE
  5
178
100
AcDbEntity
  8
0
 62
7
100
AcDbPolyline
 90
2
 70
0
 10
188.120705
 20
-70.364782
 30
0.0
 10
192.002984
 20
-84.853643
 30
0.0
  0
LWPOLYLINE
  5
179
100
AcDbEntity
  8
0
 62
7
100
AcDbPolyline
 90
2
 70
0
 10
173.631844
 20
-74.247061
 30
0.0
 10
188.120705
 20
-70.364782
 30
0.0
  0
LWPOLYLINE
  5
17a
100
AcDbEntity
  8
0
 62
7
100
AcDbPolyline
 90
3
 70
0
 10
192.002984
 20
-84.853643
 30
0.0
 10
177.514122
 20
-88.735922
 30
0.0
 10
173.631844
 20
-74.247061
 30
0.0
  0
LWPOLYLINE
  5
17b
100
AcDbEntity
  8
0
 62
7
100
AcDbPolyline
 90
4
 70
1
 10
240.201965
 20
-44.504000
 30
0.0
 10
244.084244
 20
-58.992861
 30
0.0
 10
229.595383
 20
-62.875140
 30
0.0
 10
225.713104
 20
-48.386279
 30
0.0
  0
LWPOLYLINE
  5
17c
100
AcDbEntity
  8
0
 62
7
100
AcDbPolyline
 90
2
 70
0
 10
153.596970
 20
-72.886108
 30
0.0
 10
149.714691
 20
-58.397247
 30
0.0
  0
LWPOLYLINE
  5
17d
100
AcDbEntity
  8
0
 62
7
100
AcDbPolyline
 90
2
 70
0
 10
168.085831
 20
-69.003830
 30
0.0
 10
153.596970
 20
-72.886108
 30
0.0
  0
LWPOLYLINE
  5
17e
100
AcDbEntity
  8
0
 62
7
100
AcDbPolyline
 90
3
 70
0
 10
149.714691
 20
-58.397247
 30
0.0
 10
164.203552
 20
-54.514969
 30
0.0
 10
168.085831
 20
-69.003830
 30
0.0
  0
LWPOLYLINE
  5
17f
100
AcDbEntity
  8
0
 62
7
100
AcDbPolyline
 90
3
 70
0
 10
181.909065
 20
-47.182606
 30
0.0
 10
185.791344
 20
-61.671467
 30
0.0
 10
171.302483
 20
-65.553746
 30
0.0
  0
LWPOLYLINE
  5
180
100
AcDbEntity
  8
0
 62
7
100
AcDbPolyline
 90
2
 70
0
 10
167.420204
 20
-51.064885
 30
0.0
 10
181.909065
 20
-47.182606
 30
0.0
  0
LWPOLYLINE
  5
181
100
AcDbEntity
  8
0
 62
7
100
AcDbPolyline
 90
2
 70
0
 10
171.302483
 20
-65.553746
 30
0.0
 10
167.420204
 20
-51.064885
 30
0.0
  0
LWPOLYLINE
  5
182
100
AcDbEntity
  8
0
 62
7
100
AcDbPolyline
 90
2
 70
0
 10
198.967526
 20
-37.435428
 30
0.0
 10
202.849804
 20
-51.924289
 30
0.0
  0
LWPOLYLINE
  5
183
100
AcDbEntity
  8
0
 62
7
100
AcDbPolyline
 90
2
 70
0
 10
184.478665
 20
-41.317707
 30
0.0
 10
198.967526
 20
-37.435428
 30
0.0
  0
LWPOLYLINE
  5
184
100
AcDbEntity
  8
0
 62
7
100
AcDbPolyline
 90
3
 70
0
 10
202.849804
 20
-51.924289
 30
0.0
 10
188.360943
 20
-55.806568
 30
0.0
 10
184.478665
 20
-41.317707
 30
0.0
  0
LWPOLYLINE
  5
185
100
AcDbEntity
  8
0
 62
7
100
AcDbPolyline
 90
2
 70
0
 10
220.795544
 20
-30.033719
 30
0.0
 10
235.284405
 20
-26.151440
 30
0.0
  0
LWPOLYLINE
  5
186
100
AcDbEntity
  8
0
 62
7
100
AcDbPolyline
 90
2
 70
0
 10
224.677823
 20
-44.522580
 30
0.0
 10
220.795544
 20
-30.033719
 30
0.0
  0
LWPOLYLINE
  5
187
100
AcDbEntity
  8
0
 62
7
100
AcDbPolyline
 90
2
 70
0
 10
239.166684
 20
-40.640301
 30
0.0
 10
224.677823
 20
-44.522580
 30
0.0
  0
LWPOLYLINE
  5
188
100
AcDbEntity
  8
0
 62
7
100
AcDbPolyline
 90
2
 70
0
 10
235.284405
 20
-26.151440
 30
0.0
 10
239.166684
 20
-40.640301
 30
0.0
  0
LWPOLYLINE
  5
189
100
AcDbEntity
  8
0
 62
7
100
AcDbPolyline
 90
3
 70
0
 10
212.661348
 20
-15.131250
 30
0.0
 10
198.172487
 20
-19.013528
 30
0.0
 10
194.290208
 20
-4.524667
 30
0.0
  0
LWPOLYLINE
  5
18a
100
AcDbEntity
  8
0
 62
7
100
AcDbPolyline
 90
2
 70
0
 10
208.779069
 20
-0.642389
 30
0.0
 10
212.661348
 20
-15.131250
 30
0.0
  0
LWPOLYLINE
  5
18b
100
AcDbEntity
  8
0
 62
7
100
AcDbPolyline
 90
2
 70
0
 10
194.290208
 20
-4.524667
 30
0.0
 10
208.779069
 20
-0.642389
 30
0.0
  0
LWPOLYLINE
  5
18c
100
AcDbEntity
  8
0
 62
7
100
AcDbPolyline
 90
2
 70
0
 10
193.014697
 20
-15.219184
 30
0.0
 10
178.525836
 20
-19.101462
 30
0.0
  0
LWPOLYLINE
  5
18d
100
AcDbEntity
  8
0
 62
7
100
AcDbPolyline
 90
2
 70
0
 10
174.643557
 20
-4.612601
 30
0.0
 10
189.132418
 20
-0.730322
 30
0.0
  0
LWPOLYLINE
  5
18e
100
AcDbEntity
  8
0
 62
7
100
AcDbPolyline
 90
2
 70
0
 10
178.525836
 20
-19.101462
 30
0.0
 10
174.643557
 20
-4.612601
 30
0.0
  0
LWPOLYLINE
  5
18f
100
AcDbEntity
  8
0
 62
7
100
AcDbPolyline
 90
2
 70
0
 10
189.132418
 20
-0.730322
 30
0.0
 10
193.014697
 20
-15.219184
 30
0.0
  0
LWPOLYLINE
  5
190
100
AcDbEntity
  8
0
 62
7
100
AcDbPolyline
 90
2
 70
0
 10
163.168282
 20
-50.651274
 30
0.0
 10
148.679421
 20
-54.533553
 30
0.0
  0
LWPOLYLINE
  5
191
100
AcDbEntity
  8
0
 62
7
100
AcDbPolyline
 90
3
 70
0
 10
144.797142
 20
-40.044691
 30
0.0
 10
159.286003
 20
-36.162413
 30
0.0
 10
163.168282
 20
-50.651274
 30
0.0
  0
LWPOLYLINE
  5
192
100
AcDbEntity
  8
0
 62
7
100
AcDbPolyline
 90
2
 70
0
 10
148.679421
 20
-54.533553
 30
0.0
 10
144.797142
 20
-40.044691
 30
0.0
  0
LWPOLYLINE
  5
193
100
AcDbEntity
  8
0
 62
7
100
AcDbPolyline
 90
2
 70
0
 10
199.207761
 20
-22.877225
 30
0.0
 10
213.696622
 20
-18.994947
 30
0.0
  0
LWPOLYLINE
  5
194
100
AcDbEntity
  8
0
 62
7
100
AcDbPolyline
 90
2
 70
0
 10
203.090040
 20
-37.366086
 30
0.0
 10
199.207761
 20
-22.877225
 30
0.0
  0
LWPOLYLINE
  5
195
100
AcDbEntity
  8
0
 62
7
100
AcDbPolyline
 90
2
 70
0
 10
217.578901
 20
-33.483808
 30
0.0
 10
203.090040
 20
-37.366086
 30
0.0
  0
LWPOLYLINE
  5
196
100
AcDbEntity
  8
0
 62
7
100
AcDbPolyline
 90
2
 70
0
 10
213.696622
 20
-18.994947
 30
0.0
 10
217.578901
 20
-33.483808
 30
0.0
  0
LWPOLYLINE
  5
197
100
AcDbEntity
  8
0
 62
7
100
AcDbPolyline
 90
2
 70
0
 10
180.873785
 20
-43.318916
 30
0.0
 10
166.384924
 20
-47.201195
 30
0.0
  0
LWPOLYLINE
  5
198
100
AcDbEntity
  8
0
 62
7
100
AcDbPolyline
 90
3
 70
0
 10
162.502645
 20
-32.712334
 30
0.0
 10
176.991506
 20
-28.830055
 30
0.0
 10
180.873785
 20
-43.318916
 30
0.0
  0
LWPOLYLINE
  5
199
100
AcDbEntity
  8
0
 62
7
100
AcDbPolyline
 90
2
 70
0
 10
166.384924
 20
-47.201195
 30
0.0
 10
162.502645
 20
-32.712334
 30
0.0
  0
LWPOLYLINE
  5
19a
100
AcDbEntity
  8
0
 62
7
100
AcDbPolyline
 90
2
 70
0
 10
194.049973
 20
-19.082876
 30
0.0
 10
197.932252
 20
-33.571737
 30
0.0
  0
LWPOLYLINE
  5
19b
100
AcDbEntity
  8
0
 62
7
100
AcDbPolyline
 90
2
 70
0
 10
179.561112
 20
-22.965155
 30
0.0
 10
194.049973
 20
-19.082876
 30
0.0
  0
LWPOLYLINE
  5
19c
100
AcDbEntity
  8
0
 62
7
100
AcDbPolyline
 90
2
 70
0
 10
183.443390
 20
-37.454016
 30
0.0
 10
179.561112
 20
-22.965155
 30
0.0
  0
LWPOLYLINE
  5
19d
100
AcDbEntity
  8
0
 62
7
100
AcDbPolyline
 90
2
 70
0
 10
197.932252
 20
-33.571737
 30
0.0
 10
183.443390
 20
-37.454016
 30
0.0
  0
LWPOLYLINE
  5
19e
100
AcDbEntity
  8
0
 62
7
100
AcDbPolyline
 90
2
 70
0
 10
120.666716
 20
-66.933338
 30
0.0
 10
120.666716
 20
-64.733342
 30
0.0
  0
LWPOLYLINE
  5
19f
100
AcDbEntity
  8
0
 62
7
100
AcDbPolyline
 90
2
 70
0
 10
119.066719
 20
-68.433335
 30
0.0
 10
119.066719
 20
-67.033337
 30
0.0
  0
LWPOLYLINE
  5
1a0
100
AcDbEntity
  8
0
 62
7
100
AcDbPolyline
 90
2
 70
0
 10
125.866706
 20
-64.733342
 30
0.0
 10
124.366709
 20
-63.233344
 30
0.0
  0
LWPOLYLINE
  5
1a1
100
AcDbEntity
  8
0
 62
7
100
AcDbPolyline
 90
2
 70
0
 10
119.066719
 20
-66.933338
 30
0.0
 10
120.666716
 20
-66.933338
 30
0.0
  0
LWPOLYLINE
  5
1a2
100
AcDbEntity
  8
0
 62
7
100
AcDbPolyline
 90
2
 70
0
 10
125.866706
 20
-66.933338
 30
0.0
 10
127.466703
 20
-66.933338
 30
0.0
  0
LWPOLYLINE
  5
1a3
100
AcDbEntity
  8
0
 62
7
100
AcDbPolyline
 90
2
 70
0
 10
125.866706
 20
-64.733342
 30
0.0
 10
125.866706
 20
-66.933338
 30
0.0
  0
LWPOLYLINE
  5
1a4
100
AcDbEntity
  8
0
 62
7
100
AcDbPolyline
 90
2
 70
0
 10
127.466703
 20
-68.433335
 30
0.0
 10
119.066719
 20
-68.433335
 30
0.0
  0
LWPOLYLINE
  5
1a5
100
AcDbEntity
  8
0
 62
7
100
AcDbPolyline
 90
2
 70
0
 10
127.466703
 20
-66.933338
 30
0.0
 10
127.466703
 20
-68.433335
 30
0.0
  0
LWPOLYLINE
  5
1a6
100
AcDbEntity
  8
0
 62
7
100
AcDbPolyline
 90
2
 70
0
 10
119.066719
 20
-64.733342
 30
0.0
 10
119.066719
 20
-63.233344
 30
0.0
  0
LWPOLYLINE
  5
1a7
100
AcDbEntity
  8
0
 62
7
100
AcDbPolyline
 90
2
 70
0
 10
127.466703
 20
-63.233344
 30
0.0
 10
127.466703
 20
-64.733342
 30
0.0
  0
LWPOLYLINE
  5
1a8
100
AcDbEntity
  8
0
 62
7
100
AcDbPolyline
 90
2
 70
0
 10
120.666716
 20
-66.933338
 30
0.0
 10
122.166713
 20
-68.433335
 30
0.0
  0
LWPOLYLINE
  5
1a9
100
AcDbEntity
  8
0
 62
7
100
AcDbPolyline
 90
2
 70
0
 10
120.666716
 20
-64.733342
 30
0.0
 10
122.166713
 20
-63.233344
 30
0.0
  0
LWPOLYLINE
  5
1aa
100
AcDbEntity
  8
0
 62
7
100
AcDbPolyline
 90
2
 70
0
 10
125.866706
 20
-66.933338
 30
0.0
 10
124.366709
 20
-68.433335
 30
0.0
  0
LWPOLYLINE
  5
1ab
100
AcDbEntity
  8
0
 62
7
100
AcDbPolyline
 90
2
 70
0
 10
119.066719
 20
-63.233344
 30
0.0
 10
127.466703
 20
-63.233344
 30
0.0
  0
LWPOLYLINE
  5
1ac
100
AcDbEntity
  8
0
 62
7
100
AcDbPolyline
 90
2
 70
0
 10
120.666716
 20
-64.733342
 30
0.0
 10
119.066719
 20
-64.733342
 30
0.0
  0
SPLINE
  5
1ad
100
AcDbEntity
  8
0
 62
7
100
AcDbSpline
 70
8
 71
3
 72
8
 73
4
 74
0
 40
0
 40
0
 40
0
 40
0
 40
1
 40
1
 40
1
 40
1
 10
123.266711
 20
-64.833341
 30
0.0
 10
122.862250
 20
-64.833341
 30
0.0
 10
122.497614
 20
-65.076983
 30
0.0
 10
122.342833
 20
-65.450657
 30
0.0
  0
SPLINE
  5
1ae
100
AcDbEntity
  8
0
 62
7
100
AcDbSpline
 70
8
 71
3
 72
8
 73
4
 74
0
 40
0
 40
0
 40
0
 40
0
 40
1
 40
1
 40
1
 40
1
 10
122.342833
 20
-65.450657
 30
0.0
 10
122.188053
 20
-65.824331
 30
0.0
 10
122.273608
 20
-66.254448
 30
0.0
 10
122.559606
 20
-66.540445
 30
0.0
  0
SPLINE
  5
1af
100
AcDbEntity
  8
0
 62
7
100
AcDbSpline
 70
8
 71
3
 72
8
 73
4
 74
0
 40
0
 40
0
 40
0
 40
0
 40
1
 40
1
 40
1
 40
1
 10
122.559606
 20
-66.540445
 30
0.0
 10
122.845603
 20
-66.826443
 30
0.0
 10
123.275720
 20
-66.911998
 30
0.0
 10
123.649394
 20
-66.757217
 30
0.0
  0
SPLINE
  5
1b0
100
AcDbEntity
  8
0
 62
7
100
AcDbSpline
 70
8
 71
3
 72
8
 73
4
 74
0
 40
0
 40
0
 40
0
 40
0
 40
1
 40
1
 40
1
 40
1
 10
123.649394
 20
-66.757217
 30
0.0
 10
124.023068
 20
-66.602437
 30
0.0
 10
124.266709
 20
-66.237801
 30
0.0
 10
124.266709
 20
-65.833340
 30
0.0
  0
SPLINE
  5
1b1
100
AcDbEntity
  8
0
 62
7
100
AcDbSpline
 70
8
 71
3
 72
8
 73
4
 74
0
 40
0
 40
0
 40
0
 40
0
 40
1
 40
1
 40
1
 40
1
 10
124.266709
 20
-65.833340
 30
0.0
 10
124.266709
 20
-65.281056
 30
0.0
 10
123.818995
 20
-64.833341
 30
0.0
 10
123.266711
 20
-64.833341
 30
0.0
  0
LWPOLYLINE
  5
1b2
100
AcDbEntity
  8
0
 62
7
100
AcDbPolyline
 90
2
 70
0
 10
127.466703
 20
-64.733342
 30
0.0
 10
125.866706
 20
-64.733342
 30
0.0
  0
LWPOLYLINE
  5
1b3
100
AcDbEntity
  8
0
 62
7
100
AcDbPolyline
 90
1
 70
1
 10
123.266711
 20
-64.833341
 30
0.0
  0
ENDSEC
  0
SECTION
  2
OBJECTS
  0
DICTIONARY
  5
C
330
0
100
AcDbDictionary
  3
ACAD_GROUP
350
D
  3
ACAD_MLINESTYLE
350
17
  0
DICTIONARY
  5
D
330
C
100
AcDbDictionary
  0
DICTIONARY
  5
1A
330
C
100
AcDbDictionary
  0
DICTIONARY
  5
17
330
C
100
AcDbDictionary
  3
STANDARD
350
18
  0
DICTIONARY
  5
19
330
C
100
AcDbDictionary
  0
ENDSEC
  0
EOF
